Playwrite-Rg18LongSlow.ufo
<glyph name="parenright" format="2">
  <advance width="486"/>
  <unicode hex="0029"/>
  <outline>
    <contour>
      <point x="78" y="-16" type="curve" smooth="yes"/>
      <point x="56" y="-42"/>
      <point x="56" y="-59"/>
      <point x="79" y="-74" type="curve" smooth="yes"/>
      <point x="108" y="-94"/>
      <point x="121" y="-87"/>
      <point x="140" y="-65" type="curve" smooth="yes"/>
      <point x="400" y="248"/>
      <point x="558" y="693"/>
      <point x="558" y="1111" type="curve" smooth="yes"/>
      <point x="558" y="1281"/>
      <point x="533" y="1436"/>
      <point x="491" y="1558" type="curve" smooth="yes"/>
      <point x="483" y="1584"/>
      <point x="471" y="1589"/>
      <point x="444" y="1583" type="curve" smooth="yes"/>
      <point x="418" y="1576"/>
      <point x="404" y="1569"/>
      <point x="415" y="1536" type="curve" smooth="yes"/>
      <point x="450" y="1434"/>
      <point x="470" y="1295"/>
      <point x="470" y="1136" type="curve" smooth="yes"/>
      <point x="470" y="713"/>
      <point x="321" y="276"/>
    </contour>
  </outline>
</glyph>
<glyph name="six" format="2">
  <advance width="1210"/>
  <unicode hex="0036"/>
  <outline>
    <contour>
      <point x="673" y="-19" type="curve" smooth="yes"/>
      <point x="986" y="-19"/>
      <point x="1178" y="210"/>
      <point x="1178" y="544" type="curve" smooth="yes"/>
      <point x="1178" y="776"/>
      <point x="1043" y="906"/>
      <point x="813" y="906" type="curve" smooth="yes"/>
      <point x="614" y="906"/>
      <point x="423" y="799"/>
      <point x="305" y="605" type="curve"/>
      <point x="318" y="499" type="line"/>
      <point x="399" y="673"/>
      <point x="585" y="826"/>
      <point x="813" y="826" type="curve" smooth="yes"/>
      <point x="985" y="826"/>
      <point x="1086" y="725"/>
      <point x="1086" y="544" type="curve" smooth="yes"/>
      <point x="1086" y="251"/>
      <point x="926" y="61"/>
      <point x="673" y="61" type="curve" smooth="yes"/>
      <point x="466" y="61"/>
      <point x="340" y="216"/>
      <point x="340" y="503" type="curve" smooth="yes"/>
      <point x="340" y="1034"/>
      <point x="654" y="1424"/>
      <point x="1223" y="1438" type="curve" smooth="yes"/>
      <point x="1255" y="1439"/>
      <point x="1264" y="1448"/>
      <point x="1263" y="1484" type="curve" smooth="yes"/>
      <point x="1261" y="1515"/>
      <point x="1243" y="1515"/>
      <point x="1221" y="1515" type="curve" smooth="yes"/>
      <point x="609" y="1515"/>
      <point x="249" y="1086"/>
      <point x="249" y="503" type="curve" smooth="yes"/>
      <point x="249" y="175"/>
      <point x="401" y="-19"/>
    </contour>
  </outline>
</glyph>
<glyph name="eight" format="2">
  <advance width="1126"/>
  <unicode hex="0038"/>
  <guideline x="73" y="260" angle="72"/>
  <guideline x="498" y="260" angle="72"/>
  <outline>
    <contour>
      <point x="590" y="-19" type="curve" smooth="yes"/>
      <point x="904" y="-19"/>
      <point x="1131" y="160"/>
      <point x="1131" y="406" type="curve" smooth="yes"/>
      <point x="1131" y="561"/>
      <point x="1025" y="710"/>
      <point x="851" y="800" type="curve"/>
      <point x="1090" y="886"/>
      <point x="1235" y="1038"/>
      <point x="1235" y="1200" type="curve" smooth="yes"/>
      <point x="1235" y="1383"/>
      <point x="1078" y="1515"/>
      <point x="861" y="1515" type="curve" smooth="yes"/>
      <point x="599" y="1515"/>
      <point x="409" y="1365"/>
      <point x="409" y="1159" type="curve" smooth="yes"/>
      <point x="409" y="1020"/>
      <point x="501" y="888"/>
      <point x="653" y="810" type="curve"/>
      <point x="345" y="718"/>
      <point x="158" y="536"/>
      <point x="158" y="330" type="curve" smooth="yes"/>
      <point x="158" y="114"/>
      <point x="321" y="-19"/>
    </contour>
    <contour>
      <point x="608" y="66" type="curve" smooth="yes"/>
      <point x="386" y="66"/>
      <point x="251" y="166"/>
      <point x="251" y="330" type="curve" smooth="yes"/>
      <point x="251" y="510"/>
      <point x="438" y="674"/>
      <point x="743" y="764" type="curve"/>
      <point x="926" y="684"/>
      <point x="1038" y="549"/>
      <point x="1038" y="406" type="curve" smooth="yes"/>
      <point x="1038" y="209"/>
      <point x="858" y="66"/>
    </contour>
    <contour>
      <point x="765" y="846" type="curve"/>
      <point x="603" y="915"/>
      <point x="503" y="1033"/>
      <point x="503" y="1159" type="curve" smooth="yes"/>
      <point x="503" y="1316"/>
      <point x="648" y="1430"/>
      <point x="848" y="1430" type="curve" smooth="yes"/>
      <point x="1018" y="1430"/>
      <point x="1141" y="1334"/>
      <point x="1141" y="1200" type="curve" smooth="yes"/>
      <point x="1141" y="1055"/>
      <point x="999" y="921"/>
    </contour>
  </outline>
</glyph>
<glyph name="question" format="2">
  <advance width="846"/>
  <unicode hex="003F"/>
  <outline>
    <contour>
      <point x="313" y="216" type="curve" smooth="yes"/>
      <point x="341" y="216"/>
      <point x="359" y="225"/>
      <point x="365" y="244" type="curve" smooth="yes"/>
      <point x="481" y="603" type="line"/>
      <point x="850" y="611"/>
      <point x="1116" y="864"/>
      <point x="1116" y="1203" type="curve" smooth="yes"/>
      <point x="1116" y="1396"/>
      <point x="986" y="1515"/>
      <point x="773" y="1515" type="curve" smooth="yes"/>
      <point x="639" y="1515"/>
      <point x="490" y="1456"/>
      <point x="381" y="1360" type="curve" smooth="yes"/>
      <point x="370" y="1350"/>
      <point x="370" y="1336"/>
      <point x="381" y="1319" type="curve" smooth="yes"/>
      <point x="395" y="1298"/>
      <point x="410" y="1290"/>
      <point x="423" y="1300" type="curve" smooth="yes"/>
      <point x="529" y="1384"/>
      <point x="659" y="1435"/>
      <point x="765" y="1435" type="curve" smooth="yes"/>
      <point x="926" y="1435"/>
      <point x="1025" y="1348"/>
      <point x="1025" y="1203" type="curve" smooth="yes"/>
      <point x="1025" y="900"/>
      <point x="785" y="680"/>
      <point x="454" y="680" type="curve" smooth="yes"/>
      <point x="431" y="680"/>
      <point x="416" y="669"/>
      <point x="411" y="653" type="curve" smooth="yes"/>
      <point x="278" y="244" type="line" smooth="yes"/>
      <point x="271" y="225"/>
      <point x="284" y="216"/>
    </contour>
    <contour>
      <point x="258" y="-14" type="curve" smooth="yes"/>
      <point x="308" y="-14"/>
      <point x="329" y="25"/>
      <point x="329" y="61" type="curve" smooth="yes"/>
      <point x="329" y="95"/>
      <point x="308" y="113"/>
      <point x="280" y="113" type="curve" smooth="yes"/>
      <point x="230" y="113"/>
      <point x="209" y="74"/>
      <point x="209" y="38" type="curve" smooth="yes"/>
      <point x="209" y="4"/>
      <point x="230" y="-14"/>
    </contour>
  </outline>
</glyph>
<glyph name="at" format="2">
  <advance width="958"/>
  <unicode hex="0040"/>
  <outline>
    <contour>
      <point x="286" y="184" type="curve" smooth="yes"/>
      <point x="286" y="103"/>
      <point x="329" y="54"/>
      <point x="400" y="54" type="curve" smooth="yes"/>
      <point x="440" y="54"/>
      <point x="498" y="71"/>
      <point x="542" y="128" type="curve"/>
      <point x="543" y="126"/>
      <point x="543" y="125"/>
      <point x="543" y="123" type="curve" smooth="yes"/>
      <point x="546" y="84"/>
      <point x="571" y="54"/>
      <point x="646" y="54" type="curve" smooth="yes"/>
      <point x="820" y="54"/>
      <point x="935" y="200"/>
      <point x="935" y="365" type="curve" smooth="yes"/>
      <point x="935" y="574"/>
      <point x="776" y="698"/>
      <point x="563" y="698" type="curve" smooth="yes"/>
      <point x="241" y="698"/>
      <point x="50" y="443"/>
      <point x="50" y="181" type="curve" smooth="yes"/>
      <point x="50" y="-30"/>
      <point x="191" y="-187"/>
      <point x="416" y="-187" type="curve" smooth="yes"/>
      <point x="490" y="-187"/>
      <point x="559" y="-177"/>
      <point x="639" y="-150" type="curve" smooth="yes"/>
      <point x="655" y="-145"/>
      <point x="661" y="-131"/>
      <point x="655" y="-111" type="curve" smooth="yes"/>
      <point x="649" y="-92"/>
      <point x="635" y="-84"/>
      <point x="620" y="-89" type="curve" smooth="yes"/>
      <point x="549" y="-112"/>
      <point x="488" y="-125"/>
      <point x="424" y="-125" type="curve" smooth="yes"/>
      <point x="228" y="-125"/>
      <point x="116" y="7"/>
      <point x="116" y="185" type="curve" smooth="yes"/>
      <point x="116" y="406"/>
      <point x="266" y="635"/>
      <point x="555" y="635" type="curve" smooth="yes"/>
      <point x="743" y="635"/>
      <point x="869" y="543"/>
      <point x="869" y="364" type="curve" smooth="yes"/>
      <point x="869" y="249"/>
      <point x="791" y="123"/>
      <point x="660" y="123" type="curve" smooth="yes"/>
      <point x="616" y="123"/>
      <point x="611" y="137"/>
      <point x="627" y="187" type="curve" smooth="yes"/>
      <point x="705" y="430" type="line" smooth="yes"/>
      <point x="713" y="454"/>
      <point x="700" y="464"/>
      <point x="674" y="464" type="curve" smooth="yes"/>
      <point x="654" y="464"/>
      <point x="638" y="458"/>
      <point x="629" y="440" type="curve" smooth="yes"/>
      <point x="628" y="438" type="line"/>
      <point x="595" y="458"/>
      <point x="564" y="468"/>
      <point x="533" y="468" type="curve" smooth="yes"/>
      <point x="361" y="468"/>
      <point x="286" y="295"/>
    </contour>
    <contour>
      <point x="368" y="193" type="curve" smooth="yes"/>
      <point x="368" y="259"/>
      <point x="409" y="395"/>
      <point x="540" y="395" type="curve" smooth="yes"/>
      <point x="564" y="395"/>
      <point x="585" y="391"/>
      <point x="609" y="379" type="curve"/>
      <point x="560" y="234" type="line"/>
      <point x="524" y="173"/>
      <point x="478" y="128"/>
      <point x="428" y="128" type="curve" smooth="yes"/>
      <point x="390" y="128"/>
      <point x="368" y="148"/>
    </contour>
  </outline>
</glyph>
<glyph name="G" format="2">
  <advance width="1355"/>
  <unicode hex="0047"/>
  <anchor x="612" y="0" name="bottom"/>
  <anchor x="1039" y="1424" name="top"/>
  <outline>
    <contour>
      <point x="670" y="-19" type="curve" smooth="yes"/>
      <point x="942" y="-19"/>
      <point x="1197" y="184"/>
      <point x="1365" y="738" type="curve" smooth="yes"/>
      <point x="1374" y="768"/>
      <point x="1370" y="778"/>
      <point x="1350" y="778" type="curve" smooth="yes"/>
      <point x="910" y="778" type="line" smooth="yes"/>
      <point x="890" y="778"/>
      <point x="880" y="768"/>
      <point x="870" y="738" type="curve" smooth="yes"/>
      <point x="860" y="708"/>
      <point x="864" y="698"/>
      <point x="884" y="698" type="curve" smooth="yes"/>
      <point x="1262" y="698" type="line"/>
      <point x="1102" y="235"/>
      <point x="908" y="66"/>
      <point x="680" y="66" type="curve" smooth="yes"/>
      <point x="460" y="66"/>
      <point x="343" y="224"/>
      <point x="343" y="468" type="curve" smooth="yes"/>
      <point x="343" y="905"/>
      <point x="644" y="1430"/>
      <point x="1063" y="1430" type="curve" smooth="yes"/>
      <point x="1202" y="1430"/>
      <point x="1282" y="1385"/>
      <point x="1367" y="1293" type="curve" smooth="yes"/>
      <point x="1383" y="1276"/>
      <point x="1395" y="1280"/>
      <point x="1413" y="1294" type="curve" smooth="yes"/>
      <point x="1432" y="1309"/>
      <point x="1438" y="1318"/>
      <point x="1428" y="1333" type="curve" smooth="yes"/>
      <point x="1350" y="1450"/>
      <point x="1223" y="1515"/>
      <point x="1063" y="1515" type="curve" smooth="yes"/>
      <point x="563" y="1515"/>
      <point x="249" y="930"/>
      <point x="249" y="459" type="curve" smooth="yes"/>
      <point x="249" y="170"/>
      <point x="407" y="-19"/>
    </contour>
  </outline>
</glyph>
<glyph name="J" format="2">
  <advance width="1006"/>
  <unicode hex="004A"/>
  <anchor x="423" y="0" name="bottom"/>
  <anchor x="1144" y="1424" name="top"/>
  <outline>
    <contour>
      <point x="399" y="-19" type="curve" smooth="yes"/>
      <point x="615" y="-19"/>
      <point x="780" y="136"/>
      <point x="876" y="429" type="curve" smooth="yes"/>
      <point x="1221" y="1488" type="line" smooth="yes"/>
      <point x="1228" y="1506"/>
      <point x="1215" y="1515"/>
      <point x="1186" y="1515" type="curve" smooth="yes"/>
      <point x="1158" y="1515"/>
      <point x="1140" y="1506"/>
      <point x="1134" y="1488" type="curve" smooth="yes"/>
      <point x="798" y="449" type="line" smooth="yes"/>
      <point x="713" y="190"/>
      <point x="585" y="66"/>
      <point x="404" y="66" type="curve" smooth="yes"/>
      <point x="256" y="66"/>
      <point x="179" y="135"/>
      <point x="179" y="281" type="curve" smooth="yes"/>
      <point x="179" y="305"/>
      <point x="165" y="315"/>
      <point x="138" y="313" type="curve" smooth="yes"/>
      <point x="101" y="309"/>
      <point x="98" y="294"/>
      <point x="98" y="264" type="curve" smooth="yes"/>
      <point x="100" y="86"/>
      <point x="213" y="-19"/>
    </contour>
  </outline>
</glyph>
<glyph name="M" format="2">
  <advance width="1627"/>
  <unicode hex="004D"/>
  <anchor x="751" y="0" name="bottom"/>
  <anchor x="1178" y="1424" name="top"/>
  <outline>
    <contour>
      <point x="180" y="-14" type="curve" smooth="yes"/>
      <point x="210" y="-14"/>
      <point x="224" y="-5"/>
      <point x="230" y="14" type="curve" smooth="yes"/>
      <point x="655" y="1329" type="line"/>
      <point x="831" y="445" type="line" smooth="yes"/>
      <point x="836" y="423"/>
      <point x="851" y="420"/>
      <point x="878" y="420" type="curve" smooth="yes"/>
      <point x="903" y="420"/>
      <point x="911" y="425"/>
      <point x="925" y="441" type="curve" smooth="yes"/>
      <point x="1663" y="1313" type="line"/>
      <point x="1248" y="16" type="line" smooth="yes"/>
      <point x="1241" y="-5"/>
      <point x="1255" y="-14"/>
      <point x="1285" y="-14" type="curve" smooth="yes"/>
      <point x="1315" y="-14"/>
      <point x="1328" y="-5"/>
      <point x="1334" y="14" type="curve" smooth="yes"/>
      <point x="1805" y="1485" type="line" smooth="yes"/>
      <point x="1811" y="1506"/>
      <point x="1796" y="1515"/>
      <point x="1766" y="1515" type="curve" smooth="yes"/>
      <point x="1735" y="1515"/>
      <point x="1724" y="1506"/>
      <point x="1708" y="1488" type="curve" smooth="yes"/>
      <point x="899" y="530" type="line"/>
      <point x="709" y="1488" type="line" smooth="yes"/>
      <point x="705" y="1504"/>
      <point x="695" y="1515"/>
      <point x="669" y="1515" type="curve" smooth="yes"/>
      <point x="639" y="1515"/>
      <point x="624" y="1506"/>
      <point x="618" y="1488" type="curve" smooth="yes"/>
      <point x="144" y="16" type="line" smooth="yes"/>
      <point x="138" y="-5"/>
      <point x="150" y="-14"/>
    </contour>
  </outline>
</glyph>
<glyph name="N" format="2">
  <advance width="1377"/>
  <unicode hex="004E"/>
  <anchor x="605" y="0" name="bottom"/>
  <anchor x="1070" y="1424" name="top"/>
  <outline>
    <contour>
      <point x="175" y="-14" type="curve" smooth="yes"/>
      <point x="204" y="-14"/>
      <point x="221" y="-5"/>
      <point x="228" y="14" type="curve" smooth="yes"/>
      <point x="661" y="1349" type="line"/>
      <point x="996" y="14" type="line" smooth="yes"/>
      <point x="1003" y="-10"/>
      <point x="1011" y="-14"/>
      <point x="1033" y="-14" type="curve" smooth="yes"/>
      <point x="1060" y="-14"/>
      <point x="1078" y="-5"/>
      <point x="1084" y="14" type="curve" smooth="yes"/>
      <point x="1561" y="1488" type="line" smooth="yes"/>
      <point x="1568" y="1506"/>
      <point x="1555" y="1515"/>
      <point x="1526" y="1515" type="curve" smooth="yes"/>
      <point x="1498" y="1515"/>
      <point x="1480" y="1506"/>
      <point x="1474" y="1488" type="curve" smooth="yes"/>
      <point x="1044" y="163" type="line"/>
      <point x="711" y="1488" type="line" smooth="yes"/>
      <point x="706" y="1505"/>
      <point x="694" y="1515"/>
      <point x="670" y="1515" type="curve" smooth="yes"/>
      <point x="641" y="1515"/>
      <point x="624" y="1506"/>
      <point x="618" y="1488" type="curve" smooth="yes"/>
      <point x="140" y="14" type="line" smooth="yes"/>
      <point x="134" y="-5"/>
      <point x="146" y="-14"/>
    </contour>
  </outline>
</glyph>
<glyph name="O" format="2">
  <advance width="1434"/>
  <unicode hex="004F"/>
  <anchor x="635" y="0" name="bottom"/>
  <anchor x="878" y="744" name="center"/>
  <anchor x="1215" y="21" name="ogonek"/>
  <anchor x="1063" y="1424" name="top"/>
  <anchor x="1336" y="1424" name="topright"/>
  <outline>
    <contour>
      <point x="700" y="-19" type="curve" smooth="yes"/>
      <point x="1145" y="-19"/>
      <point x="1499" y="478"/>
      <point x="1499" y="1015" type="curve" smooth="yes"/>
      <point x="1499" y="1329"/>
      <point x="1338" y="1515"/>
      <point x="1063" y="1515" type="curve" smooth="yes"/>
      <point x="623" y="1515"/>
      <point x="260" y="1023"/>
      <point x="260" y="493" type="curve" smooth="yes"/>
      <point x="260" y="171"/>
      <point x="425" y="-19"/>
    </contour>
    <contour>
      <point x="714" y="66" type="curve" smooth="yes"/>
      <point x="490" y="66"/>
      <point x="354" y="225"/>
      <point x="354" y="493" type="curve" smooth="yes"/>
      <point x="354" y="975"/>
      <point x="669" y="1431"/>
      <point x="1048" y="1431" type="curve" smooth="yes"/>
      <point x="1271" y="1431"/>
      <point x="1405" y="1276"/>
      <point x="1405" y="1015" type="curve" smooth="yes"/>
      <point x="1405" y="528"/>
      <point x="1093" y="66"/>
    </contour>
  </outline>
</glyph>
<glyph name="P" format="2">
  <advance width="1085"/>
  <unicode hex="0050"/>
  <outline>
    <contour>
      <point x="180" y="-14" type="curve" smooth="yes"/>
      <point x="210" y="-14"/>
      <point x="223" y="-5"/>
      <point x="229" y="14" type="curve" smooth="yes"/>
      <point x="424" y="615" type="line"/>
      <point x="523" y="619"/>
      <point x="610" y="624"/>
      <point x="701" y="636" type="curve" smooth="yes"/>
      <point x="1091" y="690"/>
      <point x="1306" y="885"/>
      <point x="1306" y="1193" type="curve" smooth="yes"/>
      <point x="1306" y="1403"/>
      <point x="1173" y="1488"/>
      <point x="918" y="1488" type="curve" smooth="yes"/>
      <point x="660" y="1488" type="line" smooth="yes"/>
      <point x="630" y="1488"/>
      <point x="615" y="1479"/>
      <point x="609" y="1460" type="curve" smooth="yes"/>
      <point x="141" y="16" type="line" smooth="yes"/>
      <point x="135" y="-5"/>
      <point x="150" y="-14"/>
    </contour>
    <contour>
      <point x="449" y="695" type="curve"/>
      <point x="680" y="1408" type="line"/>
      <point x="908" y="1408" type="line" smooth="yes"/>
      <point x="1114" y="1408"/>
      <point x="1213" y="1345"/>
      <point x="1213" y="1184" type="curve" smooth="yes"/>
      <point x="1213" y="929"/>
      <point x="1039" y="766"/>
      <point x="713" y="716" type="curve" smooth="yes"/>
      <point x="631" y="704"/>
      <point x="533" y="696"/>
    </contour>
  </outline>
</glyph>
<glyph name="Q" format="2">
  <advance width="1434"/>
  <unicode hex="0051"/>
  <anchor x="635" y="0" name="bottom"/>
  <anchor x="878" y="744" name="center"/>
  <anchor x="1215" y="21" name="ogonek"/>
  <anchor x="1063" y="1424" name="top"/>
  <anchor x="1336" y="1424" name="topright"/>
  <outline>
    <contour>
      <point x="944" y="-299" type="curve" smooth="yes"/>
      <point x="979" y="-291"/>
      <point x="981" y="-275"/>
      <point x="974" y="-247" type="curve" smooth="yes"/>
      <point x="829" y="280" type="line" smooth="yes"/>
      <point x="821" y="308"/>
      <point x="809" y="316"/>
      <point x="783" y="310" type="curve" smooth="yes"/>
      <point x="749" y="303"/>
      <point x="743" y="289"/>
      <point x="751" y="258" type="curve" smooth="yes"/>
      <point x="896" y="-269" type="line" smooth="yes"/>
      <point x="905" y="-299"/>
      <point x="916" y="-304"/>
    </contour>
    <component base="O"/>
  </outline>
</glyph>
<glyph name="S" format="2">
  <advance width="1066"/>
  <unicode hex="0053"/>
  <anchor x="489" y="0" name="bottom"/>
  <anchor x="835" y="1424" name="top"/>
  <outline>
    <contour>
      <point x="509" y="-32" type="curve" smooth="yes"/>
      <point x="804" y="-32"/>
      <point x="1008" y="153"/>
      <point x="1008" y="436" type="curve" smooth="yes"/>
      <point x="1008" y="624"/>
      <point x="888" y="715"/>
      <point x="725" y="805" type="curve" smooth="yes"/>
      <point x="584" y="883"/>
      <point x="484" y="951"/>
      <point x="484" y="1108" type="curve" smooth="yes"/>
      <point x="484" y="1300"/>
      <point x="629" y="1430"/>
      <point x="829" y="1430" type="curve" smooth="yes"/>
      <point x="955" y="1430"/>
      <point x="1066" y="1373"/>
      <point x="1159" y="1290" type="curve" smooth="yes"/>
      <point x="1171" y="1279"/>
      <point x="1189" y="1281"/>
      <point x="1204" y="1296" type="curve" smooth="yes"/>
      <point x="1221" y="1313"/>
      <point x="1225" y="1328"/>
      <point x="1211" y="1341" type="curve" smooth="yes"/>
      <point x="1118" y="1435"/>
      <point x="974" y="1515"/>
      <point x="829" y="1515" type="curve" smooth="yes"/>
      <point x="573" y="1515"/>
      <point x="391" y="1348"/>
      <point x="391" y="1106" type="curve" smooth="yes"/>
      <point x="391" y="905"/>
      <point x="519" y="814"/>
      <point x="676" y="726" type="curve" smooth="yes"/>
      <point x="813" y="651"/>
      <point x="915" y="588"/>
      <point x="915" y="429" type="curve" smooth="yes"/>
      <point x="915" y="200"/>
      <point x="750" y="53"/>
      <point x="513" y="53" type="curve" smooth="yes"/>
      <point x="353" y="53"/>
      <point x="245" y="124"/>
      <point x="166" y="203" type="curve" smooth="yes"/>
      <point x="153" y="216"/>
      <point x="139" y="211"/>
      <point x="121" y="196" type="curve" smooth="yes"/>
      <point x="108" y="184"/>
      <point x="96" y="169"/>
      <point x="109" y="154" type="curve" smooth="yes"/>
      <point x="179" y="70"/>
      <point x="303" y="-32"/>
    </contour>
  </outline>
</glyph>
<glyph name="T" format="2">
  <advance width="1070"/>
  <unicode hex="0054"/>
  <anchor x="451" y="0" name="bottom"/>
  <anchor x="705" y="744" name="center"/>
  <anchor x="911" y="1424" name="top"/>
  <outline>
    <contour>
      <point x="455" y="-15" type="curve" smooth="yes"/>
      <point x="484" y="-15"/>
      <point x="501" y="-6"/>
      <point x="508" y="13" type="curve" smooth="yes"/>
      <point x="963" y="1408" type="line"/>
      <point x="1385" y="1408" type="line" smooth="yes"/>
      <point x="1405" y="1408"/>
      <point x="1415" y="1418"/>
      <point x="1425" y="1448" type="curve" smooth="yes"/>
      <point x="1435" y="1478"/>
      <point x="1431" y="1488"/>
      <point x="1411" y="1488" type="curve" smooth="yes"/>
      <point x="464" y="1488" type="line" smooth="yes"/>
      <point x="444" y="1488"/>
      <point x="433" y="1478"/>
      <point x="423" y="1448" type="curve" smooth="yes"/>
      <point x="413" y="1418"/>
      <point x="418" y="1408"/>
      <point x="438" y="1408" type="curve" smooth="yes"/>
      <point x="875" y="1408" type="line"/>
      <point x="420" y="13" type="line" smooth="yes"/>
      <point x="414" y="-6"/>
      <point x="426" y="-15"/>
    </contour>
  </outline>
</glyph>
<glyph name="U" format="2">
  <advance width="1336"/>
  <unicode hex="0055"/>
  <anchor x="585" y="0" name="bottom"/>
  <anchor x="841" y="21" name="ogonek"/>
  <anchor x="1015" y="1424" name="top"/>
  <anchor x="1500" y="1509" name="topright"/>
  <outline>
    <contour>
      <point x="603" y="-19" type="curve" smooth="yes"/>
      <point x="905" y="-19"/>
      <point x="1104" y="141"/>
      <point x="1211" y="475" type="curve" smooth="yes"/>
      <point x="1535" y="1485" type="line" smooth="yes"/>
      <point x="1541" y="1505"/>
      <point x="1526" y="1515"/>
      <point x="1496" y="1515" type="curve" smooth="yes"/>
      <point x="1465" y="1515"/>
      <point x="1451" y="1506"/>
      <point x="1445" y="1488" type="curve" smooth="yes"/>
      <point x="1125" y="486" type="line" smooth="yes"/>
      <point x="1034" y="201"/>
      <point x="869" y="66"/>
      <point x="616" y="66" type="curve" smooth="yes"/>
      <point x="354" y="66"/>
      <point x="285" y="223"/>
      <point x="370" y="486" type="curve" smooth="yes"/>
      <point x="691" y="1485" type="line" smooth="yes"/>
      <point x="698" y="1505"/>
      <point x="681" y="1515"/>
      <point x="651" y="1515" type="curve" smooth="yes"/>
      <point x="620" y="1515"/>
      <point x="606" y="1506"/>
      <point x="600" y="1488" type="curve" smooth="yes"/>
      <point x="284" y="498" type="line" smooth="yes"/>
      <point x="180" y="173"/>
      <point x="305" y="-19"/>
    </contour>
  </outline>
</glyph>
<glyph name="d" format="2">
  <advance width="629"/>
  <unicode hex="0064"/>
  <anchor x="196" y="0" name="bottom"/>
  <anchor x="668" y="948" name="center"/>
  <anchor x="321" y="500" name="top"/>
  <anchor x="905" y="1553" name="topright"/>
  <outline>
    <contour>
      <point x="190" y="-17" type="curve" smooth="yes"/>
      <point x="236" y="-17"/>
      <point x="308" y="1"/>
      <point x="373" y="84" type="curve"/>
      <point x="373" y="83"/>
      <point x="373" y="83"/>
      <point x="373" y="81" type="curve" smooth="yes"/>
      <point x="371" y="19"/>
      <point x="408" y="-17"/>
      <point x="475" y="-17" type="curve" smooth="yes"/>
      <point x="539" y="-17"/>
      <point x="584" y="29"/>
      <point x="605" y="66" type="curve" smooth="yes"/>
      <point x="613" y="80"/>
      <point x="616" y="95"/>
      <point x="594" y="109" type="curve" smooth="yes"/>
      <point x="571" y="123"/>
      <point x="558" y="115"/>
      <point x="550" y="104" type="curve" smooth="yes"/>
      <point x="538" y="85"/>
      <point x="515" y="58"/>
      <point x="485" y="58" type="curve" smooth="yes"/>
      <point x="458" y="58"/>
      <point x="451" y="81"/>
      <point x="465" y="124" type="curve" smooth="yes"/>
      <point x="905" y="1476" type="line" smooth="yes"/>
      <point x="914" y="1503"/>
      <point x="905" y="1515"/>
      <point x="864" y="1515" type="curve" smooth="yes"/>
      <point x="838" y="1515"/>
      <point x="828" y="1510"/>
      <point x="819" y="1483" type="curve" smooth="yes"/>
      <point x="491" y="479" type="line"/>
      <point x="454" y="503"/>
      <point x="411" y="519"/>
      <point x="364" y="519" type="curve" smooth="yes"/>
      <point x="141" y="519"/>
      <point x="44" y="298"/>
      <point x="44" y="151" type="curve" smooth="yes"/>
      <point x="44" y="46"/>
      <point x="98" y="-17"/>
    </contour>
    <contour>
      <point x="134" y="160" type="curve" smooth="yes"/>
      <point x="134" y="259"/>
      <point x="194" y="440"/>
      <point x="370" y="440" type="curve" smooth="yes"/>
      <point x="404" y="440"/>
      <point x="434" y="433"/>
      <point x="470" y="414" type="curve"/>
      <point x="408" y="219" type="line"/>
      <point x="353" y="123"/>
      <point x="286" y="63"/>
      <point x="219" y="63" type="curve" smooth="yes"/>
      <point x="163" y="63"/>
      <point x="134" y="96"/>
    </contour>
  </outline>
</glyph>
<glyph name="f" format="2">
  <advance width="366"/>
  <unicode hex="0066"/>
  <outline>
    <contour>
      <point x="-310" y="-1019" type="curve" smooth="yes"/>
      <point x="-229" y="-1019"/>
      <point x="-186" y="-980"/>
      <point x="-151" y="-872" type="curve" smooth="yes"/>
      <point x="270" y="420" type="line"/>
      <point x="400" y="420" type="line" smooth="yes"/>
      <point x="415" y="420"/>
      <point x="426" y="433"/>
      <point x="435" y="460" type="curve" smooth="yes"/>
      <point x="443" y="486"/>
      <point x="439" y="500"/>
      <point x="423" y="500" type="curve" smooth="yes"/>
      <point x="296" y="500" type="line"/>
      <point x="571" y="1345" type="line" smooth="yes"/>
      <point x="593" y="1410"/>
      <point x="621" y="1439"/>
      <point x="678" y="1439" type="curve" smooth="yes"/>
      <point x="701" y="1439"/>
      <point x="735" y="1426"/>
      <point x="760" y="1406" type="curve" smooth="yes"/>
      <point x="775" y="1395"/>
      <point x="790" y="1396"/>
      <point x="808" y="1414" type="curve" smooth="yes"/>
      <point x="821" y="1428"/>
      <point x="829" y="1444"/>
      <point x="810" y="1464" type="curve" smooth="yes"/>
      <point x="790" y="1486"/>
      <point x="741" y="1519"/>
      <point x="681" y="1519" type="curve" smooth="yes"/>
      <point x="584" y="1519"/>
      <point x="525" y="1469"/>
      <point x="486" y="1351" type="curve" smooth="yes"/>
      <point x="209" y="500" type="line"/>
      <point x="123" y="500" type="line" smooth="yes"/>
      <point x="108" y="500"/>
      <point x="94" y="488"/>
      <point x="85" y="460" type="curve" smooth="yes"/>
      <point x="76" y="433"/>
      <point x="84" y="420"/>
      <point x="99" y="420" type="curve" smooth="yes"/>
      <point x="183" y="420" type="line"/>
      <point x="-232" y="-854" type="line" smooth="yes"/>
      <point x="-255" y="-924"/>
      <point x="-269" y="-944"/>
      <point x="-302" y="-944" type="curve" smooth="yes"/>
      <point x="-334" y="-944"/>
      <point x="-357" y="-921"/>
      <point x="-374" y="-905" type="curve" smooth="yes"/>
      <point x="-390" y="-889"/>
      <point x="-404" y="-891"/>
      <point x="-424" y="-909" type="curve" smooth="yes"/>
      <point x="-444" y="-925"/>
      <point x="-445" y="-944"/>
      <point x="-429" y="-962" type="curve" smooth="yes"/>
      <point x="-399" y="-997"/>
      <point x="-357" y="-1019"/>
    </contour>
  </outline>
</glyph>
<glyph name="l" format="2">
  <advance width="307"/>
  <unicode hex="006C"/>
  <anchor x="330" y="746" name="CAT"/>
  <anchor x="127" y="0" name="bottom"/>
  <anchor x="325" y="813" name="center"/>
  <anchor x="532" y="1424" name="top"/>
  <anchor x="576" y="1500" name="topright"/>
  <outline>
    <contour>
      <point x="153" y="-17" type="curve" smooth="yes"/>
      <point x="217" y="-17"/>
      <point x="262" y="29"/>
      <point x="283" y="66" type="curve" smooth="yes"/>
      <point x="291" y="80"/>
      <point x="295" y="95"/>
      <point x="272" y="109" type="curve" smooth="yes"/>
      <point x="250" y="123"/>
      <point x="236" y="115"/>
      <point x="228" y="104" type="curve" smooth="yes"/>
      <point x="216" y="85"/>
      <point x="193" y="58"/>
      <point x="163" y="58" type="curve" smooth="yes"/>
      <point x="136" y="58"/>
      <point x="131" y="84"/>
      <point x="143" y="124" type="curve" smooth="yes"/>
      <point x="583" y="1476" type="line" smooth="yes"/>
      <point x="592" y="1501"/>
      <point x="583" y="1515"/>
      <point x="542" y="1515" type="curve" smooth="yes"/>
      <point x="516" y="1515"/>
      <point x="506" y="1509"/>
      <point x="497" y="1483" type="curve" smooth="yes"/>
      <point x="63" y="150" type="line" smooth="yes"/>
      <point x="31" y="49"/>
      <point x="65" y="-17"/>
    </contour>
  </outline>
</glyph>
<glyph name="m" format="2">
  <advance width="964"/>
  <unicode hex="006D"/>
  <anchor x="388" y="0" name="bottom"/>
  <anchor x="539" y="500" name="top"/>
  <outline>
    <contour>
      <point x="814" y="-17" type="curve" smooth="yes"/>
      <point x="878" y="-17"/>
      <point x="921" y="29"/>
      <point x="943" y="66" type="curve" smooth="yes"/>
      <point x="950" y="80"/>
      <point x="954" y="95"/>
      <point x="931" y="109" type="curve" smooth="yes"/>
      <point x="909" y="123"/>
      <point x="895" y="115"/>
      <point x="888" y="104" type="curve" smooth="yes"/>
      <point x="875" y="85"/>
      <point x="853" y="58"/>
      <point x="823" y="58" type="curve" smooth="yes"/>
      <point x="786" y="58"/>
      <point x="795" y="96"/>
      <point x="803" y="119" type="curve" smooth="yes"/>
      <point x="863" y="308" type="line" smooth="yes"/>
      <point x="898" y="416"/>
      <point x="879" y="519"/>
      <point x="768" y="519" type="curve" smooth="yes"/>
      <point x="656" y="519"/>
      <point x="533" y="431"/>
      <point x="485" y="278" type="curve"/>
      <point x="519" y="278" type="line"/>
      <point x="571" y="376"/>
      <point x="656" y="440"/>
      <point x="733" y="440" type="curve" smooth="yes"/>
      <point x="799" y="440"/>
      <point x="803" y="393"/>
      <point x="786" y="344" type="curve" smooth="yes"/>
      <point x="729" y="166" type="line" smooth="yes"/>
      <point x="699" y="75"/>
      <point x="696" y="-17"/>
    </contour>
    <contour>
      <point x="56" y="-15" type="curve" smooth="yes"/>
      <point x="86" y="-15"/>
      <point x="98" y="-7"/>
      <point x="104" y="11" type="curve" smooth="yes"/>
      <point x="195" y="290" type="line"/>
      <point x="247" y="381"/>
      <point x="328" y="440"/>
      <point x="401" y="440" type="curve" smooth="yes"/>
      <point x="468" y="440"/>
      <point x="471" y="393"/>
      <point x="455" y="344" type="curve" smooth="yes"/>
      <point x="350" y="18" type="line" smooth="yes"/>
      <point x="343" y="-7"/>
      <point x="366" y="-15"/>
      <point x="388" y="-15" type="curve" smooth="yes"/>
      <point x="418" y="-15"/>
      <point x="429" y="-7"/>
      <point x="435" y="11" type="curve" smooth="yes"/>
      <point x="531" y="308" type="line" smooth="yes"/>
      <point x="566" y="416"/>
      <point x="548" y="519"/>
      <point x="436" y="519" type="curve" smooth="yes"/>
      <point x="366" y="519"/>
      <point x="296" y="486"/>
      <point x="239" y="426" type="curve"/>
      <point x="255" y="476" type="line" smooth="yes"/>
      <point x="264" y="503"/>
      <point x="255" y="515"/>
      <point x="214" y="515" type="curve" smooth="yes"/>
      <point x="188" y="515"/>
      <point x="178" y="510"/>
      <point x="169" y="483" type="curve" smooth="yes"/>
      <point x="19" y="18" type="line" smooth="yes"/>
      <point x="10" y="-7"/>
      <point x="35" y="-15"/>
    </contour>
  </outline>
</glyph>
<glyph name="q" format="2">
  <advance width="598"/>
  <unicode hex="0071"/>
  <guideline x="409" y="261" angle="72"/>
  <outline>
    <contour>
      <point x="190" y="-17" type="curve" smooth="yes"/>
      <point x="233" y="-17"/>
      <point x="296" y="-2"/>
      <point x="356" y="65" type="curve"/>
      <point x="16" y="-982" type="line" smooth="yes"/>
      <point x="9" y="-1006"/>
      <point x="33" y="-1015"/>
      <point x="54" y="-1015" type="curve" smooth="yes"/>
      <point x="84" y="-1015"/>
      <point x="95" y="-1007"/>
      <point x="101" y="-989" type="curve" smooth="yes"/>
      <point x="579" y="476" type="line" smooth="yes"/>
      <point x="588" y="503"/>
      <point x="579" y="515"/>
      <point x="538" y="515" type="curve" smooth="yes"/>
      <point x="511" y="515"/>
      <point x="501" y="509"/>
      <point x="493" y="483" type="curve" smooth="yes"/>
      <point x="491" y="479" type="line"/>
      <point x="454" y="503"/>
      <point x="411" y="519"/>
      <point x="364" y="519" type="curve" smooth="yes"/>
      <point x="141" y="519"/>
      <point x="44" y="298"/>
      <point x="44" y="151" type="curve" smooth="yes"/>
      <point x="44" y="46"/>
      <point x="98" y="-17"/>
    </contour>
    <contour>
      <point x="134" y="160" type="curve" smooth="yes"/>
      <point x="134" y="259"/>
      <point x="194" y="440"/>
      <point x="370" y="440" type="curve" smooth="yes"/>
      <point x="404" y="440"/>
      <point x="434" y="433"/>
      <point x="470" y="414" type="curve"/>
      <point x="406" y="218" type="line"/>
      <point x="353" y="121"/>
      <point x="285" y="63"/>
      <point x="219" y="63" type="curve" smooth="yes"/>
      <point x="163" y="63"/>
      <point x="134" y="96"/>
    </contour>
  </outline>
</glyph>
<glyph name="z" format="2">
  <advance width="495"/>
  <unicode hex="007A"/>
  <anchor x="175" y="0" name="bottom"/>
  <anchor x="256" y="250" name="center"/>
  <anchor x="325" y="500" name="top"/>
  <outline>
    <contour>
      <point x="11" y="0" type="curve" smooth="yes"/>
      <point x="356" y="0" type="line" smooth="yes"/>
      <point x="371" y="0"/>
      <point x="385" y="14"/>
      <point x="393" y="40" type="curve" smooth="yes"/>
      <point x="400" y="68"/>
      <point x="394" y="80"/>
      <point x="379" y="80" type="curve" smooth="yes"/>
      <point x="138" y="80" type="line"/>
      <point x="491" y="445" type="line" smooth="yes"/>
      <point x="509" y="463"/>
      <point x="504" y="500"/>
      <point x="470" y="500" type="curve" smooth="yes"/>
      <point x="156" y="500" type="line" smooth="yes"/>
      <point x="141" y="500"/>
      <point x="128" y="486"/>
      <point x="120" y="460" type="curve" smooth="yes"/>
      <point x="113" y="433"/>
      <point x="119" y="420"/>
      <point x="134" y="420" type="curve" smooth="yes"/>
      <point x="353" y="420" type="line"/>
      <point x="-2" y="55" type="line" smooth="yes"/>
      <point x="-25" y="33"/>
      <point x="-17" y="0"/>
    </contour>
  </outline>
</glyph>
<glyph name="bar" format="2">
  <advance width="575"/>
  <unicode hex="007C"/>
  <outline>
    <contour>
      <point x="169" y="-77" type="curve" smooth="yes"/>
      <point x="198" y="-77"/>
      <point x="214" y="-69"/>
      <point x="220" y="-50" type="curve" smooth="yes"/>
      <point x="766" y="1550" type="line" smooth="yes"/>
      <point x="773" y="1569"/>
      <point x="761" y="1578"/>
      <point x="733" y="1578" type="curve" smooth="yes"/>
      <point x="704" y="1578"/>
      <point x="686" y="1569"/>
      <point x="680" y="1550" type="curve" smooth="yes"/>
      <point x="134" y="-50" type="line" smooth="yes"/>
      <point x="128" y="-69"/>
      <point x="140" y="-77"/>
    </contour>
  </outline>
</glyph>
<glyph name="braceright" format="2">
  <advance width="554"/>
  <unicode hex="007D"/>
  <outline>
    <contour>
      <point x="48" y="-75" type="curve" smooth="yes"/>
      <point x="249" y="-75"/>
      <point x="373" y="-2"/>
      <point x="373" y="176" type="curve" smooth="yes"/>
      <point x="373" y="283"/>
      <point x="345" y="366"/>
      <point x="345" y="443" type="curve" smooth="yes"/>
      <point x="345" y="595"/>
      <point x="413" y="693"/>
      <point x="559" y="710" type="curve" smooth="yes"/>
      <point x="580" y="713"/>
      <point x="588" y="720"/>
      <point x="598" y="750" type="curve" smooth="yes"/>
      <point x="606" y="775"/>
      <point x="605" y="785"/>
      <point x="583" y="790" type="curve" smooth="yes"/>
      <point x="536" y="800"/>
      <point x="489" y="831"/>
      <point x="489" y="904" type="curve" smooth="yes"/>
      <point x="489" y="1070"/>
      <point x="769" y="1229"/>
      <point x="769" y="1420" type="curve" smooth="yes"/>
      <point x="769" y="1516"/>
      <point x="699" y="1575"/>
      <point x="583" y="1575" type="curve" smooth="yes"/>
      <point x="563" y="1575"/>
      <point x="553" y="1565"/>
      <point x="543" y="1535" type="curve" smooth="yes"/>
      <point x="534" y="1510"/>
      <point x="535" y="1495"/>
      <point x="558" y="1495" type="curve" smooth="yes"/>
      <point x="631" y="1495"/>
      <point x="676" y="1466"/>
      <point x="676" y="1420" type="curve" smooth="yes"/>
      <point x="676" y="1261"/>
      <point x="400" y="1104"/>
      <point x="400" y="904" type="curve" smooth="yes"/>
      <point x="400" y="839"/>
      <point x="444" y="776"/>
      <point x="504" y="754" type="curve"/>
      <point x="339" y="719"/>
      <point x="255" y="614"/>
      <point x="255" y="443" type="curve" smooth="yes"/>
      <point x="255" y="350"/>
      <point x="281" y="241"/>
      <point x="281" y="176" type="curve" smooth="yes"/>
      <point x="281" y="49"/>
      <point x="203" y="5"/>
      <point x="73" y="5" type="curve" smooth="yes"/>
      <point x="53" y="5"/>
      <point x="41" y="-5"/>
      <point x="33" y="-35" type="curve" smooth="yes"/>
      <point x="26" y="-56"/>
      <point x="23" y="-75"/>
    </contour>
  </outline>
</glyph>
<glyph name="degree" format="2">
  <advance width="631"/>
  <unicode hex="00B0"/>
  <outline>
    <contour>
      <point x="653" y="1056" type="curve" smooth="yes"/>
      <point x="781" y="1056"/>
      <point x="874" y="1154"/>
      <point x="874" y="1288" type="curve" smooth="yes"/>
      <point x="874" y="1420"/>
      <point x="781" y="1515"/>
      <point x="653" y="1515" type="curve" smooth="yes"/>
      <point x="525" y="1515"/>
      <point x="433" y="1420"/>
      <point x="433" y="1288" type="curve" smooth="yes"/>
      <point x="433" y="1154"/>
      <point x="525" y="1056"/>
    </contour>
    <contour>
      <point x="653" y="1129" type="curve" smooth="yes"/>
      <point x="570" y="1129"/>
      <point x="513" y="1186"/>
      <point x="513" y="1288" type="curve" smooth="yes"/>
      <point x="513" y="1386"/>
      <point x="570" y="1443"/>
      <point x="653" y="1443" type="curve" smooth="yes"/>
      <point x="735" y="1443"/>
      <point x="794" y="1386"/>
      <point x="794" y="1288" type="curve" smooth="yes"/>
      <point x="794" y="1186"/>
      <point x="735" y="1129"/>
    </contour>
  </outline>
</glyph>
<glyph name="plusminus" format="2">
  <advance width="763"/>
  <unicode hex="00B1"/>
  <outline>
    <contour>
      <point x="374" y="218" type="curve" smooth="yes"/>
      <point x="400" y="218"/>
      <point x="410" y="223"/>
      <point x="419" y="250" type="curve" smooth="yes"/>
      <point x="564" y="691" type="line" smooth="yes"/>
      <point x="573" y="718"/>
      <point x="564" y="730"/>
      <point x="523" y="730" type="curve" smooth="yes"/>
      <point x="496" y="730"/>
      <point x="486" y="725"/>
      <point x="478" y="698" type="curve" smooth="yes"/>
      <point x="333" y="256" type="line" smooth="yes"/>
      <point x="324" y="230"/>
      <point x="333" y="218"/>
    </contour>
    <component base="minus" xOffset="-102" yOffset="-315"/>
    <component base="minus" xOffset="13" yOffset="38"/>
  </outline>
</glyph>
<glyph name="Thorn" format="2">
  <advance width="1113"/>
  <unicode hex="00DE"/>
  <outline>
    <contour>
      <point x="180" y="-14" type="curve" smooth="yes"/>
      <point x="210" y="-14"/>
      <point x="223" y="-4"/>
      <point x="229" y="14" type="curve" smooth="yes"/>
      <point x="344" y="365" type="line"/>
      <point x="443" y="369"/>
      <point x="530" y="374"/>
      <point x="621" y="386" type="curve" smooth="yes"/>
      <point x="1011" y="440"/>
      <point x="1226" y="635"/>
      <point x="1226" y="943" type="curve" smooth="yes"/>
      <point x="1226" y="1153"/>
      <point x="1093" y="1238"/>
      <point x="838" y="1238" type="curve" smooth="yes"/>
      <point x="626" y="1238" type="line"/>
      <point x="706" y="1485" type="line" smooth="yes"/>
      <point x="714" y="1506"/>
      <point x="698" y="1515"/>
      <point x="669" y="1515" type="curve" smooth="yes"/>
      <point x="640" y="1515"/>
      <point x="625" y="1506"/>
      <point x="619" y="1488" type="curve" smooth="yes"/>
      <point x="141" y="16" type="line" smooth="yes"/>
      <point x="134" y="-5"/>
      <point x="150" y="-14"/>
    </contour>
    <contour>
      <point x="369" y="445" type="curve"/>
      <point x="600" y="1158" type="line"/>
      <point x="828" y="1158" type="line" smooth="yes"/>
      <point x="1034" y="1158"/>
      <point x="1133" y="1095"/>
      <point x="1133" y="934" type="curve" smooth="yes"/>
      <point x="1133" y="679"/>
      <point x="959" y="516"/>
      <point x="633" y="466" type="curve" smooth="yes"/>
      <point x="551" y="454"/>
      <point x="453" y="446"/>
    </contour>
  </outline>
</glyph>
<glyph name="eth" format="2">
  <advance width="603"/>
  <unicode hex="00F0"/>
  <guideline x="269" y="656" angle="72"/>
  <outline>
    <contour>
      <point x="254" y="-19" type="curve" smooth="yes"/>
      <point x="379" y="-19"/>
      <point x="489" y="89"/>
      <point x="545" y="265" type="curve" smooth="yes"/>
      <point x="668" y="643"/>
      <point x="703" y="1160"/>
      <point x="629" y="1496" type="curve" smooth="yes"/>
      <point x="625" y="1516"/>
      <point x="610" y="1524"/>
      <point x="586" y="1519" type="curve" smooth="yes"/>
      <point x="563" y="1514"/>
      <point x="553" y="1501"/>
      <point x="556" y="1480" type="curve" smooth="yes"/>
      <point x="610" y="1189"/>
      <point x="586" y="776"/>
      <point x="502" y="434" type="curve"/>
      <point x="469" y="486"/>
      <point x="419" y="519"/>
      <point x="345" y="519" type="curve" smooth="yes"/>
      <point x="164" y="519"/>
      <point x="63" y="318"/>
      <point x="63" y="176" type="curve" smooth="yes"/>
      <point x="63" y="63"/>
      <point x="129" y="-19"/>
    </contour>
    <contour>
      <point x="264" y="61" type="curve" smooth="yes"/>
      <point x="195" y="61"/>
      <point x="153" y="105"/>
      <point x="153" y="183" type="curve" smooth="yes"/>
      <point x="153" y="281"/>
      <point x="223" y="439"/>
      <point x="343" y="439" type="curve" smooth="yes"/>
      <point x="404" y="439"/>
      <point x="450" y="410"/>
      <point x="484" y="366" type="curve"/>
      <point x="476" y="337"/>
      <point x="467" y="307"/>
      <point x="458" y="279" type="curve" smooth="yes"/>
      <point x="414" y="144"/>
      <point x="340" y="61"/>
    </contour>
    <contour>
      <point x="478" y="1125" type="curve" smooth="yes"/>
      <point x="781" y="1251" type="line" smooth="yes"/>
      <point x="796" y="1258"/>
      <point x="801" y="1266"/>
      <point x="795" y="1288" type="curve" smooth="yes"/>
      <point x="789" y="1309"/>
      <point x="776" y="1318"/>
      <point x="760" y="1311" type="curve" smooth="yes"/>
      <point x="459" y="1186" type="line" smooth="yes"/>
      <point x="445" y="1180"/>
      <point x="439" y="1171"/>
      <point x="443" y="1154" type="curve" smooth="yes"/>
      <point x="449" y="1129"/>
      <point x="464" y="1119"/>
    </contour>
  </outline>
</glyph>
<glyph name="thorn" format="2">
  <advance width="599"/>
  <unicode hex="00FE"/>
  <outline>
    <contour>
      <point x="-261" y="-1015" type="curve" smooth="yes"/>
      <point x="-231" y="-1015"/>
      <point x="-220" y="-1007"/>
      <point x="-214" y="-989" type="curve" smooth="yes"/>
      <point x="114" y="20" type="line"/>
      <point x="150" y="-2"/>
      <point x="191" y="-17"/>
      <point x="235" y="-17" type="curve" smooth="yes"/>
      <point x="452" y="-17"/>
      <point x="554" y="196"/>
      <point x="554" y="350" type="curve" smooth="yes"/>
      <point x="554" y="454"/>
      <point x="501" y="519"/>
      <point x="409" y="519" type="curve" smooth="yes"/>
      <point x="367" y="519"/>
      <point x="309" y="504"/>
      <point x="251" y="441" type="curve"/>
      <point x="587" y="1476" type="line" smooth="yes"/>
      <point x="596" y="1503"/>
      <point x="587" y="1515"/>
      <point x="546" y="1515" type="curve" smooth="yes"/>
      <point x="520" y="1515"/>
      <point x="510" y="1509"/>
      <point x="501" y="1483" type="curve" smooth="yes"/>
      <point x="-299" y="-982" type="line" smooth="yes"/>
      <point x="-306" y="-1006"/>
      <point x="-283" y="-1015"/>
    </contour>
    <contour>
      <point x="135" y="85" type="curve"/>
      <point x="210" y="315" type="line"/>
      <point x="260" y="393"/>
      <point x="321" y="439"/>
      <point x="380" y="439" type="curve" smooth="yes"/>
      <point x="436" y="439"/>
      <point x="464" y="405"/>
      <point x="464" y="341" type="curve" smooth="yes"/>
      <point x="464" y="238"/>
      <point x="402" y="61"/>
      <point x="229" y="61" type="curve" smooth="yes"/>
      <point x="197" y="61"/>
      <point x="167" y="68"/>
    </contour>
  </outline>
</glyph>
<glyph name="eng" format="2">
  <advance width="613"/>
  <unicode hex="014B"/>
  <outline>
    <contour>
      <point x="408" y="-109" type="curve" smooth="yes"/>
      <point x="545" y="308" type="line" smooth="yes"/>
      <point x="585" y="430"/>
      <point x="555" y="519"/>
      <point x="436" y="519" type="curve" smooth="yes"/>
      <point x="366" y="519"/>
      <point x="296" y="485"/>
      <point x="239" y="425" type="curve"/>
      <point x="255" y="476" type="line" smooth="yes"/>
      <point x="264" y="503"/>
      <point x="255" y="515"/>
      <point x="214" y="515" type="curve" smooth="yes"/>
      <point x="188" y="515"/>
      <point x="178" y="510"/>
      <point x="169" y="483" type="curve" smooth="yes"/>
      <point x="19" y="18" type="line" smooth="yes"/>
      <point x="10" y="-7"/>
      <point x="35" y="-15"/>
      <point x="56" y="-15" type="curve" smooth="yes"/>
      <point x="86" y="-15"/>
      <point x="98" y="-7"/>
      <point x="104" y="11" type="curve" smooth="yes"/>
      <point x="196" y="294" type="line"/>
      <point x="250" y="384"/>
      <point x="330" y="440"/>
      <point x="405" y="440" type="curve" smooth="yes"/>
      <point x="466" y="440"/>
      <point x="489" y="406"/>
      <point x="469" y="344" type="curve" smooth="yes"/>
      <point x="326" y="-87" type="line" smooth="yes"/>
      <point x="304" y="-156"/>
      <point x="294" y="-180"/>
      <point x="268" y="-180" type="curve" smooth="yes"/>
      <point x="250" y="-180"/>
      <point x="236" y="-170"/>
      <point x="213" y="-141" type="curve" smooth="yes"/>
      <point x="200" y="-125"/>
      <point x="184" y="-125"/>
      <point x="164" y="-140" type="curve" smooth="yes"/>
      <point x="139" y="-159"/>
      <point x="143" y="-172"/>
      <point x="156" y="-192" type="curve" smooth="yes"/>
      <point x="183" y="-232"/>
      <point x="221" y="-255"/>
      <point x="260" y="-255" type="curve" smooth="yes"/>
      <point x="323" y="-255"/>
      <point x="365" y="-236"/>
    </contour>
  </outline>
</glyph>
<glyph name="oe" format="2">
  <advance width="900"/>
  <unicode hex="0153"/>
  <anchor x="533" y="500" name="top"/>
  <outline>
    <contour>
      <point x="230" y="-19" type="curve" smooth="yes"/>
      <point x="425" y="-19"/>
      <point x="524" y="196"/>
      <point x="524" y="331" type="curve" smooth="yes"/>
      <point x="524" y="443"/>
      <point x="464" y="519"/>
      <point x="350" y="519" type="curve" smooth="yes"/>
      <point x="150" y="519"/>
      <point x="49" y="315"/>
      <point x="49" y="174" type="curve" smooth="yes"/>
      <point x="49" y="60"/>
      <point x="108" y="-19"/>
    </contour>
    <contour>
      <point x="240" y="61" type="curve" smooth="yes"/>
      <point x="174" y="61"/>
      <point x="139" y="103"/>
      <point x="139" y="180" type="curve" smooth="yes"/>
      <point x="139" y="279"/>
      <point x="209" y="439"/>
      <point x="342" y="439" type="curve" smooth="yes"/>
      <point x="405" y="439"/>
      <point x="445" y="399"/>
      <point x="445" y="321" type="curve" smooth="yes"/>
      <point x="445" y="220"/>
      <point x="370" y="61"/>
    </contour>
    <contour>
      <point x="612" y="-19" type="curve" smooth="yes"/>
      <point x="683" y="-19"/>
      <point x="744" y="10"/>
      <point x="808" y="70" type="curve" smooth="yes"/>
      <point x="825" y="86"/>
      <point x="822" y="105"/>
      <point x="803" y="123" type="curve" smooth="yes"/>
      <point x="788" y="138"/>
      <point x="772" y="141"/>
      <point x="753" y="125" type="curve" smooth="yes"/>
      <point x="712" y="90"/>
      <point x="678" y="61"/>
      <point x="622" y="61" type="curve" smooth="yes"/>
      <point x="564" y="61"/>
      <point x="518" y="104"/>
      <point x="518" y="181" type="curve" smooth="yes"/>
      <point x="518" y="279"/>
      <point x="584" y="439"/>
      <point x="734" y="439" type="curve" smooth="yes"/>
      <point x="784" y="439"/>
      <point x="802" y="420"/>
      <point x="802" y="386" type="curve" smooth="yes"/>
      <point x="802" y="329"/>
      <point x="689" y="259"/>
      <point x="507" y="259" type="curve"/>
      <point x="484" y="189" type="line"/>
      <point x="733" y="190"/>
      <point x="890" y="279"/>
      <point x="890" y="405" type="curve" smooth="yes"/>
      <point x="890" y="480"/>
      <point x="827" y="519"/>
      <point x="744" y="519" type="curve" smooth="yes"/>
      <point x="540" y="519"/>
      <point x="440" y="323"/>
      <point x="440" y="178" type="curve" smooth="yes"/>
      <point x="440" y="63"/>
      <point x="504" y="-19"/>
    </contour>
  </outline>
</glyph>
<glyph name="Ohorn" format="2">
  <advance width="1434"/>
  <unicode hex="01A0"/>
  <anchor x="635" y="0" name="bottom"/>
  <anchor x="878" y="744" name="center"/>
  <anchor x="1215" y="21" name="ogonek"/>
  <anchor x="1063" y="1424" name="top"/>
  <outline>
    <contour>
      <point x="700" y="-19" type="curve" smooth="yes"/>
      <point x="1145" y="-19"/>
      <point x="1499" y="478"/>
      <point x="1499" y="1015" type="curve" smooth="yes"/>
      <point x="1499" y="1165"/>
      <point x="1467" y="1286"/>
      <point x="1401" y="1371" type="curve"/>
      <point x="1584" y="1407"/>
      <point x="1618" y="1553"/>
      <point x="1566" y="1695" type="curve" smooth="yes"/>
      <point x="1554" y="1729"/>
      <point x="1475" y="1710"/>
      <point x="1485" y="1672" type="curve" smooth="yes"/>
      <point x="1525" y="1529"/>
      <point x="1510" y="1439"/>
      <point x="1350" y="1424" type="curve"/>
      <point x="1280" y="1483"/>
      <point x="1185" y="1515"/>
      <point x="1063" y="1515" type="curve" smooth="yes"/>
      <point x="623" y="1515"/>
      <point x="260" y="1023"/>
      <point x="260" y="493" type="curve" smooth="yes"/>
      <point x="260" y="171"/>
      <point x="425" y="-19"/>
    </contour>
    <contour>
      <point x="714" y="66" type="curve" smooth="yes"/>
      <point x="490" y="66"/>
      <point x="354" y="225"/>
      <point x="354" y="493" type="curve" smooth="yes"/>
      <point x="354" y="975"/>
      <point x="669" y="1431"/>
      <point x="1048" y="1431" type="curve" smooth="yes"/>
      <point x="1271" y="1431"/>
      <point x="1405" y="1276"/>
      <point x="1405" y="1015" type="curve" smooth="yes"/>
      <point x="1405" y="528"/>
      <point x="1093" y="66"/>
    </contour>
  </outline>
</glyph>
<glyph name="Uhorn" format="2">
  <advance width="1336"/>
  <unicode hex="01AF"/>
  <anchor x="585" y="0" name="bottom"/>
  <anchor x="841" y="21" name="ogonek"/>
  <anchor x="1015" y="1424" name="top"/>
  <anchor x="1500" y="1509" name="topright"/>
  <outline>
    <contour>
      <point x="1710" y="1689" type="curve" smooth="yes"/>
      <point x="1698" y="1723"/>
      <point x="1619" y="1704"/>
      <point x="1629" y="1666" type="curve" smooth="yes"/>
      <point x="1655" y="1572"/>
      <point x="1640" y="1514"/>
      <point x="1500" y="1509" type="curve"/>
      <point x="1481" y="1449" type="line"/>
      <point x="1702" y="1452"/>
      <point x="1753" y="1569"/>
    </contour>
    <component base="U"/>
  </outline>
</glyph>
<glyph name="jdotless" format="2">
  <advance width="268"/>
  <unicode hex="0237"/>
  <guideline x="185" y="489" angle="72"/>
  <anchor x="211" y="500" name="top"/>
  <outline>
    <contour>
      <point x="-337" y="-1019" type="curve" smooth="yes"/>
      <point x="-275" y="-1019"/>
      <point x="-231" y="-997"/>
      <point x="-190" y="-872" type="curve" smooth="yes"/>
      <point x="251" y="476" type="line" smooth="yes"/>
      <point x="260" y="503"/>
      <point x="251" y="515"/>
      <point x="210" y="515" type="curve" smooth="yes"/>
      <point x="184" y="515"/>
      <point x="174" y="509"/>
      <point x="165" y="483" type="curve" smooth="yes"/>
      <point x="-271" y="-851" type="line" smooth="yes"/>
      <point x="-294" y="-919"/>
      <point x="-304" y="-944"/>
      <point x="-330" y="-944" type="curve" smooth="yes"/>
      <point x="-347" y="-944"/>
      <point x="-361" y="-934"/>
      <point x="-385" y="-905" type="curve" smooth="yes"/>
      <point x="-397" y="-889"/>
      <point x="-414" y="-889"/>
      <point x="-434" y="-904" type="curve" smooth="yes"/>
      <point x="-459" y="-922"/>
      <point x="-455" y="-936"/>
      <point x="-441" y="-956" type="curve" smooth="yes"/>
      <point x="-415" y="-996"/>
      <point x="-376" y="-1019"/>
    </contour>
  </outline>
</glyph>
<glyph name="tildecomb" format="2">
  <unicode hex="0303"/>
  <anchor x="81" y="500" name="_top"/>
  <anchor x="184" y="818" name="top"/>
  <outline>
    <contour>
      <point x="-9" y="640" type="curve" smooth="yes"/>
      <point x="14" y="640"/>
      <point x="26" y="648"/>
      <point x="29" y="661" type="curve" smooth="yes"/>
      <point x="35" y="696"/>
      <point x="51" y="716"/>
      <point x="71" y="716" type="curve" smooth="yes"/>
      <point x="118" y="716"/>
      <point x="144" y="641"/>
      <point x="230" y="641" type="curve" smooth="yes"/>
      <point x="295" y="641"/>
      <point x="336" y="688"/>
      <point x="346" y="776" type="curve" smooth="yes"/>
      <point x="349" y="794"/>
      <point x="340" y="803"/>
      <point x="319" y="803" type="curve" smooth="yes"/>
      <point x="294" y="803"/>
      <point x="280" y="794"/>
      <point x="276" y="776" type="curve" smooth="yes"/>
      <point x="270" y="743"/>
      <point x="256" y="725"/>
      <point x="238" y="725" type="curve" smooth="yes"/>
      <point x="183" y="725"/>
      <point x="170" y="801"/>
      <point x="81" y="801" type="curve" smooth="yes"/>
      <point x="13" y="801"/>
      <point x="-29" y="756"/>
      <point x="-39" y="668" type="curve" smooth="yes"/>
      <point x="-41" y="649"/>
      <point x="-31" y="640"/>
    </contour>
  </outline>
</glyph>
<glyph name="hookabovecomb" format="2">
  <unicode hex="0309"/>
  <anchor x="81" y="500" name="_top"/>
  <anchor x="170" y="774" name="top"/>
  <outline>
    <contour>
      <point x="171" y="860" type="curve" smooth="yes"/>
      <point x="133" y="860"/>
      <point x="100" y="850"/>
      <point x="69" y="830" type="curve" smooth="yes"/>
      <point x="54" y="819"/>
      <point x="49" y="805"/>
      <point x="55" y="791" type="curve" smooth="yes"/>
      <point x="65" y="769"/>
      <point x="79" y="760"/>
      <point x="91" y="768" type="curve" smooth="yes"/>
      <point x="113" y="780"/>
      <point x="135" y="788"/>
      <point x="154" y="788" type="curve" smooth="yes"/>
      <point x="170" y="788"/>
      <point x="179" y="781"/>
      <point x="179" y="770" type="curve" smooth="yes"/>
      <point x="179" y="756"/>
      <point x="169" y="745"/>
      <point x="145" y="731" type="curve" smooth="yes"/>
      <point x="110" y="710"/>
      <point x="96" y="686"/>
      <point x="103" y="655" type="curve" smooth="yes"/>
      <point x="109" y="625" type="line" smooth="yes"/>
      <point x="115" y="595"/>
      <point x="183" y="603"/>
      <point x="180" y="634" type="curve" smooth="yes"/>
      <point x="179" y="648" type="line" smooth="yes"/>
      <point x="178" y="660"/>
      <point x="183" y="671"/>
      <point x="216" y="690" type="curve" smooth="yes"/>
      <point x="253" y="710"/>
      <point x="276" y="738"/>
      <point x="276" y="779" type="curve" smooth="yes"/>
      <point x="276" y="830"/>
      <point x="236" y="860"/>
    </contour>
  </outline>
</glyph>
<glyph name="hungarumlautcomb" format="2">
  <unicode hex="030B"/>
  <guideline x="105" y="503" angle="0"/>
  <guideline x="237" y="670" angle="0"/>
  <anchor x="81" y="500" name="_top"/>
  <anchor x="184" y="818" name="top"/>
  <outline>
    <contour>
      <point x="15" y="616" type="curve" smooth="yes"/>
      <point x="23" y="616"/>
      <point x="34" y="619"/>
      <point x="44" y="631" type="curve" smooth="yes"/>
      <point x="168" y="773" type="line" smooth="yes"/>
      <point x="175" y="781"/>
      <point x="180" y="785"/>
      <point x="180" y="796" type="curve" smooth="yes"/>
      <point x="180" y="820"/>
      <point x="148" y="844"/>
      <point x="128" y="844" type="curve" smooth="yes"/>
      <point x="116" y="844"/>
      <point x="108" y="841"/>
      <point x="96" y="824" type="curve" smooth="yes"/>
      <point x="-9" y="671" type="line" smooth="yes"/>
      <point x="-15" y="663"/>
      <point x="-19" y="655"/>
      <point x="-19" y="646" type="curve" smooth="yes"/>
      <point x="-19" y="631"/>
      <point x="3" y="616"/>
    </contour>
    <contour>
      <point x="188" y="616" type="curve" smooth="yes"/>
      <point x="195" y="616"/>
      <point x="205" y="620"/>
      <point x="216" y="631" type="curve" smooth="yes"/>
      <point x="354" y="773" type="line" smooth="yes"/>
      <point x="361" y="780"/>
      <point x="366" y="785"/>
      <point x="366" y="796" type="curve" smooth="yes"/>
      <point x="366" y="820"/>
      <point x="334" y="844"/>
      <point x="314" y="844" type="curve" smooth="yes"/>
      <point x="303" y="844"/>
      <point x="295" y="840"/>
      <point x="283" y="824" type="curve" smooth="yes"/>
      <point x="164" y="671" type="line" smooth="yes"/>
      <point x="156" y="663"/>
      <point x="154" y="655"/>
      <point x="154" y="646" type="curve" smooth="yes"/>
      <point x="154" y="631"/>
      <point x="175" y="616"/>
    </contour>
  </outline>
</glyph>
<glyph name="horncomb" format="2">
  <unicode hex="031B"/>
  <anchor x="86" y="515" name="_topright"/>
  <outline>
    <contour>
      <point x="311" y="694" type="curve" smooth="yes"/>
      <point x="299" y="728"/>
      <point x="220" y="709"/>
      <point x="230" y="671" type="curve" smooth="yes"/>
      <point x="256" y="577"/>
      <point x="242" y="520"/>
      <point x="86" y="515" type="curve"/>
      <point x="65" y="455" type="line"/>
      <point x="303" y="458"/>
      <point x="354" y="573"/>
    </contour>
  </outline>
</glyph>
<glyph name="quoteleft" format="2">
  <advance width="181"/>
  <unicode hex="2018"/>
  <outline>
    <contour>
      <point x="348" y="965" type="curve" smooth="yes"/>
      <point x="379" y="965"/>
      <point x="398" y="984"/>
      <point x="399" y="1009" type="curve" smooth="yes"/>
      <point x="403" y="1118"/>
      <point x="425" y="1200"/>
      <point x="499" y="1295" type="curve" smooth="yes"/>
      <point x="505" y="1302"/>
      <point x="506" y="1309"/>
      <point x="506" y="1315" type="curve" smooth="yes"/>
      <point x="506" y="1329"/>
      <point x="486" y="1345"/>
      <point x="473" y="1345" type="curve" smooth="yes"/>
      <point x="465" y="1345"/>
      <point x="455" y="1342"/>
      <point x="444" y="1333" type="curve" smooth="yes"/>
      <point x="359" y="1265"/>
      <point x="300" y="1116"/>
      <point x="300" y="1005" type="curve" smooth="yes"/>
      <point x="300" y="983"/>
      <point x="315" y="965"/>
    </contour>
  </outline>
</glyph>
<glyph name="minute" format="2">
  <advance width="240"/>
  <unicode hex="2032"/>
  <outline>
    <contour>
      <point x="395" y="1223" type="curve" smooth="yes"/>
      <point x="414" y="1223"/>
      <point x="425" y="1232"/>
      <point x="433" y="1246" type="curve" smooth="yes"/>
      <point x="570" y="1498" type="line" smooth="yes"/>
      <point x="586" y="1528"/>
      <point x="573" y="1545"/>
      <point x="535" y="1545" type="curve" smooth="yes"/>
      <point x="502" y="1545"/>
      <point x="487" y="1526"/>
      <point x="478" y="1505" type="curve" smooth="yes"/>
      <point x="376" y="1262" type="line" smooth="yes"/>
      <point x="364" y="1234"/>
      <point x="369" y="1223"/>
    </contour>
  </outline>
</glyph>
<glyph name="A.dec_locl.ini" format="2">
  <advance width="1423"/>
  <anchor x="731" y="0" name="bottom"/>
  <anchor x="1341" y="0" name="cnct"/>
  <anchor x="1296" y="0" name="ogonek"/>
  <anchor x="1209" y="1424" name="top"/>
  <outline>
    <contour>
      <point x="171" y="-17" type="curve" smooth="yes"/>
      <point x="294" y="-17"/>
      <point x="422" y="14"/>
      <point x="701" y="444" type="curve"/>
      <point x="1122" y="444" type="line"/>
      <point x="1120" y="379"/>
      <point x="1119" y="313"/>
      <point x="1119" y="246" type="curve" smooth="yes"/>
      <point x="1119" y="68"/>
      <point x="1168" y="-17"/>
      <point x="1285" y="-17" type="curve" smooth="yes"/>
      <point x="1335" y="-17"/>
      <point x="1360" y="58"/>
      <point x="1310" y="58" type="curve" smooth="yes"/>
      <point x="1231" y="58"/>
      <point x="1205" y="111"/>
      <point x="1205" y="271" type="curve" smooth="yes"/>
      <point x="1205" y="679"/>
      <point x="1249" y="1061"/>
      <point x="1306" y="1468" type="curve" smooth="yes"/>
      <point x="1311" y="1503"/>
      <point x="1294" y="1515"/>
      <point x="1253" y="1515" type="curve" smooth="yes"/>
      <point x="1216" y="1515"/>
      <point x="1201" y="1504"/>
      <point x="1185" y="1473" type="curve" smooth="yes"/>
      <point x="503" y="148"/>
      <point x="333" y="64"/>
      <point x="171" y="64" type="curve" smooth="yes"/>
      <point x="129" y="64"/>
      <point x="81" y="78"/>
      <point x="48" y="95" type="curve" smooth="yes"/>
      <point x="33" y="103"/>
      <point x="20" y="94"/>
      <point x="10" y="71" type="curve" smooth="yes"/>
      <point x="0" y="48"/>
      <point x="3" y="28"/>
      <point x="19" y="20" type="curve" smooth="yes"/>
      <point x="55" y="3"/>
      <point x="110" y="-17"/>
    </contour>
    <contour>
      <point x="749" y="521" type="line"/>
      <point x="872" y="718"/>
      <point x="1021" y="988"/>
      <point x="1208" y="1356" type="curve"/>
      <point x="1169" y="1077"/>
      <point x="1138" y="808"/>
      <point x="1125" y="521" type="curve"/>
    </contour>
  </outline>
</glyph>
<glyph name="AE.cur" format="2">
  <advance width="2008"/>
  <anchor x="1514" y="1424" name="top"/>
  <outline>
    <contour>
      <point x="141" y="-17" type="curve" smooth="yes"/>
      <point x="280" y="-17"/>
      <point x="387" y="65"/>
      <point x="686" y="476" type="curve"/>
      <point x="1118" y="476" type="line"/>
      <point x="1113" y="434"/>
      <point x="1108" y="392"/>
      <point x="1103" y="350" type="curve" smooth="yes"/>
      <point x="1100" y="328"/>
      <point x="1111" y="321"/>
      <point x="1141" y="321" type="curve" smooth="yes"/>
      <point x="1175" y="321"/>
      <point x="1184" y="336"/>
      <point x="1186" y="359" type="curve" smooth="yes"/>
      <point x="1238" y="765"/>
      <point x="1311" y="1114"/>
      <point x="1403" y="1458" type="curve" smooth="yes"/>
      <point x="1413" y="1495"/>
      <point x="1393" y="1513"/>
      <point x="1354" y="1513" type="curve" smooth="yes"/>
      <point x="1316" y="1513"/>
      <point x="1296" y="1498"/>
      <point x="1269" y="1458" type="curve" smooth="yes"/>
      <point x="445" y="248"/>
      <point x="296" y="64"/>
      <point x="145" y="64" type="curve" smooth="yes"/>
      <point x="116" y="64"/>
      <point x="86" y="69"/>
      <point x="54" y="84" type="curve" smooth="yes"/>
      <point x="34" y="93"/>
      <point x="15" y="91"/>
      <point x="4" y="65" type="curve" smooth="yes"/>
      <point x="-7" y="38"/>
      <point x="-2" y="21"/>
      <point x="23" y="9" type="curve" smooth="yes"/>
      <point x="56" y="-7"/>
      <point x="94" y="-17"/>
    </contour>
    <contour>
      <point x="742" y="554" type="line"/>
      <point x="881" y="748"/>
      <point x="1057" y="1006"/>
      <point x="1289" y="1347" type="curve"/>
      <point x="1222" y="1087"/>
      <point x="1169" y="835"/>
      <point x="1129" y="554" type="curve"/>
    </contour>
    <contour>
      <point x="1453" y="-19" type="curve" smooth="yes"/>
      <point x="1624" y="-19"/>
      <point x="1791" y="63"/>
      <point x="1936" y="216" type="curve" smooth="yes"/>
      <point x="1963" y="245"/>
      <point x="1969" y="261"/>
      <point x="1948" y="283" type="curve" smooth="yes"/>
      <point x="1928" y="303"/>
      <point x="1911" y="306"/>
      <point x="1886" y="279" type="curve" smooth="yes"/>
      <point x="1760" y="140"/>
      <point x="1618" y="66"/>
      <point x="1476" y="66" type="curve" smooth="yes"/>
      <point x="1299" y="66"/>
      <point x="1194" y="159"/>
      <point x="1194" y="314" type="curve" smooth="yes"/>
      <point x="1194" y="540"/>
      <point x="1388" y="746"/>
      <point x="1655" y="746" type="curve" smooth="yes"/>
      <point x="1839" y="746" type="line" smooth="yes"/>
      <point x="1854" y="746"/>
      <point x="1868" y="759"/>
      <point x="1875" y="786" type="curve" smooth="yes"/>
      <point x="1883" y="814"/>
      <point x="1876" y="826"/>
      <point x="1861" y="826" type="curve" smooth="yes"/>
      <point x="1670" y="826" type="line" smooth="yes"/>
      <point x="1539" y="826"/>
      <point x="1469" y="906"/>
      <point x="1469" y="1055" type="curve" smooth="yes"/>
      <point x="1469" y="1268"/>
      <point x="1620" y="1430"/>
      <point x="1826" y="1430" type="curve" smooth="yes"/>
      <point x="1956" y="1430"/>
      <point x="2043" y="1384"/>
      <point x="2115" y="1304" type="curve" smooth="yes"/>
      <point x="2135" y="1281"/>
      <point x="2150" y="1276"/>
      <point x="2170" y="1293" type="curve" smooth="yes"/>
      <point x="2198" y="1315"/>
      <point x="2193" y="1331"/>
      <point x="2180" y="1349" type="curve" smooth="yes"/>
      <point x="2108" y="1456"/>
      <point x="1991" y="1515"/>
      <point x="1848" y="1515" type="curve" smooth="yes"/>
      <point x="1574" y="1515"/>
      <point x="1375" y="1316"/>
      <point x="1375" y="1054" type="curve" smooth="yes"/>
      <point x="1375" y="925"/>
      <point x="1441" y="825"/>
      <point x="1516" y="798" type="curve"/>
      <point x="1276" y="751"/>
      <point x="1100" y="538"/>
      <point x="1100" y="301" type="curve" smooth="yes"/>
      <point x="1100" y="108"/>
      <point x="1240" y="-19"/>
    </contour>
  </outline>
</glyph>
<glyph name="AE.cur.ini" format="2">
  <advance width="1948"/>
  <anchor x="1867" y="0" name="cnct"/>
  <anchor x="1514" y="1424" name="top"/>
  <outline>
    <contour>
      <point x="141" y="-17" type="curve" smooth="yes"/>
      <point x="353" y="-17"/>
      <point x="493" y="175"/>
      <point x="1356" y="1445" type="curve"/>
      <point x="1316" y="1448" type="line"/>
      <point x="1219" y="1090"/>
      <point x="1149" y="755"/>
      <point x="1103" y="350" type="curve" smooth="yes"/>
      <point x="1100" y="328"/>
      <point x="1111" y="321"/>
      <point x="1141" y="321" type="curve" smooth="yes"/>
      <point x="1175" y="321"/>
      <point x="1184" y="336"/>
      <point x="1186" y="359" type="curve" smooth="yes"/>
      <point x="1238" y="765"/>
      <point x="1311" y="1114"/>
      <point x="1403" y="1458" type="curve" smooth="yes"/>
      <point x="1413" y="1495"/>
      <point x="1393" y="1513"/>
      <point x="1354" y="1513" type="curve" smooth="yes"/>
      <point x="1316" y="1513"/>
      <point x="1296" y="1498"/>
      <point x="1269" y="1458" type="curve" smooth="yes"/>
      <point x="445" y="248"/>
      <point x="296" y="64"/>
      <point x="145" y="64" type="curve" smooth="yes"/>
      <point x="116" y="64"/>
      <point x="86" y="69"/>
      <point x="54" y="84" type="curve" smooth="yes"/>
      <point x="34" y="93"/>
      <point x="15" y="91"/>
      <point x="4" y="65" type="curve" smooth="yes"/>
      <point x="-7" y="38"/>
      <point x="-2" y="21"/>
      <point x="23" y="9" type="curve" smooth="yes"/>
      <point x="56" y="-7"/>
      <point x="94" y="-17"/>
    </contour>
    <contour>
      <point x="649" y="476" type="line"/>
      <point x="1163" y="476" type="line"/>
      <point x="1178" y="554" type="line"/>
      <point x="706" y="554" type="line"/>
    </contour>
    <contour>
      <point x="1475" y="-17" type="curve" smooth="yes"/>
      <point x="1515" y="-17"/>
      <point x="1525" y="60"/>
      <point x="1485" y="60" type="curve" smooth="yes"/>
      <point x="1304" y="60"/>
      <point x="1194" y="155"/>
      <point x="1194" y="314" type="curve" smooth="yes"/>
      <point x="1194" y="540"/>
      <point x="1388" y="746"/>
      <point x="1655" y="746" type="curve" smooth="yes"/>
      <point x="1839" y="746" type="line" smooth="yes"/>
      <point x="1854" y="746"/>
      <point x="1868" y="759"/>
      <point x="1875" y="786" type="curve" smooth="yes"/>
      <point x="1883" y="814"/>
      <point x="1876" y="826"/>
      <point x="1861" y="826" type="curve" smooth="yes"/>
      <point x="1670" y="826" type="line" smooth="yes"/>
      <point x="1539" y="826"/>
      <point x="1469" y="906"/>
      <point x="1469" y="1055" type="curve" smooth="yes"/>
      <point x="1469" y="1268"/>
      <point x="1620" y="1430"/>
      <point x="1826" y="1430" type="curve" smooth="yes"/>
      <point x="1956" y="1430"/>
      <point x="2043" y="1384"/>
      <point x="2115" y="1304" type="curve" smooth="yes"/>
      <point x="2135" y="1281"/>
      <point x="2150" y="1276"/>
      <point x="2170" y="1293" type="curve" smooth="yes"/>
      <point x="2198" y="1315"/>
      <point x="2193" y="1331"/>
      <point x="2180" y="1349" type="curve" smooth="yes"/>
      <point x="2108" y="1456"/>
      <point x="1991" y="1515"/>
      <point x="1848" y="1515" type="curve" smooth="yes"/>
      <point x="1574" y="1515"/>
      <point x="1375" y="1316"/>
      <point x="1375" y="1054" type="curve" smooth="yes"/>
      <point x="1375" y="925"/>
      <point x="1441" y="825"/>
      <point x="1516" y="798" type="curve"/>
      <point x="1276" y="751"/>
      <point x="1100" y="538"/>
      <point x="1100" y="301" type="curve" smooth="yes"/>
      <point x="1100" y="109"/>
      <point x="1251" y="-17"/>
    </contour>
  </outline>
</glyph>
<glyph name="C.cur" format="2">
  <advance width="1200"/>
  <anchor x="596" y="0" name="bottom"/>
  <anchor x="1039" y="1424" name="top"/>
  <outline>
    <contour>
      <point x="668" y="-19" type="curve" smooth="yes"/>
      <point x="828" y="-19"/>
      <point x="989" y="65"/>
      <point x="1148" y="229" type="curve" smooth="yes"/>
      <point x="1169" y="250"/>
      <point x="1163" y="269"/>
      <point x="1148" y="285" type="curve" smooth="yes"/>
      <point x="1130" y="305"/>
      <point x="1111" y="305"/>
      <point x="1094" y="288" type="curve" smooth="yes"/>
      <point x="955" y="144"/>
      <point x="829" y="66"/>
      <point x="680" y="66" type="curve" smooth="yes"/>
      <point x="469" y="66"/>
      <point x="348" y="223"/>
      <point x="348" y="475" type="curve" smooth="yes"/>
      <point x="348" y="913"/>
      <point x="649" y="1430"/>
      <point x="1069" y="1430" type="curve" smooth="yes"/>
      <point x="1195" y="1430"/>
      <point x="1295" y="1386"/>
      <point x="1360" y="1308" type="curve" smooth="yes"/>
      <point x="1380" y="1284"/>
      <point x="1395" y="1274"/>
      <point x="1418" y="1289" type="curve" smooth="yes"/>
      <point x="1446" y="1308"/>
      <point x="1446" y="1321"/>
      <point x="1434" y="1343" type="curve" smooth="yes"/>
      <point x="1364" y="1455"/>
      <point x="1239" y="1515"/>
      <point x="1080" y="1515" type="curve" smooth="yes"/>
      <point x="569" y="1515"/>
      <point x="254" y="935"/>
      <point x="254" y="468" type="curve" smooth="yes"/>
      <point x="254" y="174"/>
      <point x="416" y="-19"/>
    </contour>
  </outline>
</glyph>
<glyph name="C.cur.ini" format="2">
  <advance width="1160"/>
  <anchor x="596" y="0" name="bottom"/>
  <anchor x="1079" y="0" name="cnct"/>
  <anchor x="1039" y="1424" name="top"/>
  <outline>
    <contour>
      <point x="688" y="-17" type="curve" smooth="yes"/>
      <point x="728" y="-17"/>
      <point x="738" y="60"/>
      <point x="698" y="60" type="curve" smooth="yes"/>
      <point x="476" y="60"/>
      <point x="348" y="219"/>
      <point x="348" y="475" type="curve" smooth="yes"/>
      <point x="348" y="913"/>
      <point x="649" y="1430"/>
      <point x="1069" y="1430" type="curve" smooth="yes"/>
      <point x="1195" y="1430"/>
      <point x="1295" y="1386"/>
      <point x="1360" y="1308" type="curve" smooth="yes"/>
      <point x="1380" y="1284"/>
      <point x="1395" y="1274"/>
      <point x="1418" y="1289" type="curve" smooth="yes"/>
      <point x="1446" y="1308"/>
      <point x="1446" y="1321"/>
      <point x="1434" y="1343" type="curve" smooth="yes"/>
      <point x="1364" y="1455"/>
      <point x="1239" y="1515"/>
      <point x="1080" y="1515" type="curve" smooth="yes"/>
      <point x="569" y="1515"/>
      <point x="254" y="935"/>
      <point x="254" y="468" type="curve" smooth="yes"/>
      <point x="254" y="175"/>
      <point x="424" y="-17"/>
    </contour>
  </outline>
</glyph>
<glyph name="D.cur" format="2">
  <advance width="1547"/>
  <anchor x="778" y="0" name="bottom"/>
  <anchor x="715" y="744" name="center"/>
  <anchor x="1179" y="1424" name="top"/>
  <outline>
    <contour>
      <point x="766" y="-19" type="curve" smooth="yes"/>
      <point x="1228" y="-19"/>
      <point x="1625" y="456"/>
      <point x="1625" y="994" type="curve" smooth="yes"/>
      <point x="1625" y="1321"/>
      <point x="1410" y="1515"/>
      <point x="1045" y="1515" type="curve" smooth="yes"/>
      <point x="769" y="1515"/>
      <point x="548" y="1430"/>
      <point x="389" y="1264" type="curve" smooth="yes"/>
      <point x="374" y="1249"/>
      <point x="374" y="1234"/>
      <point x="388" y="1218" type="curve" smooth="yes"/>
      <point x="410" y="1193"/>
      <point x="430" y="1189"/>
      <point x="445" y="1206" type="curve" smooth="yes"/>
      <point x="581" y="1355"/>
      <point x="778" y="1430"/>
      <point x="1028" y="1430" type="curve" smooth="yes"/>
      <point x="1344" y="1430"/>
      <point x="1530" y="1266"/>
      <point x="1530" y="990" type="curve" smooth="yes"/>
      <point x="1530" y="504"/>
      <point x="1175" y="66"/>
      <point x="773" y="66" type="curve" smooth="yes"/>
      <point x="700" y="66"/>
      <point x="645" y="79"/>
      <point x="578" y="123" type="curve" smooth="yes"/>
      <point x="560" y="134"/>
      <point x="546" y="134"/>
      <point x="529" y="109" type="curve" smooth="yes"/>
      <point x="511" y="83"/>
      <point x="518" y="69"/>
      <point x="543" y="50" type="curve" smooth="yes"/>
      <point x="601" y="8"/>
      <point x="679" y="-19"/>
    </contour>
    <contour>
      <point x="220" y="-19" type="curve" smooth="yes"/>
      <point x="353" y="-19"/>
      <point x="440" y="75"/>
      <point x="508" y="285" type="curve" smooth="yes"/>
      <point x="823" y="1260" type="line" smooth="yes"/>
      <point x="830" y="1281"/>
      <point x="814" y="1290"/>
      <point x="784" y="1290" type="curve" smooth="yes"/>
      <point x="754" y="1290"/>
      <point x="739" y="1281"/>
      <point x="733" y="1263" type="curve" smooth="yes"/>
      <point x="419" y="290" type="line" smooth="yes"/>
      <point x="366" y="129"/>
      <point x="308" y="66"/>
      <point x="224" y="66" type="curve" smooth="yes"/>
      <point x="160" y="66"/>
      <point x="116" y="86"/>
      <point x="85" y="169" type="curve" smooth="yes"/>
      <point x="78" y="190"/>
      <point x="56" y="194"/>
      <point x="34" y="183" type="curve" smooth="yes"/>
      <point x="14" y="173"/>
      <point x="6" y="156"/>
      <point x="14" y="134" type="curve" smooth="yes"/>
      <point x="44" y="44"/>
      <point x="115" y="-19"/>
    </contour>
  </outline>
</glyph>
<glyph name="E.cur.ini" format="2">
  <advance width="1020"/>
  <anchor x="534" y="0" name="bottom"/>
  <anchor x="939" y="0" name="cnct"/>
  <anchor x="678" y="0" name="ogonek"/>
  <anchor x="910" y="1424" name="top"/>
  <outline>
    <contour>
      <point x="548" y="-17" type="curve" smooth="yes"/>
      <point x="588" y="-17"/>
      <point x="598" y="60"/>
      <point x="558" y="60" type="curve" smooth="yes"/>
      <point x="374" y="60"/>
      <point x="266" y="158"/>
      <point x="266" y="321" type="curve" smooth="yes"/>
      <point x="266" y="550"/>
      <point x="460" y="746"/>
      <point x="728" y="746" type="curve" smooth="yes"/>
      <point x="911" y="746" type="line" smooth="yes"/>
      <point x="926" y="746"/>
      <point x="940" y="759"/>
      <point x="948" y="786" type="curve" smooth="yes"/>
      <point x="955" y="814"/>
      <point x="949" y="826"/>
      <point x="934" y="826" type="curve" smooth="yes"/>
      <point x="743" y="826" type="line" smooth="yes"/>
      <point x="595" y="826"/>
      <point x="516" y="906"/>
      <point x="516" y="1055" type="curve" smooth="yes"/>
      <point x="516" y="1268"/>
      <point x="678" y="1430"/>
      <point x="899" y="1430" type="curve" smooth="yes"/>
      <point x="1029" y="1430"/>
      <point x="1115" y="1384"/>
      <point x="1188" y="1304" type="curve" smooth="yes"/>
      <point x="1208" y="1281"/>
      <point x="1223" y="1276"/>
      <point x="1243" y="1293" type="curve" smooth="yes"/>
      <point x="1270" y="1315"/>
      <point x="1265" y="1331"/>
      <point x="1253" y="1349" type="curve" smooth="yes"/>
      <point x="1180" y="1456"/>
      <point x="1064" y="1515"/>
      <point x="920" y="1515" type="curve" smooth="yes"/>
      <point x="631" y="1515"/>
      <point x="423" y="1316"/>
      <point x="423" y="1054" type="curve" smooth="yes"/>
      <point x="423" y="925"/>
      <point x="496" y="823"/>
      <point x="580" y="795" type="curve"/>
      <point x="345" y="749"/>
      <point x="173" y="548"/>
      <point x="173" y="318" type="curve" smooth="yes"/>
      <point x="173" y="110"/>
      <point x="315" y="-17"/>
    </contour>
  </outline>
</glyph>
<glyph name="F.cur" format="2">
  <advance width="1150"/>
  <outline>
    <contour>
      <point x="220" y="-19" type="curve" smooth="yes"/>
      <point x="353" y="-19"/>
      <point x="439" y="75"/>
      <point x="506" y="285" type="curve" smooth="yes"/>
      <point x="643" y="705" type="line"/>
      <point x="1158" y="705" type="line" smooth="yes"/>
      <point x="1173" y="705"/>
      <point x="1186" y="719"/>
      <point x="1194" y="745" type="curve" smooth="yes"/>
      <point x="1201" y="773"/>
      <point x="1195" y="785"/>
      <point x="1180" y="785" type="curve" smooth="yes"/>
      <point x="668" y="785" type="line"/>
      <point x="869" y="1408" type="line"/>
      <point x="1468" y="1408" type="line" smooth="yes"/>
      <point x="1483" y="1408"/>
      <point x="1496" y="1421"/>
      <point x="1504" y="1448" type="curve" smooth="yes"/>
      <point x="1511" y="1475"/>
      <point x="1505" y="1488"/>
      <point x="1490" y="1488" type="curve" smooth="yes"/>
      <point x="765" y="1488" type="line" smooth="yes"/>
      <point x="586" y="1488"/>
      <point x="453" y="1428"/>
      <point x="334" y="1265" type="curve" smooth="yes"/>
      <point x="320" y="1245"/>
      <point x="320" y="1229"/>
      <point x="336" y="1215" type="curve" smooth="yes"/>
      <point x="356" y="1198"/>
      <point x="374" y="1193"/>
      <point x="391" y="1214" type="curve" smooth="yes"/>
      <point x="506" y="1359"/>
      <point x="599" y="1408"/>
      <point x="758" y="1408" type="curve" smooth="yes"/>
      <point x="780" y="1408" type="line"/>
      <point x="419" y="290" type="line" smooth="yes"/>
      <point x="366" y="129"/>
      <point x="308" y="66"/>
      <point x="224" y="66" type="curve" smooth="yes"/>
      <point x="160" y="66"/>
      <point x="116" y="86"/>
      <point x="85" y="169" type="curve" smooth="yes"/>
      <point x="78" y="190"/>
      <point x="56" y="194"/>
      <point x="34" y="183" type="curve" smooth="yes"/>
      <point x="14" y="173"/>
      <point x="6" y="156"/>
      <point x="14" y="134" type="curve" smooth="yes"/>
      <point x="44" y="44"/>
      <point x="115" y="-19"/>
    </contour>
  </outline>
</glyph>
<glyph name="F.cur_locl" format="2">
  <advance width="1279"/>
  <outline>
    <contour>
      <point x="389" y="-17" type="curve" smooth="yes"/>
      <point x="759" y="-17"/>
      <point x="1239" y="608"/>
      <point x="1239" y="1144" type="curve" smooth="yes"/>
      <point x="1239" y="1380"/>
      <point x="1121" y="1515"/>
      <point x="905" y="1515" type="curve" smooth="yes"/>
      <point x="763" y="1515"/>
      <point x="614" y="1456"/>
      <point x="465" y="1340" type="curve" smooth="yes"/>
      <point x="444" y="1324"/>
      <point x="440" y="1305"/>
      <point x="453" y="1284" type="curve" smooth="yes"/>
      <point x="469" y="1259"/>
      <point x="488" y="1253"/>
      <point x="506" y="1268" type="curve" smooth="yes"/>
      <point x="651" y="1375"/>
      <point x="784" y="1430"/>
      <point x="900" y="1430" type="curve" smooth="yes"/>
      <point x="1063" y="1430"/>
      <point x="1145" y="1325"/>
      <point x="1145" y="1139" type="curve" smooth="yes"/>
      <point x="1145" y="655"/>
      <point x="706" y="68"/>
      <point x="394" y="68" type="curve" smooth="yes"/>
      <point x="296" y="68"/>
      <point x="234" y="130"/>
      <point x="234" y="244" type="curve" smooth="yes"/>
      <point x="234" y="587"/>
      <point x="664" y="867"/>
      <point x="1376" y="946" type="curve"/>
      <point x="1321" y="784" type="line" smooth="yes"/>
      <point x="1313" y="759"/>
      <point x="1324" y="748"/>
      <point x="1359" y="748" type="curve" smooth="yes"/>
      <point x="1385" y="748"/>
      <point x="1401" y="759"/>
      <point x="1409" y="784" type="curve" smooth="yes"/>
      <point x="1473" y="980" type="line" smooth="yes"/>
      <point x="1485" y="1019"/>
      <point x="1473" y="1039"/>
      <point x="1431" y="1035" type="curve" smooth="yes"/>
      <point x="629" y="960"/>
      <point x="140" y="641"/>
      <point x="140" y="240" type="curve" smooth="yes"/>
      <point x="140" y="75"/>
      <point x="236" y="-17"/>
    </contour>
  </outline>
</glyph>
<glyph name="G.cur" format="2">
  <advance width="1333"/>
  <anchor x="538" y="-1000" name="bottom"/>
  <anchor x="1044" y="1424" name="top"/>
  <outline>
    <contour>
      <point x="533" y="-1020" type="curve" smooth="yes"/>
      <point x="695" y="-1020"/>
      <point x="821" y="-885"/>
      <point x="908" y="-620" type="curve" smooth="yes"/>
      <point x="1344" y="710" type="line" smooth="yes"/>
      <point x="1350" y="729"/>
      <point x="1338" y="738"/>
      <point x="1309" y="738" type="curve" smooth="yes"/>
      <point x="1280" y="738"/>
      <point x="1263" y="729"/>
      <point x="1256" y="710" type="curve"/>
      <point x="1051" y="301"/>
      <point x="854" y="106"/>
      <point x="645" y="106" type="curve" smooth="yes"/>
      <point x="459" y="106"/>
      <point x="338" y="259"/>
      <point x="338" y="493" type="curve" smooth="yes"/>
      <point x="338" y="986"/>
      <point x="684" y="1430"/>
      <point x="1071" y="1430" type="curve" smooth="yes"/>
      <point x="1201" y="1430"/>
      <point x="1304" y="1381"/>
      <point x="1389" y="1280" type="curve" smooth="yes"/>
      <point x="1399" y="1268"/>
      <point x="1418" y="1260"/>
      <point x="1440" y="1278" type="curve" smooth="yes"/>
      <point x="1464" y="1296"/>
      <point x="1464" y="1313"/>
      <point x="1453" y="1328" type="curve" smooth="yes"/>
      <point x="1370" y="1445"/>
      <point x="1228" y="1515"/>
      <point x="1071" y="1515" type="curve" smooth="yes"/>
      <point x="630" y="1515"/>
      <point x="245" y="1034"/>
      <point x="245" y="489" type="curve" smooth="yes"/>
      <point x="245" y="206"/>
      <point x="396" y="21"/>
      <point x="629" y="21" type="curve" smooth="yes"/>
      <point x="818" y="21"/>
      <point x="988" y="138"/>
      <point x="1148" y="378" type="curve"/>
      <point x="824" y="-600" type="line" smooth="yes"/>
      <point x="750" y="-821"/>
      <point x="659" y="-935"/>
      <point x="545" y="-935" type="curve" smooth="yes"/>
      <point x="483" y="-935"/>
      <point x="444" y="-897"/>
      <point x="444" y="-836" type="curve" smooth="yes"/>
      <point x="444" y="-660"/>
      <point x="623" y="-460"/>
      <point x="975" y="-245" type="curve" smooth="yes"/>
      <point x="1086" y="-175"/>
      <point x="1211" y="-101"/>
      <point x="1356" y="-25" type="curve" smooth="yes"/>
      <point x="1379" y="-12"/>
      <point x="1391" y="3"/>
      <point x="1376" y="31" type="curve" smooth="yes"/>
      <point x="1363" y="58"/>
      <point x="1343" y="60"/>
      <point x="1325" y="50" type="curve" smooth="yes"/>
      <point x="1211" y="-11"/>
      <point x="1106" y="-70"/>
      <point x="1013" y="-129" type="curve" smooth="yes"/>
      <point x="575" y="-384"/>
      <point x="353" y="-624"/>
      <point x="353" y="-840" type="curve" smooth="yes"/>
      <point x="353" y="-951"/>
      <point x="426" y="-1020"/>
    </contour>
  </outline>
</glyph>
<glyph name="G.cur_locl" format="2">
  <advance width="1478"/>
  <anchor x="528" y="0" name="bottom"/>
  <anchor x="973" y="1424" name="top"/>
  <outline>
    <contour>
      <point x="530" y="-1020" type="curve" smooth="yes"/>
      <point x="691" y="-1020"/>
      <point x="818" y="-885"/>
      <point x="904" y="-620" type="curve" smooth="yes"/>
      <point x="1328" y="693" type="line" smooth="yes"/>
      <point x="1334" y="711"/>
      <point x="1321" y="720"/>
      <point x="1293" y="720" type="curve" smooth="yes"/>
      <point x="1264" y="720"/>
      <point x="1246" y="711"/>
      <point x="1240" y="693" type="curve"/>
      <point x="1049" y="346"/>
      <point x="765" y="96"/>
      <point x="569" y="96" type="curve" smooth="yes"/>
      <point x="426" y="96"/>
      <point x="354" y="180"/>
      <point x="354" y="344" type="curve" smooth="yes"/>
      <point x="354" y="786"/>
      <point x="730" y="1430"/>
      <point x="1086" y="1430" type="curve" smooth="yes"/>
      <point x="1165" y="1430"/>
      <point x="1214" y="1380"/>
      <point x="1214" y="1299" type="curve" smooth="yes"/>
      <point x="1214" y="1016"/>
      <point x="740" y="595"/>
      <point x="86" y="295" type="curve" smooth="yes"/>
      <point x="64" y="285"/>
      <point x="58" y="271"/>
      <point x="68" y="244" type="curve" smooth="yes"/>
      <point x="79" y="213"/>
      <point x="94" y="210"/>
      <point x="119" y="221" type="curve" smooth="yes"/>
      <point x="809" y="530"/>
      <point x="1308" y="986"/>
      <point x="1308" y="1306" type="curve" smooth="yes"/>
      <point x="1308" y="1436"/>
      <point x="1226" y="1515"/>
      <point x="1093" y="1515" type="curve" smooth="yes"/>
      <point x="679" y="1515"/>
      <point x="260" y="835"/>
      <point x="260" y="341" type="curve" smooth="yes"/>
      <point x="260" y="123"/>
      <point x="359" y="11"/>
      <point x="554" y="11" type="curve" smooth="yes"/>
      <point x="748" y="11"/>
      <point x="970" y="175"/>
      <point x="1151" y="424" type="curve"/>
      <point x="820" y="-600" type="line" smooth="yes"/>
      <point x="749" y="-821"/>
      <point x="655" y="-935"/>
      <point x="541" y="-935" type="curve" smooth="yes"/>
      <point x="479" y="-935"/>
      <point x="440" y="-897"/>
      <point x="440" y="-836" type="curve" smooth="yes"/>
      <point x="440" y="-616"/>
      <point x="745" y="-342"/>
      <point x="1344" y="-26" type="curve" smooth="yes"/>
      <point x="1366" y="-14"/>
      <point x="1378" y="3"/>
      <point x="1363" y="31" type="curve" smooth="yes"/>
      <point x="1349" y="58"/>
      <point x="1329" y="60"/>
      <point x="1311" y="50" type="curve" smooth="yes"/>
      <point x="674" y="-290"/>
      <point x="349" y="-590"/>
      <point x="349" y="-840" type="curve" smooth="yes"/>
      <point x="349" y="-951"/>
      <point x="423" y="-1020"/>
    </contour>
  </outline>
</glyph>
<glyph name="G.cur_ro" format="2">
  <advance width="1115"/>
  <outline>
    <contour>
      <point x="496" y="-20" type="curve" smooth="yes"/>
      <point x="762" y="-20"/>
      <point x="958" y="223"/>
      <point x="1142" y="782" type="curve" smooth="yes"/>
      <point x="1151" y="809"/>
      <point x="1136" y="821"/>
      <point x="1111" y="821" type="curve" smooth="yes"/>
      <point x="1096" y="821"/>
      <point x="1087" y="820"/>
      <point x="1057" y="803" type="curve" smooth="yes"/>
      <point x="1009" y="776"/>
      <point x="853" y="674"/>
      <point x="676" y="674" type="curve" smooth="yes"/>
      <point x="536" y="674"/>
      <point x="479" y="741"/>
      <point x="479" y="859" type="curve" smooth="yes"/>
      <point x="479" y="1143"/>
      <point x="744" y="1435"/>
      <point x="950" y="1435" type="curve" smooth="yes"/>
      <point x="1026" y="1435"/>
      <point x="1061" y="1390"/>
      <point x="1061" y="1327" type="curve" smooth="yes"/>
      <point x="1061" y="1183"/>
      <point x="862" y="938"/>
      <point x="612" y="938" type="curve" smooth="yes"/>
      <point x="414" y="938"/>
      <point x="378" y="1114"/>
      <point x="485" y="1448" type="curve" smooth="yes"/>
      <point x="492" y="1470"/>
      <point x="477" y="1481"/>
      <point x="446" y="1481" type="curve" smooth="yes"/>
      <point x="420" y="1481"/>
      <point x="407" y="1471"/>
      <point x="400" y="1450" type="curve" smooth="yes"/>
      <point x="286" y="1109"/>
      <point x="335" y="851"/>
      <point x="606" y="851" type="curve" smooth="yes"/>
      <point x="921" y="851"/>
      <point x="1152" y="1146"/>
      <point x="1152" y="1344" type="curve" smooth="yes"/>
      <point x="1152" y="1440"/>
      <point x="1095" y="1519"/>
      <point x="970" y="1519" type="curve" smooth="yes"/>
      <point x="702" y="1519"/>
      <point x="388" y="1195"/>
      <point x="388" y="853" type="curve" smooth="yes"/>
      <point x="388" y="682"/>
      <point x="481" y="587"/>
      <point x="660" y="587" type="curve" smooth="yes"/>
      <point x="761" y="587"/>
      <point x="892" y="621"/>
      <point x="1027" y="701" type="curve"/>
      <point x="876" y="269"/>
      <point x="713" y="67"/>
      <point x="507" y="67" type="curve" smooth="yes"/>
      <point x="391" y="67"/>
      <point x="331" y="133"/>
      <point x="312" y="281" type="curve" smooth="yes"/>
      <point x="310" y="299"/>
      <point x="295" y="307"/>
      <point x="270" y="304" type="curve" smooth="yes"/>
      <point x="242" y="300"/>
      <point x="230" y="288"/>
      <point x="231" y="269" type="curve" smooth="yes"/>
      <point x="245" y="93"/>
      <point x="334" y="-20"/>
    </contour>
  </outline>
</glyph>
<glyph name="G.dec" format="2">
  <advance width="1594"/>
  <anchor x="816" y="0" name="bottom"/>
  <anchor x="1206" y="1424" name="top"/>
  <outline>
    <contour>
      <point x="94" y="-12" type="curve" smooth="yes"/>
      <point x="606" y="-12"/>
      <point x="1011" y="923"/>
      <point x="1011" y="1300" type="curve" smooth="yes"/>
      <point x="1011" y="1433"/>
      <point x="948" y="1513"/>
      <point x="841" y="1513" type="curve" smooth="yes"/>
      <point x="711" y="1513"/>
      <point x="633" y="1405"/>
      <point x="633" y="1230" type="curve" smooth="yes"/>
      <point x="633" y="1029"/>
      <point x="775" y="883"/>
      <point x="965" y="883" type="curve" smooth="yes"/>
      <point x="1198" y="883"/>
      <point x="1413" y="1030"/>
      <point x="1604" y="1320" type="curve"/>
      <point x="1549" y="1316" type="line"/>
      <point x="1524" y="1169"/>
      <point x="1499" y="1003"/>
      <point x="1453" y="820" type="curve" smooth="yes"/>
      <point x="1321" y="295"/>
      <point x="1153" y="75"/>
      <point x="883" y="75" type="curve" smooth="yes"/>
      <point x="610" y="75"/>
      <point x="394" y="354"/>
      <point x="369" y="740" type="curve"/>
      <point x="329" y="720" type="line"/>
      <point x="733" y="455"/>
      <point x="1124" y="374"/>
      <point x="1575" y="374" type="curve" smooth="yes"/>
      <point x="1598" y="374"/>
      <point x="1608" y="384"/>
      <point x="1616" y="415" type="curve" smooth="yes"/>
      <point x="1624" y="443"/>
      <point x="1614" y="456"/>
      <point x="1594" y="456" type="curve" smooth="yes"/>
      <point x="1118" y="456"/>
      <point x="786" y="533"/>
      <point x="385" y="780" type="curve" smooth="yes"/>
      <point x="359" y="796"/>
      <point x="335" y="798"/>
      <point x="315" y="785" type="curve" smooth="yes"/>
      <point x="294" y="771"/>
      <point x="285" y="750"/>
      <point x="286" y="723" type="curve" smooth="yes"/>
      <point x="315" y="296"/>
      <point x="564" y="-12"/>
      <point x="878" y="-12" type="curve" smooth="yes"/>
      <point x="1205" y="-12"/>
      <point x="1403" y="230"/>
      <point x="1545" y="808" type="curve" smooth="yes"/>
      <point x="1588" y="980"/>
      <point x="1620" y="1166"/>
      <point x="1643" y="1355" type="curve" smooth="yes"/>
      <point x="1646" y="1381"/>
      <point x="1631" y="1399"/>
      <point x="1600" y="1405" type="curve" smooth="yes"/>
      <point x="1578" y="1410"/>
      <point x="1561" y="1403"/>
      <point x="1549" y="1385" type="curve" smooth="yes"/>
      <point x="1369" y="1108"/>
      <point x="1175" y="966"/>
      <point x="976" y="966" type="curve" smooth="yes"/>
      <point x="833" y="966"/>
      <point x="721" y="1076"/>
      <point x="721" y="1230" type="curve" smooth="yes"/>
      <point x="721" y="1354"/>
      <point x="765" y="1430"/>
      <point x="836" y="1430" type="curve" smooth="yes"/>
      <point x="889" y="1430"/>
      <point x="924" y="1380"/>
      <point x="924" y="1298" type="curve" smooth="yes"/>
      <point x="924" y="915"/>
      <point x="511" y="68"/>
      <point x="106" y="68" type="curve" smooth="yes"/>
      <point x="81" y="68"/>
      <point x="66" y="60"/>
      <point x="60" y="35" type="curve" smooth="yes"/>
      <point x="51" y="3"/>
      <point x="64" y="-12"/>
    </contour>
  </outline>
</glyph>
<glyph name="G_locl.au" format="2">
  <advance width="1363"/>
  <anchor x="630" y="0" name="bottom"/>
  <anchor x="1001" y="1424" name="top"/>
  <outline>
    <contour>
      <point x="615" y="-17" type="curve" smooth="yes"/>
      <point x="821" y="-17"/>
      <point x="997" y="101"/>
      <point x="1152" y="349" type="curve"/>
      <point x="1042" y="14" type="line" smooth="yes"/>
      <point x="1036" y="-5"/>
      <point x="1050" y="-14"/>
      <point x="1079" y="-14" type="curve" smooth="yes"/>
      <point x="1107" y="-14"/>
      <point x="1125" y="-5"/>
      <point x="1131" y="14" type="curve" smooth="yes"/>
      <point x="1370" y="748" type="line" smooth="yes"/>
      <point x="1376" y="766"/>
      <point x="1364" y="775"/>
      <point x="1335" y="775" type="curve" smooth="yes"/>
      <point x="1306" y="775"/>
      <point x="1289" y="766"/>
      <point x="1282" y="748" type="curve"/>
      <point x="1094" y="288"/>
      <point x="882" y="68"/>
      <point x="631" y="68" type="curve" smooth="yes"/>
      <point x="456" y="68"/>
      <point x="341" y="216"/>
      <point x="341" y="443" type="curve" smooth="yes"/>
      <point x="341" y="965"/>
      <point x="687" y="1430"/>
      <point x="1075" y="1430" type="curve" smooth="yes"/>
      <point x="1211" y="1430"/>
      <point x="1307" y="1389"/>
      <point x="1399" y="1293" type="curve" smooth="yes"/>
      <point x="1415" y="1275"/>
      <point x="1427" y="1280"/>
      <point x="1445" y="1294" type="curve" smooth="yes"/>
      <point x="1464" y="1309"/>
      <point x="1469" y="1318"/>
      <point x="1460" y="1333" type="curve" smooth="yes"/>
      <point x="1391" y="1448"/>
      <point x="1247" y="1515"/>
      <point x="1075" y="1515" type="curve" smooth="yes"/>
      <point x="637" y="1515"/>
      <point x="247" y="1013"/>
      <point x="247" y="438" type="curve" smooth="yes"/>
      <point x="247" y="163"/>
      <point x="392" y="-17"/>
    </contour>
  </outline>
</glyph>
<glyph name="G_locl" format="2">
  <advance width="1355"/>
  <anchor x="624" y="0" name="bottom"/>
  <anchor x="1052" y="1424" name="top"/>
  <outline>
    <contour>
      <point x="665" y="-19" type="curve" smooth="yes"/>
      <point x="820" y="-19"/>
      <point x="969" y="59"/>
      <point x="1107" y="239" type="curve"/>
      <point x="1035" y="14" type="line" smooth="yes"/>
      <point x="1029" y="-5"/>
      <point x="1042" y="-14"/>
      <point x="1070" y="-14" type="curve" smooth="yes"/>
      <point x="1099" y="-14"/>
      <point x="1117" y="-5"/>
      <point x="1123" y="14" type="curve" smooth="yes"/>
      <point x="1353" y="729" type="line" smooth="yes"/>
      <point x="1362" y="758"/>
      <point x="1358" y="769"/>
      <point x="1338" y="769" type="curve" smooth="yes"/>
      <point x="905" y="769" type="line" smooth="yes"/>
      <point x="885" y="769"/>
      <point x="875" y="759"/>
      <point x="865" y="729" type="curve" smooth="yes"/>
      <point x="855" y="699"/>
      <point x="859" y="689"/>
      <point x="879" y="689" type="curve" smooth="yes"/>
      <point x="1253" y="689" type="line"/>
      <point x="1174" y="448" type="line"/>
      <point x="993" y="171"/>
      <point x="847" y="66"/>
      <point x="669" y="66" type="curve" smooth="yes"/>
      <point x="452" y="66"/>
      <point x="343" y="211"/>
      <point x="343" y="468" type="curve" smooth="yes"/>
      <point x="343" y="905"/>
      <point x="644" y="1430"/>
      <point x="1063" y="1430" type="curve" smooth="yes"/>
      <point x="1199" y="1430"/>
      <point x="1295" y="1389"/>
      <point x="1387" y="1293" type="curve" smooth="yes"/>
      <point x="1403" y="1275"/>
      <point x="1415" y="1280"/>
      <point x="1433" y="1294" type="curve" smooth="yes"/>
      <point x="1452" y="1309"/>
      <point x="1457" y="1318"/>
      <point x="1448" y="1333" type="curve" smooth="yes"/>
      <point x="1379" y="1448"/>
      <point x="1235" y="1515"/>
      <point x="1063" y="1515" type="curve" smooth="yes"/>
      <point x="563" y="1515"/>
      <point x="249" y="930"/>
      <point x="249" y="459" type="curve" smooth="yes"/>
      <point x="249" y="169"/>
      <point x="414" y="-19"/>
    </contour>
  </outline>
</glyph>
<glyph name="H.dec" format="2">
  <advance width="1684"/>
  <anchor x="849" y="0" name="bottom"/>
  <anchor x="1225" y="1150" name="center"/>
  <anchor x="1285" y="1424" name="top"/>
  <outline>
    <contour>
      <point x="468" y="-14" type="curve" smooth="yes"/>
      <point x="498" y="-14"/>
      <point x="513" y="-5"/>
      <point x="519" y="14" type="curve" smooth="yes"/>
      <point x="994" y="1485" type="line" smooth="yes"/>
      <point x="1001" y="1506"/>
      <point x="985" y="1515"/>
      <point x="955" y="1515" type="curve" smooth="yes"/>
      <point x="926" y="1515"/>
      <point x="919" y="1509"/>
      <point x="904" y="1495" type="curve" smooth="yes"/>
      <point x="874" y="1470"/>
      <point x="851" y="1444"/>
      <point x="798" y="1444" type="curve" smooth="yes"/>
      <point x="733" y="1444"/>
      <point x="673" y="1484"/>
      <point x="595" y="1484" type="curve" smooth="yes"/>
      <point x="480" y="1484"/>
      <point x="404" y="1399"/>
      <point x="374" y="1279" type="curve" smooth="yes"/>
      <point x="369" y="1259"/>
      <point x="378" y="1241"/>
      <point x="413" y="1241" type="curve" smooth="yes"/>
      <point x="441" y="1241"/>
      <point x="454" y="1253"/>
      <point x="461" y="1278" type="curve" smooth="yes"/>
      <point x="488" y="1361"/>
      <point x="534" y="1400"/>
      <point x="588" y="1400" type="curve" smooth="yes"/>
      <point x="645" y="1400"/>
      <point x="714" y="1360"/>
      <point x="785" y="1360" type="curve" smooth="yes"/>
      <point x="821" y="1360"/>
      <point x="850" y="1368"/>
      <point x="870" y="1384" type="curve"/>
      <point x="429" y="16" type="line" smooth="yes"/>
      <point x="421" y="-5"/>
      <point x="438" y="-14"/>
    </contour>
    <contour>
      <point x="1293" y="274" type="curve"/>
      <point x="1365" y="286" type="line"/>
      <point x="1528" y="775"/>
      <point x="1231" y="900"/>
      <point x="1015" y="900" type="curve" smooth="yes"/>
      <point x="809" y="900"/>
      <point x="659" y="779"/>
      <point x="659" y="613" type="curve" smooth="yes"/>
      <point x="659" y="468"/>
      <point x="778" y="380"/>
      <point x="971" y="380" type="curve" smooth="yes"/>
      <point x="1239" y="380"/>
      <point x="1471" y="480"/>
      <point x="1760" y="720" type="curve" smooth="yes"/>
      <point x="1781" y="736"/>
      <point x="1783" y="756"/>
      <point x="1765" y="778" type="curve" smooth="yes"/>
      <point x="1748" y="799"/>
      <point x="1730" y="800"/>
      <point x="1710" y="781" type="curve" smooth="yes"/>
      <point x="1451" y="555"/>
      <point x="1235" y="460"/>
      <point x="978" y="460" type="curve" smooth="yes"/>
      <point x="825" y="460"/>
      <point x="731" y="521"/>
      <point x="731" y="623" type="curve" smooth="yes"/>
      <point x="731" y="738"/>
      <point x="843" y="820"/>
      <point x="996" y="820" type="curve" smooth="yes"/>
      <point x="1198" y="820"/>
      <point x="1443" y="720"/>
    </contour>
    <contour>
      <point x="1248" y="-14" type="curve" smooth="yes"/>
      <point x="1278" y="-14"/>
      <point x="1293" y="-5"/>
      <point x="1299" y="14" type="curve" smooth="yes"/>
      <point x="1774" y="1485" type="line" smooth="yes"/>
      <point x="1781" y="1506"/>
      <point x="1765" y="1515"/>
      <point x="1735" y="1515" type="curve" smooth="yes"/>
      <point x="1705" y="1515"/>
      <point x="1690" y="1506"/>
      <point x="1684" y="1488" type="curve" smooth="yes"/>
      <point x="1209" y="16" type="line" smooth="yes"/>
      <point x="1203" y="-5"/>
      <point x="1218" y="-14"/>
    </contour>
  </outline>
</glyph>
<glyph name="I.cur.ini" format="2">
  <advance width="1450"/>
  <anchor x="950" y="0" name="bottom"/>
  <anchor x="1369" y="0" name="cnct"/>
  <anchor x="1113" y="-11" name="ogonek"/>
  <anchor x="1251" y="1424" name="top"/>
  <outline>
    <contour>
      <point x="563" y="-17" type="curve" smooth="yes"/>
      <point x="1042" y="-17"/>
      <point x="1523" y="681"/>
      <point x="1523" y="1209" type="curve" smooth="yes"/>
      <point x="1523" y="1399"/>
      <point x="1438" y="1515"/>
      <point x="1289" y="1515" type="curve" smooth="yes"/>
      <point x="1055" y="1515"/>
      <point x="858" y="1189"/>
      <point x="858" y="730" type="curve" smooth="yes"/>
      <point x="858" y="314"/>
      <point x="1059" y="-17"/>
      <point x="1312" y="-17" type="curve" smooth="yes"/>
      <point x="1352" y="-17"/>
      <point x="1378" y="58"/>
      <point x="1338" y="58" type="curve" smooth="yes"/>
      <point x="1124" y="58"/>
      <point x="951" y="358"/>
      <point x="951" y="728" type="curve" smooth="yes"/>
      <point x="951" y="1138"/>
      <point x="1108" y="1430"/>
      <point x="1284" y="1430" type="curve" smooth="yes"/>
      <point x="1378" y="1430"/>
      <point x="1429" y="1346"/>
      <point x="1429" y="1208" type="curve" smooth="yes"/>
      <point x="1429" y="575"/>
      <point x="907" y="68"/>
      <point x="573" y="68" type="curve" smooth="yes"/>
      <point x="398" y="68"/>
      <point x="296" y="190"/>
      <point x="273" y="429" type="curve"/>
      <point x="380" y="391"/>
      <point x="470" y="376"/>
      <point x="595" y="376" type="curve" smooth="yes"/>
      <point x="621" y="376"/>
      <point x="634" y="388"/>
      <point x="638" y="413" type="curve" smooth="yes"/>
      <point x="643" y="440"/>
      <point x="634" y="451"/>
      <point x="608" y="451" type="curve" smooth="yes"/>
      <point x="475" y="451"/>
      <point x="378" y="468"/>
      <point x="266" y="513" type="curve" smooth="yes"/>
      <point x="239" y="525"/>
      <point x="225" y="524"/>
      <point x="204" y="508" type="curve" smooth="yes"/>
      <point x="184" y="493"/>
      <point x="179" y="480"/>
      <point x="180" y="450" type="curve" smooth="yes"/>
      <point x="204" y="136"/>
      <point x="333" y="-17"/>
    </contour>
  </outline>
</glyph>
<glyph name="I.dec" format="2">
  <advance width="833"/>
  <anchor x="310" y="0" name="bottom"/>
  <anchor x="749" y="1424" name="top"/>
  <outline>
    <contour>
      <point x="319" y="-19" type="curve" smooth="yes"/>
      <point x="481" y="-19"/>
      <point x="579" y="75"/>
      <point x="650" y="296" type="curve" smooth="yes"/>
      <point x="1034" y="1485" type="line" smooth="yes"/>
      <point x="1041" y="1506"/>
      <point x="1025" y="1515"/>
      <point x="995" y="1515" type="curve" smooth="yes"/>
      <point x="965" y="1515"/>
      <point x="959" y="1509"/>
      <point x="944" y="1495" type="curve" smooth="yes"/>
      <point x="915" y="1469"/>
      <point x="880" y="1444"/>
      <point x="828" y="1444" type="curve" smooth="yes"/>
      <point x="760" y="1444"/>
      <point x="701" y="1484"/>
      <point x="615" y="1484" type="curve" smooth="yes"/>
      <point x="500" y="1484"/>
      <point x="426" y="1404"/>
      <point x="394" y="1279" type="curve" smooth="yes"/>
      <point x="389" y="1259"/>
      <point x="396" y="1241"/>
      <point x="433" y="1241" type="curve" smooth="yes"/>
      <point x="459" y="1241"/>
      <point x="473" y="1250"/>
      <point x="481" y="1278" type="curve" smooth="yes"/>
      <point x="508" y="1361"/>
      <point x="555" y="1400"/>
      <point x="610" y="1400" type="curve" smooth="yes"/>
      <point x="669" y="1400"/>
      <point x="729" y="1360"/>
      <point x="815" y="1360" type="curve" smooth="yes"/>
      <point x="855" y="1360"/>
      <point x="891" y="1371"/>
      <point x="913" y="1390" type="curve"/>
      <point x="565" y="315" type="line" smooth="yes"/>
      <point x="509" y="140"/>
      <point x="440" y="66"/>
      <point x="325" y="66" type="curve" smooth="yes"/>
      <point x="249" y="66"/>
      <point x="186" y="103"/>
      <point x="130" y="181" type="curve" smooth="yes"/>
      <point x="119" y="196"/>
      <point x="104" y="198"/>
      <point x="83" y="184" type="curve" smooth="yes"/>
      <point x="59" y="169"/>
      <point x="51" y="151"/>
      <point x="61" y="135" type="curve" smooth="yes"/>
      <point x="120" y="33"/>
      <point x="210" y="-19"/>
    </contour>
  </outline>
</glyph>
<glyph name="IJ.cur" format="2">
  <advance width="1200"/>
  <anchor x="411" y="0" name="bottom"/>
  <anchor x="976" y="1424" name="top"/>
  <outline>
    <contour>
      <point x="314" y="-1020" type="curve" smooth="yes"/>
      <point x="475" y="-1020"/>
      <point x="623" y="-886"/>
      <point x="709" y="-620" type="curve" smooth="yes"/>
      <point x="1393" y="1485" type="line" smooth="yes"/>
      <point x="1400" y="1506"/>
      <point x="1384" y="1515"/>
      <point x="1354" y="1515" type="curve" smooth="yes"/>
      <point x="1324" y="1515"/>
      <point x="1309" y="1506"/>
      <point x="1303" y="1488" type="curve" smooth="yes"/>
      <point x="983" y="501" type="line"/>
      <point x="878" y="296"/>
      <point x="716" y="173"/>
      <point x="534" y="173" type="curve" smooth="yes"/>
      <point x="368" y="173"/>
      <point x="296" y="278"/>
      <point x="386" y="546" type="curve" smooth="yes"/>
      <point x="699" y="1485" type="line" smooth="yes"/>
      <point x="706" y="1506"/>
      <point x="690" y="1515"/>
      <point x="660" y="1515" type="curve" smooth="yes"/>
      <point x="630" y="1515"/>
      <point x="615" y="1506"/>
      <point x="609" y="1488" type="curve" smooth="yes"/>
      <point x="294" y="544" type="line" smooth="yes"/>
      <point x="193" y="239"/>
      <point x="308" y="88"/>
      <point x="523" y="88" type="curve" smooth="yes"/>
      <point x="669" y="88"/>
      <point x="810" y="166"/>
      <point x="916" y="296" type="curve"/>
      <point x="625" y="-600" type="line" smooth="yes"/>
      <point x="553" y="-822"/>
      <point x="439" y="-935"/>
      <point x="325" y="-935" type="curve" smooth="yes"/>
      <point x="263" y="-935"/>
      <point x="224" y="-897"/>
      <point x="224" y="-836" type="curve" smooth="yes"/>
      <point x="224" y="-660"/>
      <point x="403" y="-460"/>
      <point x="755" y="-245" type="curve" smooth="yes"/>
      <point x="866" y="-175"/>
      <point x="991" y="-101"/>
      <point x="1136" y="-25" type="curve" smooth="yes"/>
      <point x="1159" y="-12"/>
      <point x="1171" y="3"/>
      <point x="1156" y="31" type="curve" smooth="yes"/>
      <point x="1143" y="58"/>
      <point x="1123" y="60"/>
      <point x="1105" y="50" type="curve" smooth="yes"/>
      <point x="991" y="-11"/>
      <point x="886" y="-70"/>
      <point x="793" y="-129" type="curve" smooth="yes"/>
      <point x="355" y="-384"/>
      <point x="133" y="-624"/>
      <point x="133" y="-840" type="curve" smooth="yes"/>
      <point x="133" y="-951"/>
      <point x="206" y="-1020"/>
    </contour>
  </outline>
</glyph>
<glyph name="J.cur" format="2">
  <advance width="1184"/>
  <anchor x="213" y="-1000" name="bottom"/>
  <anchor x="898" y="1424" name="top"/>
  <outline>
    <contour>
      <point x="223" y="-1020" type="curve" smooth="yes"/>
      <point x="384" y="-1020"/>
      <point x="509" y="-885"/>
      <point x="596" y="-620" type="curve" smooth="yes"/>
      <point x="735" y="-196" type="line"/>
      <point x="825" y="-141"/>
      <point x="926" y="-84"/>
      <point x="1036" y="-26" type="curve" smooth="yes"/>
      <point x="1059" y="-14"/>
      <point x="1070" y="3"/>
      <point x="1055" y="31" type="curve" smooth="yes"/>
      <point x="1041" y="58"/>
      <point x="1021" y="60"/>
      <point x="1004" y="50" type="curve" smooth="yes"/>
      <point x="922" y="6"/>
      <point x="845" y="-37"/>
      <point x="774" y="-79" type="curve"/>
      <point x="1143" y="1044" type="line" smooth="yes"/>
      <point x="1243" y="1348"/>
      <point x="1173" y="1515"/>
      <point x="939" y="1515" type="curve" smooth="yes"/>
      <point x="624" y="1515"/>
      <point x="353" y="1145"/>
      <point x="353" y="751" type="curve" smooth="yes"/>
      <point x="353" y="525"/>
      <point x="413" y="371"/>
      <point x="556" y="230" type="curve" smooth="yes"/>
      <point x="575" y="213"/>
      <point x="593" y="213"/>
      <point x="615" y="238" type="curve" smooth="yes"/>
      <point x="636" y="261"/>
      <point x="633" y="280"/>
      <point x="618" y="295" type="curve" smooth="yes"/>
      <point x="495" y="420"/>
      <point x="444" y="555"/>
      <point x="444" y="750" type="curve" smooth="yes"/>
      <point x="444" y="1095"/>
      <point x="673" y="1430"/>
      <point x="928" y="1430" type="curve" smooth="yes"/>
      <point x="1105" y="1430"/>
      <point x="1139" y="1310"/>
      <point x="1060" y="1069" type="curve" smooth="yes"/>
      <point x="661" y="-148" type="line"/>
      <point x="250" y="-407"/>
      <point x="41" y="-640"/>
      <point x="41" y="-840" type="curve" smooth="yes"/>
      <point x="41" y="-951"/>
      <point x="115" y="-1020"/>
    </contour>
    <contour>
      <point x="234" y="-935" type="curve" smooth="yes"/>
      <point x="171" y="-935"/>
      <point x="133" y="-897"/>
      <point x="133" y="-836" type="curve" smooth="yes"/>
      <point x="133" y="-674"/>
      <point x="297" y="-484"/>
      <point x="622" y="-269" type="curve"/>
      <point x="513" y="-600" type="line" smooth="yes"/>
      <point x="440" y="-821"/>
      <point x="348" y="-935"/>
    </contour>
  </outline>
</glyph>
<glyph name="J.cur.ini" format="2">
  <advance width="1020"/>
  <anchor x="213" y="-1000" name="bottom"/>
  <anchor x="939" y="0" name="cnct"/>
  <anchor x="898" y="1424" name="top"/>
  <outline>
    <contour>
      <point x="228" y="-1020" type="curve" smooth="yes"/>
      <point x="389" y="-1020"/>
      <point x="515" y="-885"/>
      <point x="601" y="-620" type="curve" smooth="yes"/>
      <point x="1143" y="1044" type="line" smooth="yes"/>
      <point x="1241" y="1349"/>
      <point x="1173" y="1515"/>
      <point x="939" y="1515" type="curve" smooth="yes"/>
      <point x="624" y="1515"/>
      <point x="353" y="1145"/>
      <point x="353" y="751" type="curve" smooth="yes"/>
      <point x="353" y="525"/>
      <point x="413" y="371"/>
      <point x="556" y="230" type="curve" smooth="yes"/>
      <point x="575" y="213"/>
      <point x="593" y="213"/>
      <point x="615" y="238" type="curve" smooth="yes"/>
      <point x="636" y="261"/>
      <point x="633" y="280"/>
      <point x="618" y="295" type="curve" smooth="yes"/>
      <point x="495" y="420"/>
      <point x="444" y="555"/>
      <point x="444" y="750" type="curve" smooth="yes"/>
      <point x="444" y="1095"/>
      <point x="673" y="1430"/>
      <point x="928" y="1430" type="curve" smooth="yes"/>
      <point x="1105" y="1430"/>
      <point x="1139" y="1311"/>
      <point x="1060" y="1069" type="curve" smooth="yes"/>
      <point x="518" y="-600" type="line" smooth="yes"/>
      <point x="445" y="-821"/>
      <point x="353" y="-935"/>
      <point x="239" y="-935" type="curve" smooth="yes"/>
      <point x="176" y="-935"/>
      <point x="138" y="-897"/>
      <point x="138" y="-836" type="curve" smooth="yes"/>
      <point x="138" y="-786"/>
      <point x="46" y="-790"/>
      <point x="46" y="-840" type="curve" smooth="yes"/>
      <point x="46" y="-951"/>
      <point x="120" y="-1020"/>
    </contour>
  </outline>
</glyph>
<glyph name="J.dec" format="2">
  <advance width="808"/>
  <anchor x="-75" y="-1000" name="bottom"/>
  <anchor x="808" y="1424" name="top"/>
  <outline>
    <contour>
      <point x="-66" y="-1020" type="curve" smooth="yes"/>
      <point x="95" y="-1020"/>
      <point x="220" y="-886"/>
      <point x="308" y="-620" type="curve" smooth="yes"/>
      <point x="995" y="1485" type="line" smooth="yes"/>
      <point x="1003" y="1506"/>
      <point x="986" y="1515"/>
      <point x="956" y="1515" type="curve" smooth="yes"/>
      <point x="926" y="1515"/>
      <point x="920" y="1509"/>
      <point x="905" y="1495" type="curve" smooth="yes"/>
      <point x="876" y="1469"/>
      <point x="841" y="1444"/>
      <point x="789" y="1444" type="curve" smooth="yes"/>
      <point x="721" y="1444"/>
      <point x="663" y="1484"/>
      <point x="576" y="1484" type="curve" smooth="yes"/>
      <point x="461" y="1484"/>
      <point x="388" y="1404"/>
      <point x="355" y="1279" type="curve" smooth="yes"/>
      <point x="350" y="1259"/>
      <point x="358" y="1241"/>
      <point x="394" y="1241" type="curve" smooth="yes"/>
      <point x="420" y="1241"/>
      <point x="434" y="1250"/>
      <point x="443" y="1278" type="curve" smooth="yes"/>
      <point x="469" y="1361"/>
      <point x="516" y="1400"/>
      <point x="571" y="1400" type="curve" smooth="yes"/>
      <point x="630" y="1400"/>
      <point x="690" y="1360"/>
      <point x="776" y="1360" type="curve" smooth="yes"/>
      <point x="816" y="1360"/>
      <point x="853" y="1371"/>
      <point x="874" y="1390" type="curve"/>
      <point x="224" y="-600" type="line" smooth="yes"/>
      <point x="150" y="-824"/>
      <point x="59" y="-935"/>
      <point x="-55" y="-935" type="curve" smooth="yes"/>
      <point x="-117" y="-935"/>
      <point x="-156" y="-897"/>
      <point x="-156" y="-836" type="curve" smooth="yes"/>
      <point x="-156" y="-660"/>
      <point x="23" y="-460"/>
      <point x="375" y="-245" type="curve" smooth="yes"/>
      <point x="486" y="-175"/>
      <point x="611" y="-101"/>
      <point x="756" y="-25" type="curve" smooth="yes"/>
      <point x="779" y="-12"/>
      <point x="791" y="3"/>
      <point x="776" y="31" type="curve" smooth="yes"/>
      <point x="763" y="58"/>
      <point x="743" y="60"/>
      <point x="725" y="50" type="curve" smooth="yes"/>
      <point x="611" y="-11"/>
      <point x="506" y="-70"/>
      <point x="413" y="-129" type="curve" smooth="yes"/>
      <point x="-25" y="-384"/>
      <point x="-247" y="-624"/>
      <point x="-247" y="-840" type="curve" smooth="yes"/>
      <point x="-247" y="-951"/>
      <point x="-174" y="-1020"/>
    </contour>
  </outline>
</glyph>
<glyph name="J.dec.ini" format="2">
  <advance width="730"/>
  <anchor x="-75" y="-1000" name="bottom"/>
  <anchor x="649" y="0" name="cnct"/>
  <anchor x="783" y="1424" name="top"/>
  <outline>
    <contour>
      <point x="-62" y="-1020" type="curve" smooth="yes"/>
      <point x="99" y="-1020"/>
      <point x="225" y="-885"/>
      <point x="311" y="-620" type="curve" smooth="yes"/>
      <point x="995" y="1485" type="line" smooth="yes"/>
      <point x="1001" y="1506"/>
      <point x="986" y="1515"/>
      <point x="956" y="1515" type="curve" smooth="yes"/>
      <point x="926" y="1515"/>
      <point x="920" y="1509"/>
      <point x="905" y="1495" type="curve" smooth="yes"/>
      <point x="876" y="1469"/>
      <point x="841" y="1444"/>
      <point x="789" y="1444" type="curve" smooth="yes"/>
      <point x="721" y="1444"/>
      <point x="663" y="1484"/>
      <point x="576" y="1484" type="curve" smooth="yes"/>
      <point x="461" y="1484"/>
      <point x="388" y="1404"/>
      <point x="355" y="1279" type="curve" smooth="yes"/>
      <point x="350" y="1259"/>
      <point x="358" y="1241"/>
      <point x="394" y="1241" type="curve" smooth="yes"/>
      <point x="420" y="1241"/>
      <point x="434" y="1250"/>
      <point x="443" y="1278" type="curve" smooth="yes"/>
      <point x="469" y="1361"/>
      <point x="516" y="1400"/>
      <point x="571" y="1400" type="curve" smooth="yes"/>
      <point x="630" y="1400"/>
      <point x="690" y="1360"/>
      <point x="776" y="1360" type="curve" smooth="yes"/>
      <point x="816" y="1360"/>
      <point x="853" y="1371"/>
      <point x="874" y="1390" type="curve"/>
      <point x="228" y="-600" type="line" smooth="yes"/>
      <point x="156" y="-820"/>
      <point x="63" y="-935"/>
      <point x="-51" y="-935" type="curve" smooth="yes"/>
      <point x="-114" y="-935"/>
      <point x="-152" y="-897"/>
      <point x="-152" y="-836" type="curve" smooth="yes"/>
      <point x="-152" y="-786"/>
      <point x="-244" y="-790"/>
      <point x="-244" y="-840" type="curve" smooth="yes"/>
      <point x="-244" y="-951"/>
      <point x="-170" y="-1020"/>
    </contour>
  </outline>
</glyph>
<glyph name="L.cur.ini" format="2">
  <advance width="1136"/>
  <anchor x="1038" y="764" name="CAT"/>
  <anchor x="598" y="0" name="bottom"/>
  <anchor x="570" y="765" name="center"/>
  <anchor x="1055" y="0" name="cnct"/>
  <anchor x="1006" y="1424" name="top"/>
  <anchor x="1338" y="1488" name="topright"/>
  <outline>
    <contour>
      <point x="160" y="-21" type="curve" smooth="yes"/>
      <point x="300" y="-21"/>
      <point x="390" y="71"/>
      <point x="460" y="289" type="curve" smooth="yes"/>
      <point x="726" y="1110" type="line" smooth="yes"/>
      <point x="800" y="1338"/>
      <point x="894" y="1435"/>
      <point x="1040" y="1435" type="curve" smooth="yes"/>
      <point x="1151" y="1435"/>
      <point x="1210" y="1370"/>
      <point x="1209" y="1246" type="curve" smooth="yes"/>
      <point x="1209" y="1218"/>
      <point x="1221" y="1205"/>
      <point x="1249" y="1209" type="curve" smooth="yes"/>
      <point x="1280" y="1213"/>
      <point x="1289" y="1225"/>
      <point x="1289" y="1264" type="curve" smooth="yes"/>
      <point x="1289" y="1421"/>
      <point x="1201" y="1515"/>
      <point x="1054" y="1515" type="curve" smooth="yes"/>
      <point x="853" y="1515"/>
      <point x="731" y="1399"/>
      <point x="643" y="1124" type="curve" smooth="yes"/>
      <point x="379" y="311" type="line" smooth="yes"/>
      <point x="321" y="134"/>
      <point x="263" y="59"/>
      <point x="170" y="59" type="curve" smooth="yes"/>
      <point x="128" y="59"/>
      <point x="101" y="86"/>
      <point x="101" y="123" type="curve" smooth="yes"/>
      <point x="101" y="171"/>
      <point x="141" y="204"/>
      <point x="203" y="204" type="curve" smooth="yes"/>
      <point x="453" y="204"/>
      <point x="731" y="-17"/>
      <point x="999" y="-17" type="curve" smooth="yes"/>
      <point x="1049" y="-17"/>
      <point x="1074" y="58"/>
      <point x="1024" y="58" type="curve" smooth="yes"/>
      <point x="776" y="58"/>
      <point x="466" y="289"/>
      <point x="211" y="289" type="curve" smooth="yes"/>
      <point x="94" y="289"/>
      <point x="9" y="215"/>
      <point x="9" y="114" type="curve" smooth="yes"/>
      <point x="9" y="34"/>
      <point x="69" y="-21"/>
    </contour>
  </outline>
</glyph>
<glyph name="L.dec.ini" format="2">
  <advance width="1165"/>
  <anchor x="1075" y="705" name="CAT"/>
  <anchor x="628" y="0" name="bottom"/>
  <anchor x="565" y="650" name="center"/>
  <anchor x="1084" y="0" name="cnct"/>
  <anchor x="1036" y="1424" name="top"/>
  <anchor x="1388" y="1488" name="topright"/>
  <outline>
    <contour>
      <point x="189" y="-21" type="curve" smooth="yes"/>
      <point x="329" y="-21"/>
      <point x="418" y="71"/>
      <point x="489" y="289" type="curve" smooth="yes"/>
      <point x="709" y="964" type="line" smooth="yes"/>
      <point x="804" y="1256"/>
      <point x="925" y="1431"/>
      <point x="1090" y="1431" type="curve" smooth="yes"/>
      <point x="1184" y="1431"/>
      <point x="1243" y="1379"/>
      <point x="1243" y="1289" type="curve" smooth="yes"/>
      <point x="1243" y="1131"/>
      <point x="1093" y="1035"/>
      <point x="918" y="1035" type="curve" smooth="yes"/>
      <point x="719" y="1035"/>
      <point x="564" y="1096"/>
      <point x="443" y="1216" type="curve" smooth="yes"/>
      <point x="424" y="1235"/>
      <point x="404" y="1234"/>
      <point x="385" y="1211" type="curve" smooth="yes"/>
      <point x="368" y="1190"/>
      <point x="370" y="1170"/>
      <point x="390" y="1153" type="curve" smooth="yes"/>
      <point x="525" y="1031"/>
      <point x="693" y="953"/>
      <point x="905" y="953" type="curve" smooth="yes"/>
      <point x="1153" y="953"/>
      <point x="1334" y="1096"/>
      <point x="1334" y="1294" type="curve" smooth="yes"/>
      <point x="1334" y="1425"/>
      <point x="1239" y="1515"/>
      <point x="1101" y="1515" type="curve" smooth="yes"/>
      <point x="886" y="1515"/>
      <point x="736" y="1319"/>
      <point x="628" y="986" type="curve" smooth="yes"/>
      <point x="408" y="311" type="line" smooth="yes"/>
      <point x="350" y="134"/>
      <point x="291" y="59"/>
      <point x="199" y="59" type="curve" smooth="yes"/>
      <point x="156" y="59"/>
      <point x="130" y="86"/>
      <point x="130" y="123" type="curve" smooth="yes"/>
      <point x="130" y="171"/>
      <point x="170" y="204"/>
      <point x="231" y="204" type="curve" smooth="yes"/>
      <point x="481" y="204"/>
      <point x="760" y="-17"/>
      <point x="1028" y="-17" type="curve" smooth="yes"/>
      <point x="1078" y="-17"/>
      <point x="1103" y="58"/>
      <point x="1053" y="58" type="curve" smooth="yes"/>
      <point x="805" y="58"/>
      <point x="495" y="289"/>
      <point x="240" y="289" type="curve" smooth="yes"/>
      <point x="123" y="289"/>
      <point x="38" y="215"/>
      <point x="38" y="114" type="curve" smooth="yes"/>
      <point x="38" y="34"/>
      <point x="98" y="-21"/>
    </contour>
  </outline>
</glyph>
<glyph name="M.cur" format="2">
  <advance width="2018"/>
  <anchor x="929" y="0" name="bottom"/>
  <anchor x="1390" y="1424" name="top"/>
  <outline>
    <contour>
      <point x="1748" y="-19" type="curve" smooth="yes"/>
      <point x="1829" y="-19"/>
      <point x="1908" y="48"/>
      <point x="1971" y="175" type="curve" smooth="yes"/>
      <point x="1984" y="201"/>
      <point x="1980" y="215"/>
      <point x="1953" y="229" type="curve" smooth="yes"/>
      <point x="1928" y="241"/>
      <point x="1914" y="234"/>
      <point x="1900" y="208" type="curve" smooth="yes"/>
      <point x="1851" y="116"/>
      <point x="1805" y="64"/>
      <point x="1750" y="64" type="curve" smooth="yes"/>
      <point x="1671" y="64"/>
      <point x="1655" y="129"/>
      <point x="1708" y="285" type="curve" smooth="yes"/>
      <point x="1980" y="1095" type="line" smooth="yes"/>
      <point x="2064" y="1343"/>
      <point x="1976" y="1515"/>
      <point x="1791" y="1515" type="curve" smooth="yes"/>
      <point x="1652" y="1515"/>
      <point x="1490" y="1409"/>
      <point x="1384" y="1253" type="curve"/>
      <point x="1385" y="1277"/>
      <point x="1384" y="1299"/>
      <point x="1381" y="1320" type="curve" smooth="yes"/>
      <point x="1364" y="1441"/>
      <point x="1286" y="1515"/>
      <point x="1165" y="1515" type="curve" smooth="yes"/>
      <point x="1036" y="1515"/>
      <point x="888" y="1424"/>
      <point x="782" y="1286" type="curve"/>
      <point x="786" y="1308"/>
      <point x="787" y="1329"/>
      <point x="787" y="1348" type="curve" smooth="yes"/>
      <point x="787" y="1458"/>
      <point x="730" y="1520"/>
      <point x="626" y="1520" type="curve" smooth="yes"/>
      <point x="523" y="1520"/>
      <point x="410" y="1450"/>
      <point x="329" y="1334" type="curve" smooth="yes"/>
      <point x="316" y="1315"/>
      <point x="316" y="1296"/>
      <point x="335" y="1281" type="curve" smooth="yes"/>
      <point x="354" y="1264"/>
      <point x="376" y="1264"/>
      <point x="390" y="1283" type="curve" smooth="yes"/>
      <point x="458" y="1379"/>
      <point x="544" y="1436"/>
      <point x="615" y="1436" type="curve" smooth="yes"/>
      <point x="699" y="1436"/>
      <point x="725" y="1361"/>
      <point x="685" y="1239" type="curve" smooth="yes"/>
      <point x="288" y="16" type="line" smooth="yes"/>
      <point x="280" y="-5"/>
      <point x="296" y="-14"/>
      <point x="326" y="-14" type="curve" smooth="yes"/>
      <point x="356" y="-14"/>
      <point x="371" y="-5"/>
      <point x="378" y="14" type="curve" smooth="yes"/>
      <point x="720" y="1073" type="line"/>
      <point x="819" y="1290"/>
      <point x="994" y="1431"/>
      <point x="1140" y="1431" type="curve" smooth="yes"/>
      <point x="1280" y="1431"/>
      <point x="1334" y="1309"/>
      <point x="1266" y="1100" type="curve" smooth="yes"/>
      <point x="914" y="16" type="line" smooth="yes"/>
      <point x="906" y="-5"/>
      <point x="923" y="-14"/>
      <point x="953" y="-14" type="curve" smooth="yes"/>
      <point x="983" y="-14"/>
      <point x="998" y="-5"/>
      <point x="1004" y="14" type="curve" smooth="yes"/>
      <point x="1348" y="1077" type="line"/>
      <point x="1448" y="1292"/>
      <point x="1621" y="1431"/>
      <point x="1766" y="1431" type="curve" smooth="yes"/>
      <point x="1906" y="1431"/>
      <point x="1963" y="1309"/>
      <point x="1893" y="1100" type="curve" smooth="yes"/>
      <point x="1621" y="295" type="line" smooth="yes"/>
      <point x="1554" y="94"/>
      <point x="1600" y="-19"/>
    </contour>
  </outline>
</glyph>
<glyph name="M.dec.ini" format="2">
  <advance width="1953"/>
  <anchor x="1058" y="0" name="bottom"/>
  <anchor x="1871" y="0" name="cnct"/>
  <anchor x="1496" y="1424" name="top"/>
  <outline>
    <contour>
      <point x="263" y="-17" type="curve" smooth="yes"/>
      <point x="479" y="-17"/>
      <point x="674" y="313"/>
      <point x="1105" y="1261" type="curve"/>
      <point x="1051" y="879"/>
      <point x="1024" y="498"/>
      <point x="1009" y="35" type="curve" smooth="yes"/>
      <point x="1008" y="1"/>
      <point x="1015" y="-17"/>
      <point x="1054" y="-17" type="curve" smooth="yes"/>
      <point x="1085" y="-17"/>
      <point x="1104" y="-2"/>
      <point x="1124" y="30" type="curve" smooth="yes"/>
      <point x="1868" y="1283" type="line"/>
      <point x="1614" y="264"/>
      <point x="1606" y="-17"/>
      <point x="1814" y="-17" type="curve" smooth="yes"/>
      <point x="1864" y="-17"/>
      <point x="1890" y="58"/>
      <point x="1840" y="58" type="curve" smooth="yes"/>
      <point x="1686" y="58"/>
      <point x="1720" y="358"/>
      <point x="1999" y="1466" type="curve" smooth="yes"/>
      <point x="2006" y="1495"/>
      <point x="1989" y="1509"/>
      <point x="1954" y="1509" type="curve" smooth="yes"/>
      <point x="1921" y="1509"/>
      <point x="1900" y="1495"/>
      <point x="1884" y="1468" type="curve" smooth="yes"/>
      <point x="1099" y="146" type="line"/>
      <point x="1118" y="599"/>
      <point x="1149" y="1030"/>
      <point x="1225" y="1465" type="curve" smooth="yes"/>
      <point x="1230" y="1494"/>
      <point x="1213" y="1509"/>
      <point x="1173" y="1509" type="curve" smooth="yes"/>
      <point x="1143" y="1509"/>
      <point x="1121" y="1496"/>
      <point x="1110" y="1471" type="curve" smooth="yes"/>
      <point x="635" y="421"/>
      <point x="424" y="63"/>
      <point x="273" y="63" type="curve" smooth="yes"/>
      <point x="223" y="63"/>
      <point x="189" y="90"/>
      <point x="189" y="155" type="curve" smooth="yes"/>
      <point x="189" y="225"/>
      <point x="233" y="333"/>
      <point x="305" y="420" type="curve" smooth="yes"/>
      <point x="323" y="441"/>
      <point x="320" y="460"/>
      <point x="299" y="476" type="curve" smooth="yes"/>
      <point x="279" y="493"/>
      <point x="259" y="490"/>
      <point x="241" y="470" type="curve" smooth="yes"/>
      <point x="153" y="369"/>
      <point x="99" y="241"/>
      <point x="99" y="151" type="curve" smooth="yes"/>
      <point x="99" y="39"/>
      <point x="165" y="-17"/>
    </contour>
  </outline>
</glyph>
<glyph name="M_locl.au" format="2">
  <advance width="1627"/>
  <anchor x="751" y="0" name="bottom"/>
  <anchor x="1178" y="1424" name="top"/>
  <outline>
    <contour>
      <point x="180" y="-14" type="curve" smooth="yes"/>
      <point x="210" y="-14"/>
      <point x="224" y="-5"/>
      <point x="230" y="14" type="curve" smooth="yes"/>
      <point x="635" y="1269" type="line"/>
      <point x="695" y="25" type="line" smooth="yes"/>
      <point x="696" y="3"/>
      <point x="715" y="0"/>
      <point x="741" y="0" type="curve" smooth="yes"/>
      <point x="766" y="0"/>
      <point x="776" y="4"/>
      <point x="789" y="21" type="curve" smooth="yes"/>
      <point x="1645" y="1259" type="line"/>
      <point x="1248" y="16" type="line" smooth="yes"/>
      <point x="1241" y="-5"/>
      <point x="1255" y="-14"/>
      <point x="1285" y="-14" type="curve" smooth="yes"/>
      <point x="1315" y="-14"/>
      <point x="1328" y="-5"/>
      <point x="1334" y="14" type="curve" smooth="yes"/>
      <point x="1805" y="1485" type="line" smooth="yes"/>
      <point x="1811" y="1506"/>
      <point x="1796" y="1515"/>
      <point x="1766" y="1515" type="curve" smooth="yes"/>
      <point x="1735" y="1515"/>
      <point x="1723" y="1509"/>
      <point x="1708" y="1488" type="curve" smooth="yes"/>
      <point x="774" y="141" type="line"/>
      <point x="709" y="1488" type="line" smooth="yes"/>
      <point x="708" y="1504"/>
      <point x="695" y="1515"/>
      <point x="669" y="1515" type="curve" smooth="yes"/>
      <point x="639" y="1515"/>
      <point x="624" y="1506"/>
      <point x="618" y="1488" type="curve" smooth="yes"/>
      <point x="144" y="16" type="line" smooth="yes"/>
      <point x="138" y="-5"/>
      <point x="150" y="-14"/>
    </contour>
  </outline>
</glyph>
<glyph name="O.cur" format="2">
  <advance width="1440"/>
  <anchor x="635" y="0" name="bottom"/>
  <anchor x="878" y="744" name="center"/>
  <anchor x="1215" y="21" name="ogonek"/>
  <anchor x="1063" y="1424" name="top"/>
  <anchor x="1233" y="1488" name="topright"/>
  <outline>
    <contour>
      <point x="713" y="-19" type="curve" smooth="yes"/>
      <point x="1161" y="-19"/>
      <point x="1519" y="484"/>
      <point x="1519" y="1015" type="curve" smooth="yes"/>
      <point x="1519" y="1329"/>
      <point x="1391" y="1515"/>
      <point x="1175" y="1515" type="curve" smooth="yes"/>
      <point x="1005" y="1515"/>
      <point x="858" y="1404"/>
      <point x="731" y="1193" type="curve" smooth="yes"/>
      <point x="719" y="1171"/>
      <point x="721" y="1155"/>
      <point x="741" y="1141" type="curve" smooth="yes"/>
      <point x="768" y="1124"/>
      <point x="785" y="1126"/>
      <point x="798" y="1148" type="curve" smooth="yes"/>
      <point x="906" y="1334"/>
      <point x="1031" y="1433"/>
      <point x="1171" y="1433" type="curve" smooth="yes"/>
      <point x="1331" y="1433"/>
      <point x="1425" y="1278"/>
      <point x="1425" y="1015" type="curve" smooth="yes"/>
      <point x="1425" y="534"/>
      <point x="1105" y="66"/>
      <point x="714" y="66" type="curve" smooth="yes"/>
      <point x="483" y="66"/>
      <point x="341" y="225"/>
      <point x="341" y="493" type="curve" smooth="yes"/>
      <point x="341" y="851"/>
      <point x="495" y="1166"/>
      <point x="754" y="1343" type="curve" smooth="yes"/>
      <point x="784" y="1363"/>
      <point x="791" y="1381"/>
      <point x="775" y="1404" type="curve" smooth="yes"/>
      <point x="759" y="1428"/>
      <point x="740" y="1430"/>
      <point x="713" y="1411" type="curve" smooth="yes"/>
      <point x="431" y="1229"/>
      <point x="248" y="865"/>
      <point x="248" y="493" type="curve" smooth="yes"/>
      <point x="248" y="171"/>
      <point x="418" y="-19"/>
    </contour>
  </outline>
</glyph>
<glyph name="O.dec" format="2">
  <advance width="1531"/>
  <anchor x="635" y="0" name="bottom"/>
  <anchor x="878" y="744" name="center"/>
  <anchor x="1215" y="21" name="ogonek"/>
  <anchor x="1063" y="1424" name="top"/>
  <anchor x="1282" y="1478" name="topright"/>
  <outline>
    <contour>
      <point x="1098" y="1515" type="curve" smooth="yes"/>
      <point x="879" y="1515"/>
      <point x="644" y="1301"/>
      <point x="644" y="1076" type="curve" smooth="yes"/>
      <point x="644" y="883"/>
      <point x="760" y="765"/>
      <point x="986" y="765" type="curve" smooth="yes"/>
      <point x="1186" y="765"/>
      <point x="1428" y="834"/>
      <point x="1749" y="1006" type="curve" smooth="yes"/>
      <point x="1773" y="1019"/>
      <point x="1778" y="1035"/>
      <point x="1765" y="1063" type="curve" smooth="yes"/>
      <point x="1754" y="1086"/>
      <point x="1738" y="1094"/>
      <point x="1714" y="1081" type="curve" smooth="yes"/>
      <point x="1415" y="919"/>
      <point x="1179" y="850"/>
      <point x="989" y="850" type="curve" smooth="yes"/>
      <point x="811" y="850"/>
      <point x="738" y="943"/>
      <point x="738" y="1083" type="curve" smooth="yes"/>
      <point x="738" y="1276"/>
      <point x="891" y="1430"/>
      <point x="1085" y="1430" type="curve" smooth="yes"/>
      <point x="1303" y="1430"/>
      <point x="1415" y="1283"/>
      <point x="1415" y="1033" type="curve" smooth="yes"/>
      <point x="1415" y="618"/>
      <point x="1134" y="61"/>
      <point x="701" y="61" type="curve" smooth="yes"/>
      <point x="478" y="61"/>
      <point x="341" y="210"/>
      <point x="341" y="470" type="curve" smooth="yes"/>
      <point x="341" y="848"/>
      <point x="578" y="1343"/>
      <point x="979" y="1429" type="curve" smooth="yes"/>
      <point x="1008" y="1435"/>
      <point x="1019" y="1454"/>
      <point x="1011" y="1484" type="curve" smooth="yes"/>
      <point x="1006" y="1505"/>
      <point x="990" y="1513"/>
      <point x="961" y="1506" type="curve" smooth="yes"/>
      <point x="509" y="1411"/>
      <point x="248" y="885"/>
      <point x="248" y="470" type="curve" smooth="yes"/>
      <point x="248" y="156"/>
      <point x="418" y="-24"/>
      <point x="695" y="-24" type="curve" smooth="yes"/>
      <point x="1198" y="-24"/>
      <point x="1509" y="579"/>
      <point x="1509" y="1031" type="curve" smooth="yes"/>
      <point x="1509" y="1329"/>
      <point x="1368" y="1515"/>
    </contour>
  </outline>
</glyph>
<glyph name="OE.cur.ini" format="2">
  <advance width="2015"/>
  <anchor x="1934" y="0" name="cnct"/>
  <anchor x="1451" y="1424" name="top"/>
  <outline>
    <contour>
      <point x="636" y="-19" type="curve" smooth="yes"/>
      <point x="1059" y="-19"/>
      <point x="1443" y="568"/>
      <point x="1443" y="1104" type="curve" smooth="yes"/>
      <point x="1443" y="1361"/>
      <point x="1334" y="1515"/>
      <point x="1150" y="1515" type="curve" smooth="yes"/>
      <point x="990" y="1515"/>
      <point x="855" y="1400"/>
      <point x="731" y="1193" type="curve" smooth="yes"/>
      <point x="719" y="1171"/>
      <point x="721" y="1155"/>
      <point x="741" y="1141" type="curve" smooth="yes"/>
      <point x="768" y="1124"/>
      <point x="785" y="1126"/>
      <point x="798" y="1148" type="curve" smooth="yes"/>
      <point x="905" y="1330"/>
      <point x="1015" y="1433"/>
      <point x="1146" y="1433" type="curve" smooth="yes"/>
      <point x="1274" y="1433"/>
      <point x="1349" y="1310"/>
      <point x="1349" y="1104" type="curve" smooth="yes"/>
      <point x="1349" y="619"/>
      <point x="1003" y="66"/>
      <point x="638" y="66" type="curve" smooth="yes"/>
      <point x="454" y="66"/>
      <point x="341" y="225"/>
      <point x="341" y="493" type="curve" smooth="yes"/>
      <point x="341" y="851"/>
      <point x="495" y="1166"/>
      <point x="754" y="1343" type="curve" smooth="yes"/>
      <point x="784" y="1363"/>
      <point x="791" y="1381"/>
      <point x="775" y="1404" type="curve" smooth="yes"/>
      <point x="759" y="1428"/>
      <point x="740" y="1430"/>
      <point x="713" y="1411" type="curve" smooth="yes"/>
      <point x="431" y="1229"/>
      <point x="248" y="865"/>
      <point x="248" y="493" type="curve" smooth="yes"/>
      <point x="248" y="171"/>
      <point x="390" y="-19"/>
    </contour>
    <contour>
      <point x="1543" y="-17" type="curve" smooth="yes"/>
      <point x="1583" y="-17"/>
      <point x="1593" y="60"/>
      <point x="1553" y="60" type="curve" smooth="yes"/>
      <point x="1373" y="60"/>
      <point x="1261" y="155"/>
      <point x="1261" y="314" type="curve" smooth="yes"/>
      <point x="1261" y="540"/>
      <point x="1481" y="746"/>
      <point x="1786" y="746" type="curve" smooth="yes"/>
      <point x="1958" y="746" type="line" smooth="yes"/>
      <point x="1973" y="746"/>
      <point x="1986" y="759"/>
      <point x="1994" y="786" type="curve" smooth="yes"/>
      <point x="2001" y="814"/>
      <point x="1995" y="826"/>
      <point x="1980" y="826" type="curve" smooth="yes"/>
      <point x="1801" y="826" type="line" smooth="yes"/>
      <point x="1654" y="826"/>
      <point x="1575" y="894"/>
      <point x="1575" y="1055" type="curve" smooth="yes"/>
      <point x="1575" y="1268"/>
      <point x="1718" y="1430"/>
      <point x="1913" y="1430" type="curve" smooth="yes"/>
      <point x="2010" y="1430"/>
      <point x="2115" y="1384"/>
      <point x="2183" y="1304" type="curve" smooth="yes"/>
      <point x="2203" y="1281"/>
      <point x="2218" y="1276"/>
      <point x="2238" y="1293" type="curve" smooth="yes"/>
      <point x="2265" y="1315"/>
      <point x="2259" y="1331"/>
      <point x="2248" y="1349" type="curve" smooth="yes"/>
      <point x="2181" y="1454"/>
      <point x="2054" y="1515"/>
      <point x="1928" y="1515" type="curve" smooth="yes"/>
      <point x="1665" y="1515"/>
      <point x="1481" y="1316"/>
      <point x="1481" y="1054" type="curve" smooth="yes"/>
      <point x="1481" y="913"/>
      <point x="1553" y="823"/>
      <point x="1634" y="799" type="curve"/>
      <point x="1365" y="753"/>
      <point x="1168" y="539"/>
      <point x="1168" y="301" type="curve" smooth="yes"/>
      <point x="1168" y="109"/>
      <point x="1311" y="-17"/>
    </contour>
  </outline>
</glyph>
<glyph name="P.cur" format="2">
  <advance width="1288"/>
  <outline>
    <contour>
      <point x="734" y="585" type="curve" smooth="yes"/>
      <point x="1181" y="591"/>
      <point x="1505" y="830"/>
      <point x="1505" y="1155" type="curve" smooth="yes"/>
      <point x="1505" y="1381"/>
      <point x="1334" y="1515"/>
      <point x="1045" y="1515" type="curve" smooth="yes"/>
      <point x="769" y="1515"/>
      <point x="548" y="1430"/>
      <point x="389" y="1264" type="curve" smooth="yes"/>
      <point x="374" y="1249"/>
      <point x="374" y="1234"/>
      <point x="388" y="1218" type="curve" smooth="yes"/>
      <point x="409" y="1191"/>
      <point x="430" y="1189"/>
      <point x="445" y="1206" type="curve" smooth="yes"/>
      <point x="581" y="1355"/>
      <point x="778" y="1430"/>
      <point x="1028" y="1430" type="curve" smooth="yes"/>
      <point x="1269" y="1430"/>
      <point x="1411" y="1325"/>
      <point x="1411" y="1149" type="curve" smooth="yes"/>
      <point x="1411" y="874"/>
      <point x="1131" y="671"/>
      <point x="745" y="665" type="curve" smooth="yes"/>
      <point x="718" y="665"/>
      <point x="703" y="650"/>
      <point x="699" y="625" type="curve" smooth="yes"/>
      <point x="694" y="596"/>
      <point x="708" y="585"/>
    </contour>
    <contour>
      <point x="220" y="-19" type="curve" smooth="yes"/>
      <point x="353" y="-19"/>
      <point x="440" y="75"/>
      <point x="508" y="285" type="curve" smooth="yes"/>
      <point x="823" y="1260" type="line" smooth="yes"/>
      <point x="830" y="1281"/>
      <point x="814" y="1290"/>
      <point x="784" y="1290" type="curve" smooth="yes"/>
      <point x="754" y="1290"/>
      <point x="739" y="1281"/>
      <point x="733" y="1263" type="curve" smooth="yes"/>
      <point x="419" y="290" type="line" smooth="yes"/>
      <point x="366" y="129"/>
      <point x="308" y="66"/>
      <point x="224" y="66" type="curve" smooth="yes"/>
      <point x="160" y="66"/>
      <point x="116" y="86"/>
      <point x="85" y="169" type="curve" smooth="yes"/>
      <point x="78" y="190"/>
      <point x="56" y="194"/>
      <point x="34" y="183" type="curve" smooth="yes"/>
      <point x="14" y="173"/>
      <point x="6" y="156"/>
      <point x="14" y="134" type="curve" smooth="yes"/>
      <point x="44" y="44"/>
      <point x="115" y="-19"/>
    </contour>
  </outline>
</glyph>
<glyph name="Q.cur" format="2">
  <advance width="1479"/>
  <outline>
    <contour>
      <point x="1123" y="-156" type="curve" smooth="yes"/>
      <point x="1225" y="-156"/>
      <point x="1326" y="-82"/>
      <point x="1415" y="58" type="curve" smooth="yes"/>
      <point x="1431" y="83"/>
      <point x="1421" y="98"/>
      <point x="1405" y="109" type="curve" smooth="yes"/>
      <point x="1379" y="128"/>
      <point x="1360" y="120"/>
      <point x="1350" y="104" type="curve" smooth="yes"/>
      <point x="1281" y="-10"/>
      <point x="1205" y="-71"/>
      <point x="1131" y="-71" type="curve" smooth="yes"/>
      <point x="948" y="-71"/>
      <point x="945" y="454"/>
      <point x="650" y="454" type="curve" smooth="yes"/>
      <point x="521" y="454"/>
      <point x="428" y="364"/>
      <point x="428" y="229" type="curve" smooth="yes"/>
      <point x="428" y="90"/>
      <point x="543" y="-19"/>
      <point x="700" y="-19" type="curve" smooth="yes"/>
      <point x="1145" y="-19"/>
      <point x="1499" y="478"/>
      <point x="1499" y="1015" type="curve" smooth="yes"/>
      <point x="1499" y="1329"/>
      <point x="1338" y="1515"/>
      <point x="1063" y="1515" type="curve" smooth="yes"/>
      <point x="623" y="1515"/>
      <point x="260" y="1023"/>
      <point x="260" y="493" type="curve" smooth="yes"/>
      <point x="260" y="418"/>
      <point x="270" y="360"/>
      <point x="284" y="315" type="curve" smooth="yes"/>
      <point x="295" y="279"/>
      <point x="373" y="298"/>
      <point x="365" y="341" type="curve" smooth="yes"/>
      <point x="358" y="383"/>
      <point x="354" y="428"/>
      <point x="354" y="493" type="curve" smooth="yes"/>
      <point x="354" y="975"/>
      <point x="669" y="1431"/>
      <point x="1048" y="1431" type="curve" smooth="yes"/>
      <point x="1271" y="1431"/>
      <point x="1405" y="1276"/>
      <point x="1405" y="1015" type="curve" smooth="yes"/>
      <point x="1405" y="528"/>
      <point x="1093" y="66"/>
      <point x="714" y="66" type="curve" smooth="yes"/>
      <point x="601" y="66"/>
      <point x="520" y="140"/>
      <point x="520" y="230" type="curve" smooth="yes"/>
      <point x="520" y="315"/>
      <point x="573" y="369"/>
      <point x="646" y="369" type="curve" smooth="yes"/>
      <point x="868" y="369"/>
      <point x="879" y="-156"/>
    </contour>
  </outline>
</glyph>
<glyph name="Q.cur.ini" format="2">
  <advance width="1459"/>
  <anchor x="1378" y="0" name="cnct"/>
  <outline>
    <contour>
      <point x="1321" y="-17" type="curve" smooth="yes"/>
      <point x="1371" y="-17"/>
      <point x="1396" y="58"/>
      <point x="1346" y="58" type="curve" smooth="yes"/>
      <point x="1085" y="58"/>
      <point x="1006" y="454"/>
      <point x="675" y="454" type="curve" smooth="yes"/>
      <point x="539" y="454"/>
      <point x="428" y="364"/>
      <point x="428" y="229" type="curve" smooth="yes"/>
      <point x="428" y="90"/>
      <point x="543" y="-19"/>
      <point x="700" y="-19" type="curve" smooth="yes"/>
      <point x="1145" y="-19"/>
      <point x="1499" y="478"/>
      <point x="1499" y="1015" type="curve" smooth="yes"/>
      <point x="1499" y="1329"/>
      <point x="1338" y="1515"/>
      <point x="1063" y="1515" type="curve" smooth="yes"/>
      <point x="623" y="1515"/>
      <point x="260" y="1023"/>
      <point x="260" y="493" type="curve" smooth="yes"/>
      <point x="260" y="418"/>
      <point x="270" y="360"/>
      <point x="284" y="315" type="curve" smooth="yes"/>
      <point x="295" y="279"/>
      <point x="373" y="298"/>
      <point x="365" y="341" type="curve" smooth="yes"/>
      <point x="358" y="383"/>
      <point x="354" y="428"/>
      <point x="354" y="493" type="curve" smooth="yes"/>
      <point x="354" y="975"/>
      <point x="669" y="1431"/>
      <point x="1048" y="1431" type="curve" smooth="yes"/>
      <point x="1271" y="1431"/>
      <point x="1405" y="1276"/>
      <point x="1405" y="1015" type="curve" smooth="yes"/>
      <point x="1405" y="528"/>
      <point x="1093" y="66"/>
      <point x="714" y="66" type="curve" smooth="yes"/>
      <point x="601" y="66"/>
      <point x="520" y="140"/>
      <point x="520" y="230" type="curve" smooth="yes"/>
      <point x="520" y="315"/>
      <point x="590" y="369"/>
      <point x="671" y="369" type="curve" smooth="yes"/>
      <point x="960" y="369"/>
      <point x="1033" y="-17"/>
    </contour>
  </outline>
</glyph>
<glyph name="Q.cur_locl" format="2">
  <advance width="1479"/>
  <anchor x="635" y="0" name="bottom"/>
  <anchor x="878" y="744" name="center"/>
  <anchor x="1215" y="21" name="ogonek"/>
  <anchor x="1063" y="1424" name="top"/>
  <anchor x="1336" y="1424" name="topright"/>
  <outline>
    <contour>
      <point x="1123" y="-156" type="curve" smooth="yes"/>
      <point x="1225" y="-156"/>
      <point x="1326" y="-82"/>
      <point x="1415" y="58" type="curve" smooth="yes"/>
      <point x="1431" y="83"/>
      <point x="1421" y="98"/>
      <point x="1405" y="109" type="curve" smooth="yes"/>
      <point x="1379" y="128"/>
      <point x="1360" y="120"/>
      <point x="1350" y="104" type="curve" smooth="yes"/>
      <point x="1281" y="-10"/>
      <point x="1205" y="-71"/>
      <point x="1136" y="-71" type="curve" smooth="yes"/>
      <point x="974" y="-71"/>
      <point x="941" y="454"/>
      <point x="700" y="454" type="curve" smooth="yes"/>
      <point x="648" y="454"/>
      <point x="644" y="369"/>
      <point x="696" y="369" type="curve" smooth="yes"/>
      <point x="869" y="369"/>
      <point x="906" y="-156"/>
    </contour>
    <component base="O"/>
  </outline>
</glyph>
<glyph name="Q.dec_pt" format="2">
  <advance width="1346"/>
  <outline>
    <contour>
      <point x="1095" y="688" type="curve" smooth="yes"/>
      <point x="1284" y="1239" type="line" smooth="yes"/>
      <point x="1290" y="1256"/>
      <point x="1275" y="1266"/>
      <point x="1246" y="1266" type="curve" smooth="yes"/>
      <point x="1216" y="1266"/>
      <point x="1204" y="1258"/>
      <point x="1196" y="1239" type="curve"/>
      <point x="1046" y="936"/>
      <point x="849" y="751"/>
      <point x="674" y="751" type="curve" smooth="yes"/>
      <point x="578" y="751"/>
      <point x="529" y="810"/>
      <point x="529" y="925" type="curve" smooth="yes"/>
      <point x="529" y="1144"/>
      <point x="719" y="1431"/>
      <point x="878" y="1431" type="curve" smooth="yes"/>
      <point x="928" y="1431"/>
      <point x="958" y="1401"/>
      <point x="958" y="1353" type="curve" smooth="yes"/>
      <point x="958" y="1229"/>
      <point x="821" y="1118"/>
      <point x="663" y="1118" type="curve" smooth="yes"/>
      <point x="559" y="1118"/>
      <point x="459" y="1141"/>
      <point x="396" y="1173" type="curve" smooth="yes"/>
      <point x="378" y="1181"/>
      <point x="356" y="1178"/>
      <point x="346" y="1156" type="curve" smooth="yes"/>
      <point x="333" y="1129"/>
      <point x="344" y="1116"/>
      <point x="363" y="1106" type="curve" smooth="yes"/>
      <point x="434" y="1066"/>
      <point x="534" y="1038"/>
      <point x="653" y="1038" type="curve" smooth="yes"/>
      <point x="870" y="1038"/>
      <point x="1049" y="1185"/>
      <point x="1049" y="1359" type="curve" smooth="yes"/>
      <point x="1049" y="1456"/>
      <point x="989" y="1515"/>
      <point x="889" y="1515" type="curve" smooth="yes"/>
      <point x="671" y="1515"/>
      <point x="438" y="1190"/>
      <point x="438" y="919" type="curve" smooth="yes"/>
      <point x="438" y="750"/>
      <point x="514" y="664"/>
      <point x="665" y="664" type="curve" smooth="yes"/>
      <point x="812" y="664"/>
      <point x="965" y="768"/>
      <point x="1098" y="950" type="curve"/>
      <point x="1008" y="688" type="line" smooth="yes"/>
      <point x="874" y="298"/>
      <point x="678" y="60"/>
      <point x="488" y="60" type="curve" smooth="yes"/>
      <point x="421" y="60"/>
      <point x="396" y="98"/>
      <point x="396" y="133" type="curve" smooth="yes"/>
      <point x="396" y="176"/>
      <point x="424" y="211"/>
      <point x="476" y="211" type="curve" smooth="yes"/>
      <point x="613" y="211"/>
      <point x="700" y="-11"/>
      <point x="911" y="-11" type="curve" smooth="yes"/>
      <point x="1045" y="-11"/>
      <point x="1134" y="51"/>
      <point x="1261" y="204" type="curve" smooth="yes"/>
      <point x="1279" y="225"/>
      <point x="1278" y="239"/>
      <point x="1260" y="255" type="curve" smooth="yes"/>
      <point x="1243" y="271"/>
      <point x="1228" y="271"/>
      <point x="1209" y="250" type="curve" smooth="yes"/>
      <point x="1081" y="110"/>
      <point x="1021" y="73"/>
      <point x="926" y="73" type="curve" smooth="yes"/>
      <point x="735" y="73"/>
      <point x="680" y="289"/>
      <point x="484" y="289" type="curve" smooth="yes"/>
      <point x="373" y="289"/>
      <point x="311" y="210"/>
      <point x="311" y="125" type="curve" smooth="yes"/>
      <point x="311" y="45"/>
      <point x="376" y="-21"/>
      <point x="474" y="-21" type="curve" smooth="yes"/>
      <point x="711" y="-21"/>
      <point x="934" y="218"/>
    </contour>
  </outline>
</glyph>
<glyph name="S.cur" format="2">
  <advance width="1383"/>
  <anchor x="855" y="0" name="bottom"/>
  <anchor x="1005" y="1488" name="top"/>
  <outline>
    <contour>
      <point x="859" y="-19" type="curve" smooth="yes"/>
      <point x="1146" y="-19"/>
      <point x="1363" y="183"/>
      <point x="1363" y="496" type="curve" smooth="yes"/>
      <point x="1363" y="718"/>
      <point x="1193" y="911"/>
      <point x="1060" y="1122" type="curve"/>
      <point x="1165" y="1292"/>
      <point x="1206" y="1379"/>
      <point x="1206" y="1466" type="curve" smooth="yes"/>
      <point x="1206" y="1551"/>
      <point x="1145" y="1609"/>
      <point x="1058" y="1609" type="curve" smooth="yes"/>
      <point x="948" y="1609"/>
      <point x="863" y="1514"/>
      <point x="863" y="1383" type="curve" smooth="yes"/>
      <point x="863" y="1294"/>
      <point x="898" y="1219"/>
      <point x="957" y="1117" type="curve"/>
      <point x="377" y="208"/>
      <point x="253" y="74"/>
      <point x="16" y="74" type="curve" smooth="yes"/>
      <point x="-14" y="74"/>
      <point x="-30" y="61"/>
      <point x="-39" y="35" type="curve" smooth="yes"/>
      <point x="-49" y="5"/>
      <point x="-40" y="-7"/>
      <point x="-9" y="-7" type="curve" smooth="yes"/>
      <point x="306" y="-7"/>
      <point x="458" y="164"/>
      <point x="1006" y="1035" type="curve"/>
      <point x="1100" y="887"/>
      <point x="1269" y="698"/>
      <point x="1269" y="493" type="curve" smooth="yes"/>
      <point x="1269" y="230"/>
      <point x="1093" y="66"/>
      <point x="859" y="66" type="curve" smooth="yes"/>
      <point x="751" y="66"/>
      <point x="663" y="95"/>
      <point x="595" y="156" type="curve" smooth="yes"/>
      <point x="573" y="176"/>
      <point x="560" y="178"/>
      <point x="541" y="158" type="curve" smooth="yes"/>
      <point x="523" y="136"/>
      <point x="520" y="121"/>
      <point x="541" y="98" type="curve" smooth="yes"/>
      <point x="601" y="29"/>
      <point x="728" y="-19"/>
    </contour>
    <contour>
      <point x="1011" y="1204" type="curve"/>
      <point x="981" y="1260"/>
      <point x="954" y="1322"/>
      <point x="954" y="1386" type="curve" smooth="yes"/>
      <point x="954" y="1465"/>
      <point x="986" y="1528"/>
      <point x="1049" y="1528" type="curve" smooth="yes"/>
      <point x="1085" y="1528"/>
      <point x="1114" y="1503"/>
      <point x="1114" y="1460" type="curve" smooth="yes"/>
      <point x="1114" y="1398"/>
      <point x="1086" y="1327"/>
    </contour>
  </outline>
</glyph>
<glyph name="T.cur.ini" format="2">
  <advance width="938"/>
  <anchor x="630" y="0" name="bottom"/>
  <anchor x="567" y="744" name="center"/>
  <anchor x="856" y="0" name="cnct"/>
  <anchor x="928" y="1424" name="top"/>
  <outline>
    <contour>
      <point x="684" y="-17" type="curve" smooth="yes"/>
      <point x="734" y="-17"/>
      <point x="745" y="60"/>
      <point x="695" y="60" type="curve" smooth="yes"/>
      <point x="540" y="60"/>
      <point x="455" y="150"/>
      <point x="455" y="308" type="curve" smooth="yes"/>
      <point x="455" y="562"/>
      <point x="635" y="941"/>
      <point x="1034" y="1408" type="curve"/>
      <point x="1347" y="1408" type="line" smooth="yes"/>
      <point x="1367" y="1408"/>
      <point x="1377" y="1418"/>
      <point x="1387" y="1448" type="curve" smooth="yes"/>
      <point x="1397" y="1478"/>
      <point x="1393" y="1488"/>
      <point x="1373" y="1488" type="curve" smooth="yes"/>
      <point x="745" y="1488" type="line" smooth="yes"/>
      <point x="523" y="1488"/>
      <point x="375" y="1384"/>
      <point x="335" y="1224" type="curve" smooth="yes"/>
      <point x="328" y="1193"/>
      <point x="338" y="1184"/>
      <point x="355" y="1179" type="curve" smooth="yes"/>
      <point x="388" y="1170"/>
      <point x="403" y="1180"/>
      <point x="410" y="1204" type="curve" smooth="yes"/>
      <point x="449" y="1335"/>
      <point x="556" y="1408"/>
      <point x="741" y="1408" type="curve" smooth="yes"/>
      <point x="924" y="1408" type="line"/>
      <point x="536" y="950"/>
      <point x="362" y="570"/>
      <point x="362" y="304" type="curve" smooth="yes"/>
      <point x="362" y="100"/>
      <point x="477" y="-17"/>
    </contour>
  </outline>
</glyph>
<glyph name="T.cur_locl.ini" format="2">
  <advance width="1134"/>
  <anchor x="833" y="0" name="bottom"/>
  <anchor x="719" y="659" name="center"/>
  <anchor x="1053" y="0" name="cnct"/>
  <anchor x="1105" y="1424" name="top"/>
  <outline>
    <contour>
      <point x="880" y="-17" type="curve" smooth="yes"/>
      <point x="930" y="-17"/>
      <point x="941" y="60"/>
      <point x="891" y="60" type="curve" smooth="yes"/>
      <point x="702" y="60"/>
      <point x="594" y="166"/>
      <point x="594" y="340" type="curve" smooth="yes"/>
      <point x="594" y="445"/>
      <point x="616" y="536"/>
      <point x="652" y="618" type="curve"/>
      <point x="1020" y="618" type="line" smooth="yes"/>
      <point x="1036" y="618"/>
      <point x="1049" y="628"/>
      <point x="1055" y="653" type="curve" smooth="yes"/>
      <point x="1064" y="681"/>
      <point x="1058" y="698"/>
      <point x="1038" y="698" type="curve" smooth="yes"/>
      <point x="686" y="698" type="line"/>
      <point x="880" y="1006"/>
      <point x="1246" y="1161"/>
      <point x="1570" y="1417" type="curve" smooth="yes"/>
      <point x="1584" y="1428"/>
      <point x="1591" y="1446"/>
      <point x="1574" y="1473" type="curve" smooth="yes"/>
      <point x="1561" y="1495"/>
      <point x="1539" y="1494"/>
      <point x="1522" y="1483" type="curve" smooth="yes"/>
      <point x="1422" y="1420"/>
      <point x="1323" y="1388"/>
      <point x="1211" y="1388" type="curve" smooth="yes"/>
      <point x="1036" y="1388"/>
      <point x="948" y="1515"/>
      <point x="774" y="1515" type="curve" smooth="yes"/>
      <point x="566" y="1515"/>
      <point x="450" y="1376"/>
      <point x="388" y="1191" type="curve" smooth="yes"/>
      <point x="379" y="1166"/>
      <point x="393" y="1153"/>
      <point x="424" y="1153" type="curve" smooth="yes"/>
      <point x="459" y="1153"/>
      <point x="469" y="1168"/>
      <point x="478" y="1191" type="curve" smooth="yes"/>
      <point x="528" y="1338"/>
      <point x="613" y="1433"/>
      <point x="760" y="1433" type="curve" smooth="yes"/>
      <point x="921" y="1433"/>
      <point x="1003" y="1309"/>
      <point x="1167" y="1309" type="curve" smooth="yes"/>
      <point x="1224" y="1309"/>
      <point x="1281" y="1321"/>
      <point x="1339" y="1345" type="curve"/>
      <point x="1049" y="1152"/>
      <point x="746" y="978"/>
      <point x="585" y="698" type="curve"/>
      <point x="395" y="698" type="line" smooth="yes"/>
      <point x="379" y="698"/>
      <point x="366" y="688"/>
      <point x="360" y="663" type="curve" smooth="yes"/>
      <point x="351" y="634"/>
      <point x="358" y="618"/>
      <point x="378" y="618" type="curve" smooth="yes"/>
      <point x="553" y="618" type="line"/>
      <point x="518" y="534"/>
      <point x="498" y="441"/>
      <point x="498" y="336" type="curve" smooth="yes"/>
      <point x="498" y="116"/>
      <point x="638" y="-17"/>
    </contour>
  </outline>
</glyph>
<glyph name="T.dec" format="2">
  <advance width="1118"/>
  <anchor x="359" y="0" name="bottom"/>
  <anchor x="771" y="744" name="center"/>
  <anchor x="980" y="1424" name="top"/>
  <outline>
    <contour>
      <point x="384" y="-19" type="curve" smooth="yes"/>
      <point x="516" y="-19"/>
      <point x="603" y="75"/>
      <point x="670" y="285" type="curve" smooth="yes"/>
      <point x="1033" y="1408" type="line"/>
      <point x="1448" y="1408" type="line" smooth="yes"/>
      <point x="1468" y="1408"/>
      <point x="1478" y="1418"/>
      <point x="1488" y="1448" type="curve" smooth="yes"/>
      <point x="1498" y="1478"/>
      <point x="1494" y="1488"/>
      <point x="1474" y="1488" type="curve" smooth="yes"/>
      <point x="745" y="1488" type="line" smooth="yes"/>
      <point x="523" y="1488"/>
      <point x="375" y="1384"/>
      <point x="335" y="1224" type="curve" smooth="yes"/>
      <point x="328" y="1193"/>
      <point x="338" y="1184"/>
      <point x="355" y="1179" type="curve" smooth="yes"/>
      <point x="388" y="1170"/>
      <point x="403" y="1180"/>
      <point x="410" y="1204" type="curve" smooth="yes"/>
      <point x="449" y="1335"/>
      <point x="556" y="1408"/>
      <point x="741" y="1408" type="curve" smooth="yes"/>
      <point x="944" y="1408" type="line"/>
      <point x="583" y="290" type="line" smooth="yes"/>
      <point x="530" y="129"/>
      <point x="471" y="66"/>
      <point x="388" y="66" type="curve" smooth="yes"/>
      <point x="324" y="66"/>
      <point x="280" y="86"/>
      <point x="249" y="169" type="curve" smooth="yes"/>
      <point x="241" y="190"/>
      <point x="220" y="194"/>
      <point x="198" y="183" type="curve" smooth="yes"/>
      <point x="178" y="173"/>
      <point x="170" y="156"/>
      <point x="178" y="134" type="curve" smooth="yes"/>
      <point x="208" y="44"/>
      <point x="279" y="-19"/>
    </contour>
  </outline>
</glyph>
<glyph name="V.cur" format="2">
  <advance width="1409"/>
  <outline>
    <contour>
      <point x="666" y="-19" type="curve" smooth="yes"/>
      <point x="930" y="-19"/>
      <point x="1210" y="339"/>
      <point x="1396" y="944" type="curve" smooth="yes"/>
      <point x="1461" y="1156"/>
      <point x="1485" y="1269"/>
      <point x="1499" y="1345" type="curve"/>
      <point x="1540" y="1313"/>
      <point x="1655" y="1283"/>
      <point x="1696" y="1280" type="curve" smooth="yes"/>
      <point x="1735" y="1278"/>
      <point x="1750" y="1348"/>
      <point x="1716" y="1353" type="curve" smooth="yes"/>
      <point x="1624" y="1369"/>
      <point x="1531" y="1406"/>
      <point x="1511" y="1438" type="curve"/>
      <point x="1500" y="1489"/>
      <point x="1458" y="1518"/>
      <point x="1419" y="1518" type="curve" smooth="yes"/>
      <point x="1375" y="1518"/>
      <point x="1346" y="1490"/>
      <point x="1346" y="1448" type="curve" smooth="yes"/>
      <point x="1346" y="1415"/>
      <point x="1369" y="1378"/>
      <point x="1416" y="1366" type="curve"/>
      <point x="1403" y="1276"/>
      <point x="1371" y="1149"/>
      <point x="1309" y="950" type="curve" smooth="yes"/>
      <point x="1141" y="415"/>
      <point x="889" y="65"/>
      <point x="670" y="65" type="curve" smooth="yes"/>
      <point x="538" y="65"/>
      <point x="504" y="166"/>
      <point x="545" y="404" type="curve" smooth="yes"/>
      <point x="598" y="703"/>
      <point x="670" y="995"/>
      <point x="731" y="1229" type="curve" smooth="yes"/>
      <point x="774" y="1393"/>
      <point x="743" y="1520"/>
      <point x="610" y="1520" type="curve" smooth="yes"/>
      <point x="515" y="1520"/>
      <point x="416" y="1446"/>
      <point x="338" y="1334" type="curve" smooth="yes"/>
      <point x="324" y="1315"/>
      <point x="325" y="1296"/>
      <point x="344" y="1281" type="curve" smooth="yes"/>
      <point x="364" y="1265"/>
      <point x="384" y="1261"/>
      <point x="399" y="1283" type="curve" smooth="yes"/>
      <point x="464" y="1375"/>
      <point x="535" y="1436"/>
      <point x="599" y="1436" type="curve" smooth="yes"/>
      <point x="664" y="1436"/>
      <point x="676" y="1363"/>
      <point x="654" y="1276" type="curve" smooth="yes"/>
      <point x="574" y="964"/>
      <point x="506" y="686"/>
      <point x="455" y="391" type="curve" smooth="yes"/>
      <point x="409" y="125"/>
      <point x="476" y="-19"/>
    </contour>
  </outline>
</glyph>
<glyph name="W.cur" format="2">
  <advance width="1979"/>
  <anchor x="986" y="0" name="bottom"/>
  <anchor x="1351" y="1424" name="top"/>
  <outline>
    <contour>
      <point x="641" y="-19" type="curve" smooth="yes"/>
      <point x="844" y="-19"/>
      <point x="1049" y="253"/>
      <point x="1203" y="713" type="curve"/>
      <point x="1206" y="713" type="line"/>
      <point x="1179" y="596"/>
      <point x="1146" y="408"/>
      <point x="1146" y="261" type="curve" smooth="yes"/>
      <point x="1146" y="98"/>
      <point x="1186" y="-19"/>
      <point x="1319" y="-19" type="curve" smooth="yes"/>
      <point x="1580" y="-19"/>
      <point x="1821" y="455"/>
      <point x="1970" y="944" type="curve" smooth="yes"/>
      <point x="2035" y="1156"/>
      <point x="2059" y="1269"/>
      <point x="2073" y="1345" type="curve"/>
      <point x="2114" y="1313"/>
      <point x="2229" y="1283"/>
      <point x="2270" y="1280" type="curve" smooth="yes"/>
      <point x="2289" y="1279"/>
      <point x="2301" y="1294"/>
      <point x="2306" y="1310" type="curve" smooth="yes"/>
      <point x="2311" y="1329"/>
      <point x="2308" y="1349"/>
      <point x="2290" y="1353" type="curve" smooth="yes"/>
      <point x="2198" y="1369"/>
      <point x="2105" y="1406"/>
      <point x="2085" y="1438" type="curve"/>
      <point x="2074" y="1489"/>
      <point x="2031" y="1518"/>
      <point x="1993" y="1518" type="curve" smooth="yes"/>
      <point x="1949" y="1518"/>
      <point x="1920" y="1490"/>
      <point x="1920" y="1448" type="curve" smooth="yes"/>
      <point x="1920" y="1415"/>
      <point x="1943" y="1378"/>
      <point x="1990" y="1366" type="curve"/>
      <point x="1976" y="1276"/>
      <point x="1945" y="1149"/>
      <point x="1883" y="950" type="curve" smooth="yes"/>
      <point x="1743" y="506"/>
      <point x="1529" y="66"/>
      <point x="1335" y="66" type="curve" smooth="yes"/>
      <point x="1246" y="66"/>
      <point x="1223" y="148"/>
      <point x="1223" y="283" type="curve" smooth="yes"/>
      <point x="1223" y="416"/>
      <point x="1256" y="665"/>
      <point x="1314" y="920" type="curve"/>
      <point x="1343" y="966"/>
      <point x="1360" y="1014"/>
      <point x="1360" y="1050" type="curve" smooth="yes"/>
      <point x="1360" y="1086"/>
      <point x="1343" y="1110"/>
      <point x="1304" y="1110" type="curve" smooth="yes"/>
      <point x="1253" y="1110"/>
      <point x="1214" y="1043"/>
      <point x="1214" y="968" type="curve" smooth="yes"/>
      <point x="1214" y="955"/>
      <point x="1215" y="945"/>
      <point x="1214" y="926" type="curve"/>
      <point x="1048" y="439"/>
      <point x="844" y="66"/>
      <point x="645" y="66" type="curve" smooth="yes"/>
      <point x="538" y="66"/>
      <point x="504" y="168"/>
      <point x="545" y="404" type="curve" smooth="yes"/>
      <point x="598" y="703"/>
      <point x="670" y="995"/>
      <point x="731" y="1229" type="curve" smooth="yes"/>
      <point x="774" y="1393"/>
      <point x="743" y="1520"/>
      <point x="610" y="1520" type="curve" smooth="yes"/>
      <point x="515" y="1520"/>
      <point x="416" y="1446"/>
      <point x="338" y="1334" type="curve" smooth="yes"/>
      <point x="325" y="1315"/>
      <point x="325" y="1296"/>
      <point x="344" y="1281" type="curve" smooth="yes"/>
      <point x="364" y="1265"/>
      <point x="384" y="1261"/>
      <point x="399" y="1283" type="curve" smooth="yes"/>
      <point x="464" y="1375"/>
      <point x="535" y="1436"/>
      <point x="599" y="1436" type="curve" smooth="yes"/>
      <point x="664" y="1436"/>
      <point x="676" y="1363"/>
      <point x="654" y="1276" type="curve" smooth="yes"/>
      <point x="573" y="964"/>
      <point x="506" y="686"/>
      <point x="455" y="391" type="curve" smooth="yes"/>
      <point x="409" y="125"/>
      <point x="476" y="-19"/>
    </contour>
  </outline>
</glyph>
<glyph name="X.cur" format="2">
  <advance width="1285"/>
  <outline>
    <contour>
      <point x="1033" y="-19" type="curve" smooth="yes"/>
      <point x="1115" y="-19"/>
      <point x="1186" y="44"/>
      <point x="1251" y="174" type="curve" smooth="yes"/>
      <point x="1265" y="203"/>
      <point x="1263" y="216"/>
      <point x="1238" y="230" type="curve" smooth="yes"/>
      <point x="1211" y="245"/>
      <point x="1195" y="236"/>
      <point x="1184" y="213" type="curve" smooth="yes"/>
      <point x="1138" y="113"/>
      <point x="1091" y="65"/>
      <point x="1040" y="65" type="curve" smooth="yes"/>
      <point x="974" y="65"/>
      <point x="946" y="111"/>
      <point x="915" y="296" type="curve" smooth="yes"/>
      <point x="839" y="745" type="line"/>
      <point x="1435" y="1439" type="line" smooth="yes"/>
      <point x="1458" y="1465"/>
      <point x="1459" y="1480"/>
      <point x="1440" y="1500" type="curve" smooth="yes"/>
      <point x="1419" y="1523"/>
      <point x="1399" y="1524"/>
      <point x="1378" y="1500" type="curve" smooth="yes"/>
      <point x="821" y="851" type="line"/>
      <point x="751" y="1300" type="line" smooth="yes"/>
      <point x="726" y="1460"/>
      <point x="683" y="1513"/>
      <point x="576" y="1513" type="curve" smooth="yes"/>
      <point x="529" y="1513"/>
      <point x="479" y="1499"/>
      <point x="414" y="1459" type="curve" smooth="yes"/>
      <point x="394" y="1446"/>
      <point x="381" y="1434"/>
      <point x="393" y="1408" type="curve" smooth="yes"/>
      <point x="405" y="1379"/>
      <point x="420" y="1370"/>
      <point x="446" y="1385" type="curve" smooth="yes"/>
      <point x="490" y="1410"/>
      <point x="530" y="1428"/>
      <point x="565" y="1428" type="curve" smooth="yes"/>
      <point x="624" y="1428"/>
      <point x="650" y="1391"/>
      <point x="666" y="1284" type="curve" smooth="yes"/>
      <point x="744" y="780" type="line"/>
      <point x="111" y="56" type="line" smooth="yes"/>
      <point x="90" y="33"/>
      <point x="91" y="19"/>
      <point x="111" y="-1" type="curve" smooth="yes"/>
      <point x="133" y="-22"/>
      <point x="154" y="-25"/>
      <point x="173" y="-2" type="curve" smooth="yes"/>
      <point x="763" y="674" type="line"/>
      <point x="830" y="279" type="line" smooth="yes"/>
      <point x="869" y="56"/>
      <point x="916" y="-19"/>
    </contour>
  </outline>
</glyph>
<glyph name="X.dec.ini" format="2">
  <advance width="1254"/>
  <anchor x="1173" y="0" name="cnct"/>
  <outline>
    <contour>
      <point x="338" y="-17" type="curve" smooth="yes"/>
      <point x="505" y="-17"/>
      <point x="658" y="161"/>
      <point x="774" y="391" type="curve"/>
      <point x="756" y="179"/>
      <point x="804" y="-19"/>
      <point x="1043" y="-19" type="curve" smooth="yes"/>
      <point x="1093" y="-19"/>
      <point x="1106" y="59"/>
      <point x="1056" y="59" type="curve" smooth="yes"/>
      <point x="919" y="59"/>
      <point x="849" y="126"/>
      <point x="849" y="331" type="curve" smooth="yes"/>
      <point x="849" y="644"/>
      <point x="1099" y="1430"/>
      <point x="1395" y="1430" type="curve" smooth="yes"/>
      <point x="1458" y="1430"/>
      <point x="1513" y="1391"/>
      <point x="1554" y="1313" type="curve" smooth="yes"/>
      <point x="1565" y="1291"/>
      <point x="1586" y="1290"/>
      <point x="1611" y="1309" type="curve" smooth="yes"/>
      <point x="1630" y="1323"/>
      <point x="1633" y="1339"/>
      <point x="1624" y="1356" type="curve" smooth="yes"/>
      <point x="1569" y="1463"/>
      <point x="1495" y="1515"/>
      <point x="1404" y="1515" type="curve" smooth="yes"/>
      <point x="1243" y="1515"/>
      <point x="1099" y="1346"/>
      <point x="990" y="1128" type="curve"/>
      <point x="1001" y="1316"/>
      <point x="959" y="1515"/>
      <point x="756" y="1515" type="curve" smooth="yes"/>
      <point x="663" y="1515"/>
      <point x="566" y="1465"/>
      <point x="473" y="1368" type="curve" smooth="yes"/>
      <point x="458" y="1350"/>
      <point x="459" y="1333"/>
      <point x="475" y="1316" type="curve" smooth="yes"/>
      <point x="496" y="1295"/>
      <point x="514" y="1293"/>
      <point x="528" y="1306" type="curve" smooth="yes"/>
      <point x="610" y="1389"/>
      <point x="684" y="1430"/>
      <point x="745" y="1430" type="curve" smooth="yes"/>
      <point x="853" y="1430"/>
      <point x="913" y="1344"/>
      <point x="913" y="1175" type="curve" smooth="yes"/>
      <point x="913" y="844"/>
      <point x="643" y="68"/>
      <point x="349" y="68" type="curve" smooth="yes"/>
      <point x="269" y="68"/>
      <point x="221" y="115"/>
      <point x="185" y="230" type="curve" smooth="yes"/>
      <point x="179" y="250"/>
      <point x="163" y="256"/>
      <point x="136" y="246" type="curve" smooth="yes"/>
      <point x="111" y="236"/>
      <point x="101" y="221"/>
      <point x="108" y="201" type="curve" smooth="yes"/>
      <point x="150" y="56"/>
      <point x="228" y="-17"/>
    </contour>
  </outline>
</glyph>
<glyph name="X.dec_locl" format="2">
  <advance width="1538"/>
  <outline>
    <contour>
      <point x="1060" y="-17" type="curve" smooth="yes"/>
      <point x="1185" y="-17"/>
      <point x="1309" y="65"/>
      <point x="1386" y="200" type="curve" smooth="yes"/>
      <point x="1396" y="218"/>
      <point x="1390" y="233"/>
      <point x="1365" y="246" type="curve" smooth="yes"/>
      <point x="1343" y="259"/>
      <point x="1325" y="258"/>
      <point x="1316" y="243" type="curve" smooth="yes"/>
      <point x="1253" y="134"/>
      <point x="1156" y="68"/>
      <point x="1068" y="68" type="curve" smooth="yes"/>
      <point x="951" y="68"/>
      <point x="895" y="143"/>
      <point x="895" y="319" type="curve" smooth="yes"/>
      <point x="895" y="650"/>
      <point x="1150" y="1430"/>
      <point x="1448" y="1430" type="curve" smooth="yes"/>
      <point x="1534" y="1430"/>
      <point x="1586" y="1368"/>
      <point x="1586" y="1265" type="curve" smooth="yes"/>
      <point x="1586" y="596"/>
      <point x="161" y="1020"/>
      <point x="161" y="246" type="curve" smooth="yes"/>
      <point x="161" y="83"/>
      <point x="244" y="-17"/>
      <point x="379" y="-17" type="curve" smooth="yes"/>
      <point x="763" y="-17"/>
      <point x="1038" y="816"/>
      <point x="1038" y="1181" type="curve" smooth="yes"/>
      <point x="1038" y="1406"/>
      <point x="953" y="1515"/>
      <point x="803" y="1515" type="curve" smooth="yes"/>
      <point x="709" y="1515"/>
      <point x="613" y="1465"/>
      <point x="519" y="1368" type="curve" smooth="yes"/>
      <point x="503" y="1351"/>
      <point x="505" y="1333"/>
      <point x="521" y="1316" type="curve" smooth="yes"/>
      <point x="543" y="1295"/>
      <point x="560" y="1293"/>
      <point x="574" y="1306" type="curve" smooth="yes"/>
      <point x="656" y="1389"/>
      <point x="730" y="1430"/>
      <point x="791" y="1430" type="curve" smooth="yes"/>
      <point x="899" y="1430"/>
      <point x="959" y="1344"/>
      <point x="959" y="1175" type="curve" smooth="yes"/>
      <point x="959" y="845"/>
      <point x="696" y="68"/>
      <point x="388" y="68" type="curve" smooth="yes"/>
      <point x="305" y="68"/>
      <point x="255" y="135"/>
      <point x="255" y="246" type="curve" smooth="yes"/>
      <point x="255" y="928"/>
      <point x="1680" y="501"/>
      <point x="1680" y="1265" type="curve" smooth="yes"/>
      <point x="1680" y="1420"/>
      <point x="1595" y="1515"/>
      <point x="1456" y="1515" type="curve" smooth="yes"/>
      <point x="1093" y="1515"/>
      <point x="816" y="683"/>
      <point x="816" y="315" type="curve" smooth="yes"/>
      <point x="816" y="95"/>
      <point x="899" y="-17"/>
    </contour>
  </outline>
</glyph>
<glyph name="X.dec_locl.ini" format="2">
  <advance width="1313"/>
  <anchor x="1231" y="0" name="cnct"/>
  <outline>
    <contour>
      <point x="1059" y="-17" type="curve" smooth="yes"/>
      <point x="1109" y="-17"/>
      <point x="1120" y="60"/>
      <point x="1070" y="60" type="curve" smooth="yes"/>
      <point x="954" y="60"/>
      <point x="895" y="148"/>
      <point x="895" y="319" type="curve" smooth="yes"/>
      <point x="895" y="650"/>
      <point x="1150" y="1430"/>
      <point x="1448" y="1430" type="curve" smooth="yes"/>
      <point x="1534" y="1430"/>
      <point x="1586" y="1368"/>
      <point x="1586" y="1265" type="curve" smooth="yes"/>
      <point x="1586" y="596"/>
      <point x="161" y="1020"/>
      <point x="161" y="246" type="curve" smooth="yes"/>
      <point x="161" y="83"/>
      <point x="244" y="-17"/>
      <point x="379" y="-17" type="curve" smooth="yes"/>
      <point x="763" y="-17"/>
      <point x="1038" y="816"/>
      <point x="1038" y="1181" type="curve" smooth="yes"/>
      <point x="1038" y="1406"/>
      <point x="953" y="1515"/>
      <point x="803" y="1515" type="curve" smooth="yes"/>
      <point x="709" y="1515"/>
      <point x="613" y="1465"/>
      <point x="519" y="1368" type="curve" smooth="yes"/>
      <point x="503" y="1351"/>
      <point x="505" y="1333"/>
      <point x="521" y="1316" type="curve" smooth="yes"/>
      <point x="543" y="1295"/>
      <point x="560" y="1293"/>
      <point x="574" y="1306" type="curve" smooth="yes"/>
      <point x="656" y="1389"/>
      <point x="730" y="1430"/>
      <point x="791" y="1430" type="curve" smooth="yes"/>
      <point x="899" y="1430"/>
      <point x="959" y="1344"/>
      <point x="959" y="1175" type="curve" smooth="yes"/>
      <point x="959" y="845"/>
      <point x="696" y="68"/>
      <point x="388" y="68" type="curve" smooth="yes"/>
      <point x="305" y="68"/>
      <point x="255" y="135"/>
      <point x="255" y="246" type="curve" smooth="yes"/>
      <point x="255" y="928"/>
      <point x="1680" y="501"/>
      <point x="1680" y="1265" type="curve" smooth="yes"/>
      <point x="1680" y="1420"/>
      <point x="1595" y="1515"/>
      <point x="1456" y="1515" type="curve" smooth="yes"/>
      <point x="1093" y="1515"/>
      <point x="816" y="683"/>
      <point x="816" y="315" type="curve" smooth="yes"/>
      <point x="816" y="95"/>
      <point x="898" y="-17"/>
    </contour>
  </outline>
</glyph>
<glyph name="X.dec_ro" format="2">
  <advance width="1454"/>
  <outline>
    <contour>
      <point x="582" y="725" type="curve" smooth="yes"/>
      <point x="1175" y="725" type="line" smooth="yes"/>
      <point x="1192" y="725"/>
      <point x="1204" y="735"/>
      <point x="1210" y="760" type="curve" smooth="yes"/>
      <point x="1219" y="789"/>
      <point x="1213" y="805"/>
      <point x="1193" y="805" type="curve" smooth="yes"/>
      <point x="599" y="805" type="line" smooth="yes"/>
      <point x="583" y="805"/>
      <point x="570" y="795"/>
      <point x="564" y="770" type="curve" smooth="yes"/>
      <point x="555" y="741"/>
      <point x="562" y="725"/>
    </contour>
    <component base="X.dec"/>
  </outline>
</glyph>
<glyph name="X.dec_ro.ini" format="2">
  <advance width="1254"/>
  <anchor x="1173" y="0" name="cnct"/>
  <outline>
    <contour>
      <point x="582" y="725" type="curve" smooth="yes"/>
      <point x="1175" y="725" type="line" smooth="yes"/>
      <point x="1192" y="725"/>
      <point x="1204" y="735"/>
      <point x="1210" y="760" type="curve" smooth="yes"/>
      <point x="1219" y="789"/>
      <point x="1213" y="805"/>
      <point x="1193" y="805" type="curve" smooth="yes"/>
      <point x="599" y="805" type="line" smooth="yes"/>
      <point x="583" y="805"/>
      <point x="570" y="795"/>
      <point x="564" y="770" type="curve" smooth="yes"/>
      <point x="555" y="741"/>
      <point x="562" y="725"/>
    </contour>
    <component base="X.dec.ini"/>
  </outline>
</glyph>
<glyph name="Y.cur" format="2">
  <advance width="1392"/>
  <anchor x="1219" y="0" name="bottom"/>
  <anchor x="1039" y="1424" name="top"/>
  <outline>
    <contour>
      <point x="443" y="-1020" type="curve" smooth="yes"/>
      <point x="604" y="-1020"/>
      <point x="753" y="-886"/>
      <point x="839" y="-620" type="curve" smooth="yes"/>
      <point x="1523" y="1485" type="line" smooth="yes"/>
      <point x="1530" y="1506"/>
      <point x="1514" y="1515"/>
      <point x="1484" y="1515" type="curve" smooth="yes"/>
      <point x="1454" y="1515"/>
      <point x="1439" y="1506"/>
      <point x="1433" y="1488" type="curve" smooth="yes"/>
      <point x="1109" y="490" type="line"/>
      <point x="1001" y="293"/>
      <point x="840" y="173"/>
      <point x="671" y="173" type="curve" smooth="yes"/>
      <point x="510" y="173"/>
      <point x="466" y="284"/>
      <point x="550" y="546" type="curve" smooth="yes"/>
      <point x="759" y="1196" type="line" smooth="yes"/>
      <point x="824" y="1398"/>
      <point x="770" y="1520"/>
      <point x="625" y="1520" type="curve" smooth="yes"/>
      <point x="521" y="1520"/>
      <point x="409" y="1450"/>
      <point x="328" y="1334" type="curve" smooth="yes"/>
      <point x="310" y="1309"/>
      <point x="315" y="1296"/>
      <point x="334" y="1281" type="curve" smooth="yes"/>
      <point x="354" y="1265"/>
      <point x="375" y="1263"/>
      <point x="389" y="1283" type="curve" smooth="yes"/>
      <point x="456" y="1379"/>
      <point x="543" y="1436"/>
      <point x="614" y="1436" type="curve" smooth="yes"/>
      <point x="698" y="1436"/>
      <point x="724" y="1361"/>
      <point x="684" y="1239" type="curve" smooth="yes"/>
      <point x="458" y="544" type="line" smooth="yes"/>
      <point x="360" y="245"/>
      <point x="441" y="88"/>
      <point x="648" y="88" type="curve" smooth="yes"/>
      <point x="795" y="88"/>
      <point x="939" y="165"/>
      <point x="1045" y="294" type="curve"/>
      <point x="755" y="-600" type="line" smooth="yes"/>
      <point x="681" y="-826"/>
      <point x="568" y="-935"/>
      <point x="454" y="-935" type="curve" smooth="yes"/>
      <point x="391" y="-935"/>
      <point x="353" y="-897"/>
      <point x="353" y="-836" type="curve" smooth="yes"/>
      <point x="353" y="-660"/>
      <point x="531" y="-460"/>
      <point x="884" y="-245" type="curve" smooth="yes"/>
      <point x="995" y="-175"/>
      <point x="1120" y="-101"/>
      <point x="1265" y="-25" type="curve" smooth="yes"/>
      <point x="1288" y="-12"/>
      <point x="1300" y="3"/>
      <point x="1285" y="31" type="curve" smooth="yes"/>
      <point x="1271" y="58"/>
      <point x="1251" y="60"/>
      <point x="1234" y="50" type="curve" smooth="yes"/>
      <point x="1120" y="-11"/>
      <point x="1015" y="-70"/>
      <point x="921" y="-129" type="curve" smooth="yes"/>
      <point x="484" y="-384"/>
      <point x="261" y="-624"/>
      <point x="261" y="-840" type="curve" smooth="yes"/>
      <point x="261" y="-951"/>
      <point x="335" y="-1020"/>
    </contour>
  </outline>
</glyph>
<glyph name="Y.cur.ini" format="2">
  <advance width="1258"/>
  <anchor x="1220" y="0" name="bottom"/>
  <anchor x="1177" y="0" name="cnct"/>
  <anchor x="1057" y="1424" name="top"/>
  <outline>
    <contour>
      <point x="648" y="88" type="curve" smooth="yes"/>
      <point x="796" y="88"/>
      <point x="939" y="165"/>
      <point x="1046" y="294" type="curve"/>
      <point x="756" y="-600" type="line" smooth="yes"/>
      <point x="684" y="-821"/>
      <point x="591" y="-935"/>
      <point x="477" y="-935" type="curve" smooth="yes"/>
      <point x="414" y="-935"/>
      <point x="376" y="-897"/>
      <point x="376" y="-836" type="curve" smooth="yes"/>
      <point x="376" y="-786"/>
      <point x="284" y="-790"/>
      <point x="284" y="-840" type="curve" smooth="yes"/>
      <point x="284" y="-951"/>
      <point x="358" y="-1020"/>
      <point x="466" y="-1020" type="curve" smooth="yes"/>
      <point x="627" y="-1020"/>
      <point x="753" y="-885"/>
      <point x="839" y="-620" type="curve" smooth="yes"/>
      <point x="1523" y="1485" type="line" smooth="yes"/>
      <point x="1531" y="1506"/>
      <point x="1514" y="1515"/>
      <point x="1484" y="1515" type="curve" smooth="yes"/>
      <point x="1454" y="1515"/>
      <point x="1439" y="1506"/>
      <point x="1433" y="1488" type="curve" smooth="yes"/>
      <point x="1109" y="490" type="line"/>
      <point x="1002" y="293"/>
      <point x="841" y="173"/>
      <point x="672" y="173" type="curve" smooth="yes"/>
      <point x="511" y="173"/>
      <point x="467" y="284"/>
      <point x="551" y="546" type="curve" smooth="yes"/>
      <point x="759" y="1196" type="line" smooth="yes"/>
      <point x="824" y="1398"/>
      <point x="771" y="1520"/>
      <point x="626" y="1520" type="curve" smooth="yes"/>
      <point x="522" y="1520"/>
      <point x="409" y="1450"/>
      <point x="328" y="1334" type="curve" smooth="yes"/>
      <point x="311" y="1309"/>
      <point x="316" y="1296"/>
      <point x="334" y="1281" type="curve" smooth="yes"/>
      <point x="354" y="1265"/>
      <point x="376" y="1263"/>
      <point x="389" y="1283" type="curve" smooth="yes"/>
      <point x="457" y="1379"/>
      <point x="543" y="1436"/>
      <point x="614" y="1436" type="curve" smooth="yes"/>
      <point x="698" y="1436"/>
      <point x="724" y="1361"/>
      <point x="684" y="1239" type="curve" smooth="yes"/>
      <point x="458" y="544" type="line" smooth="yes"/>
      <point x="361" y="245"/>
      <point x="442" y="88"/>
    </contour>
  </outline>
</glyph>
<glyph name="Z.dec_locl.ini" format="2">
  <advance width="1033"/>
  <anchor x="560" y="0" name="bottom"/>
  <anchor x="804" y="750" name="center"/>
  <anchor x="951" y="0" name="cnct"/>
  <anchor x="954" y="1424" name="top"/>
  <outline>
    <contour>
      <point x="779" y="-17" type="curve" smooth="yes"/>
      <point x="829" y="-17"/>
      <point x="840" y="60"/>
      <point x="790" y="60" type="curve" smooth="yes"/>
      <point x="625" y="60"/>
      <point x="508" y="134"/>
      <point x="348" y="134" type="curve" smooth="yes"/>
      <point x="303" y="134"/>
      <point x="263" y="129"/>
      <point x="226" y="118" type="curve"/>
      <point x="785" y="724" type="line"/>
      <point x="1105" y="724" type="line" smooth="yes"/>
      <point x="1121" y="724"/>
      <point x="1134" y="734"/>
      <point x="1140" y="759" type="curve" smooth="yes"/>
      <point x="1149" y="788"/>
      <point x="1143" y="804"/>
      <point x="1123" y="804" type="curve" smooth="yes"/>
      <point x="859" y="804" type="line"/>
      <point x="1425" y="1418" type="line" smooth="yes"/>
      <point x="1454" y="1449"/>
      <point x="1461" y="1465"/>
      <point x="1443" y="1485" type="curve" smooth="yes"/>
      <point x="1426" y="1503"/>
      <point x="1406" y="1498"/>
      <point x="1386" y="1488" type="curve" smooth="yes"/>
      <point x="1328" y="1458"/>
      <point x="1261" y="1443"/>
      <point x="1189" y="1443" type="curve" smooth="yes"/>
      <point x="1068" y="1443"/>
      <point x="939" y="1510"/>
      <point x="786" y="1510" type="curve" smooth="yes"/>
      <point x="671" y="1510"/>
      <point x="561" y="1459"/>
      <point x="461" y="1356" type="curve" smooth="yes"/>
      <point x="440" y="1334"/>
      <point x="440" y="1316"/>
      <point x="458" y="1298" type="curve" smooth="yes"/>
      <point x="479" y="1276"/>
      <point x="496" y="1276"/>
      <point x="518" y="1298" type="curve" smooth="yes"/>
      <point x="601" y="1383"/>
      <point x="686" y="1425"/>
      <point x="778" y="1425" type="curve" smooth="yes"/>
      <point x="916" y="1425"/>
      <point x="1040" y="1358"/>
      <point x="1164" y="1358" type="curve" smooth="yes"/>
      <point x="1203" y="1358"/>
      <point x="1234" y="1361"/>
      <point x="1261" y="1368" type="curve"/>
      <point x="741" y="804" type="line"/>
      <point x="440" y="804" type="line" smooth="yes"/>
      <point x="424" y="804"/>
      <point x="411" y="794"/>
      <point x="405" y="769" type="curve" smooth="yes"/>
      <point x="396" y="740"/>
      <point x="403" y="724"/>
      <point x="423" y="724" type="curve" smooth="yes"/>
      <point x="668" y="724" type="line"/>
      <point x="48" y="50" type="line" smooth="yes"/>
      <point x="26" y="26"/>
      <point x="19" y="15"/>
      <point x="33" y="-6" type="curve" smooth="yes"/>
      <point x="48" y="-29"/>
      <point x="71" y="-22"/>
      <point x="95" y="-12" type="curve" smooth="yes"/>
      <point x="171" y="19"/>
      <point x="216" y="49"/>
      <point x="330" y="49" type="curve" smooth="yes"/>
      <point x="468" y="49"/>
      <point x="600" y="-17"/>
    </contour>
  </outline>
</glyph>
<glyph name=".notdef" format="2">
  <advance width="1301"/>
  <outline>
    <contour>
      <point x="609" y="1503" type="line"/>
      <point x="119" y="0" type="line"/>
      <point x="1018" y="0" type="line"/>
      <point x="1508" y="1503" type="line"/>
    </contour>
    <contour>
      <point x="669" y="1423" type="line"/>
      <point x="1395" y="1423" type="line"/>
      <point x="958" y="80" type="line"/>
      <point x="231" y="80" type="line"/>
    </contour>
  </outline>
</glyph>
<glyph name="a.mod.med" format="2">
  <advance width="635"/>
  <anchor x="239" y="0" name="bottom"/>
  <anchor x="554" y="0" name="cnct"/>
  <anchor x="520" y="0" name="ogonek"/>
  <anchor x="401" y="500" name="top"/>
  <outline>
    <contour>
      <point x="203" y="-17" type="curve" smooth="yes"/>
      <point x="263" y="-17"/>
      <point x="366" y="14"/>
      <point x="441" y="179" type="curve"/>
      <point x="424" y="226" type="line"/>
      <point x="369" y="125"/>
      <point x="300" y="63"/>
      <point x="231" y="63" type="curve" smooth="yes"/>
      <point x="175" y="63"/>
      <point x="146" y="96"/>
      <point x="146" y="160" type="curve" smooth="yes"/>
      <point x="146" y="259"/>
      <point x="206" y="440"/>
      <point x="383" y="440" type="curve" smooth="yes"/>
      <point x="428" y="440"/>
      <point x="468" y="428"/>
      <point x="521" y="389" type="curve"/>
      <point x="533" y="458" type="line"/>
      <point x="490" y="493"/>
      <point x="436" y="519"/>
      <point x="376" y="519" type="curve" smooth="yes"/>
      <point x="154" y="519"/>
      <point x="56" y="298"/>
      <point x="56" y="151" type="curve" smooth="yes"/>
      <point x="56" y="46"/>
      <point x="110" y="-17"/>
    </contour>
    <contour>
      <point x="498" y="-17" type="curve" smooth="yes"/>
      <point x="554" y="-17"/>
      <point x="560" y="58"/>
      <point x="523" y="58" type="curve" smooth="yes"/>
      <point x="476" y="58"/>
      <point x="460" y="78"/>
      <point x="481" y="141" type="curve" smooth="yes"/>
      <point x="590" y="476" type="line" smooth="yes"/>
      <point x="599" y="503"/>
      <point x="590" y="515"/>
      <point x="549" y="515" type="curve" smooth="yes"/>
      <point x="523" y="515"/>
      <point x="513" y="510"/>
      <point x="504" y="483" type="curve" smooth="yes"/>
      <point x="396" y="153" type="line" smooth="yes"/>
      <point x="363" y="50"/>
      <point x="405" y="-17"/>
    </contour>
  </outline>
</glyph>
<glyph name="ae.ful" format="2">
  <advance width="775"/>
  <anchor x="451" y="500" name="top"/>
  <outline>
    <contour>
      <point x="183" y="-17" type="curve" smooth="yes"/>
      <point x="266" y="-17"/>
      <point x="336" y="21"/>
      <point x="413" y="134" type="curve"/>
      <point x="386" y="219" type="line"/>
      <point x="310" y="105"/>
      <point x="251" y="63"/>
      <point x="198" y="63" type="curve" smooth="yes"/>
      <point x="158" y="63"/>
      <point x="133" y="90"/>
      <point x="133" y="145" type="curve" smooth="yes"/>
      <point x="133" y="265"/>
      <point x="215" y="440"/>
      <point x="366" y="440" type="curve" smooth="yes"/>
      <point x="420" y="440"/>
      <point x="451" y="426"/>
      <point x="478" y="411" type="curve"/>
      <point x="547" y="470" type="line"/>
      <point x="492" y="501"/>
      <point x="445" y="519"/>
      <point x="372" y="519" type="curve" smooth="yes"/>
      <point x="156" y="519"/>
      <point x="41" y="299"/>
      <point x="41" y="144" type="curve" smooth="yes"/>
      <point x="41" y="48"/>
      <point x="90" y="-17"/>
    </contour>
    <contour>
      <point x="585" y="-19" type="curve" smooth="yes"/>
      <point x="658" y="-19"/>
      <point x="725" y="10"/>
      <point x="788" y="70" type="curve" smooth="yes"/>
      <point x="806" y="86"/>
      <point x="802" y="104"/>
      <point x="783" y="123" type="curve" smooth="yes"/>
      <point x="768" y="138"/>
      <point x="752" y="141"/>
      <point x="733" y="125" type="curve" smooth="yes"/>
      <point x="692" y="90"/>
      <point x="647" y="61"/>
      <point x="600" y="61" type="curve" smooth="yes"/>
      <point x="532" y="61"/>
      <point x="466" y="129"/>
      <point x="466" y="235" type="curve" smooth="yes"/>
      <point x="466" y="314"/>
      <point x="511" y="439"/>
      <point x="593" y="439" type="curve" smooth="yes"/>
      <point x="632" y="439"/>
      <point x="648" y="419"/>
      <point x="648" y="391" type="curve" smooth="yes"/>
      <point x="648" y="310"/>
      <point x="566" y="256"/>
      <point x="402" y="221" type="curve"/>
      <point x="420" y="151" type="line"/>
      <point x="631" y="203"/>
      <point x="738" y="276"/>
      <point x="738" y="409" type="curve" smooth="yes"/>
      <point x="738" y="465"/>
      <point x="696" y="519"/>
      <point x="608" y="519" type="curve" smooth="yes"/>
      <point x="483" y="519"/>
      <point x="377" y="405"/>
      <point x="377" y="230" type="curve" smooth="yes"/>
      <point x="377" y="84"/>
      <point x="471" y="-19"/>
    </contour>
  </outline>
</glyph>
